%TF.GenerationSoftware,KiCad,Pcbnew,8.0.3*%
%TF.CreationDate,2024-07-30T19:31:25-07:00*%
%TF.ProjectId,ardxp1,61726478-7031-42e6-9b69-6361645f7063,v0.1*%
%TF.SameCoordinates,Original*%
%TF.FileFunction,Drillmap*%
%TF.FilePolarity,Positive*%
%FSLAX45Y45*%
G04 Gerber Fmt 4.5, Leading zero omitted, Abs format (unit mm)*
G04 Created by KiCad (PCBNEW 8.0.3) date 2024-07-30 19:31:25*
%MOMM*%
%LPD*%
G01*
G04 APERTURE LIST*
%ADD10C,0.050000*%
%ADD11C,0.200000*%
%ADD12C,0.100000*%
%ADD13C,0.110000*%
%ADD14C,0.180000*%
%ADD15C,0.250000*%
G04 APERTURE END LIST*
D10*
X4000000Y-4000000D02*
X4000000Y-8550000D01*
X6032000Y-8550000D02*
X6032500Y-14000000D01*
X4000000Y-8550000D02*
X6032000Y-8550000D01*
X6032500Y-14000000D02*
X12500000Y-14000000D01*
X12500000Y-4000000D02*
X4000000Y-4000000D01*
X12500000Y-14000000D02*
X12500000Y-4000000D01*
D11*
D12*
X4180000Y-4880000D02*
X4220000Y-4920000D01*
X4220000Y-4880000D02*
X4180000Y-4920000D01*
X4180000Y-5680000D02*
X4220000Y-5720000D01*
X4220000Y-5680000D02*
X4180000Y-5720000D01*
X4180000Y-6480000D02*
X4220000Y-6520000D01*
X4220000Y-6480000D02*
X4180000Y-6520000D01*
X4180000Y-7280000D02*
X4220000Y-7320000D01*
X4220000Y-7280000D02*
X4180000Y-7320000D01*
X4480000Y-4180000D02*
X4520000Y-4220000D01*
X4520000Y-4180000D02*
X4480000Y-4220000D01*
X5280000Y-4180000D02*
X5320000Y-4220000D01*
X5320000Y-4180000D02*
X5280000Y-4220000D01*
X6080000Y-4180000D02*
X6120000Y-4220000D01*
X6120000Y-4180000D02*
X6080000Y-4220000D01*
X6380000Y-8780000D02*
X6420000Y-8820000D01*
X6420000Y-8780000D02*
X6380000Y-8820000D01*
X6380000Y-10230000D02*
X6420000Y-10270000D01*
X6420000Y-10230000D02*
X6380000Y-10270000D01*
X6380000Y-11430000D02*
X6420000Y-11470000D01*
X6420000Y-11430000D02*
X6380000Y-11470000D01*
X6380000Y-12780000D02*
X6420000Y-12820000D01*
X6420000Y-12780000D02*
X6380000Y-12820000D01*
X6880000Y-4180000D02*
X6920000Y-4220000D01*
X6920000Y-4180000D02*
X6880000Y-4220000D01*
X7680000Y-4180000D02*
X7720000Y-4220000D01*
X7720000Y-4180000D02*
X7680000Y-4220000D01*
X11980000Y-4180000D02*
X12020000Y-4220000D01*
X12020000Y-4180000D02*
X11980000Y-4220000D01*
X11980000Y-12330000D02*
X12020000Y-12370000D01*
X12020000Y-12330000D02*
X11980000Y-12370000D01*
X12280000Y-4580000D02*
X12320000Y-4620000D01*
X12320000Y-4580000D02*
X12280000Y-4620000D01*
X12280000Y-5380000D02*
X12320000Y-5420000D01*
X12320000Y-5380000D02*
X12280000Y-5420000D01*
X12280000Y-6180000D02*
X12320000Y-6220000D01*
X12320000Y-6180000D02*
X12280000Y-6220000D01*
X12280000Y-6980000D02*
X12320000Y-7020000D01*
X12320000Y-6980000D02*
X12280000Y-7020000D01*
X12280000Y-7780000D02*
X12320000Y-7820000D01*
X12320000Y-7780000D02*
X12280000Y-7820000D01*
X12280000Y-8580000D02*
X12320000Y-8620000D01*
X12320000Y-8580000D02*
X12280000Y-8620000D01*
X12280000Y-9380000D02*
X12320000Y-9420000D01*
X12320000Y-9380000D02*
X12280000Y-9420000D01*
X12280000Y-10180000D02*
X12320000Y-10220000D01*
X12320000Y-10180000D02*
X12280000Y-10220000D01*
X8427000Y-6400000D02*
G75*
G02*
X8357000Y-6400000I-35000J0D01*
G01*
X8357000Y-6400000D02*
G75*
G02*
X8427000Y-6400000I35000J0D01*
G01*
X8935000Y-6400000D02*
G75*
G02*
X8865000Y-6400000I-35000J0D01*
G01*
X8865000Y-6400000D02*
G75*
G02*
X8935000Y-6400000I35000J0D01*
G01*
X9619000Y-6400000D02*
G75*
G02*
X9549000Y-6400000I-35000J0D01*
G01*
X9549000Y-6400000D02*
G75*
G02*
X9619000Y-6400000I35000J0D01*
G01*
X10127000Y-6400000D02*
G75*
G02*
X10057000Y-6400000I-35000J0D01*
G01*
X10057000Y-6400000D02*
G75*
G02*
X10127000Y-6400000I35000J0D01*
G01*
X11027000Y-6700000D02*
G75*
G02*
X10957000Y-6700000I-35000J0D01*
G01*
X10957000Y-6700000D02*
G75*
G02*
X11027000Y-6700000I35000J0D01*
G01*
X11535000Y-6700000D02*
G75*
G02*
X11465000Y-6700000I-35000J0D01*
G01*
X11465000Y-6700000D02*
G75*
G02*
X11535000Y-6700000I35000J0D01*
G01*
X5100000Y-7350000D02*
X5100000Y-7450000D01*
X5050000Y-7400000D02*
X5150000Y-7400000D01*
X5354000Y-7350000D02*
X5354000Y-7450000D01*
X5304000Y-7400000D02*
X5404000Y-7400000D01*
X5608000Y-7350000D02*
X5608000Y-7450000D01*
X5558000Y-7400000D02*
X5658000Y-7400000D01*
X5862000Y-7350000D02*
X5862000Y-7450000D01*
X5812000Y-7400000D02*
X5912000Y-7400000D01*
X6116000Y-7350000D02*
X6116000Y-7450000D01*
X6066000Y-7400000D02*
X6166000Y-7400000D01*
X6370000Y-7350000D02*
X6370000Y-7450000D01*
X6320000Y-7400000D02*
X6420000Y-7400000D01*
X6624000Y-7350000D02*
X6624000Y-7450000D01*
X6574000Y-7400000D02*
X6674000Y-7400000D01*
X6686000Y-13476000D02*
X6686000Y-13576000D01*
X6636000Y-13526000D02*
X6736000Y-13526000D01*
X6878000Y-7350000D02*
X6878000Y-7450000D01*
X6828000Y-7400000D02*
X6928000Y-7400000D01*
X6940000Y-13476000D02*
X6940000Y-13576000D01*
X6890000Y-13526000D02*
X6990000Y-13526000D01*
X7194000Y-13476000D02*
X7194000Y-13576000D01*
X7144000Y-13526000D02*
X7244000Y-13526000D01*
X7448000Y-13476000D02*
X7448000Y-13576000D01*
X7398000Y-13526000D02*
X7498000Y-13526000D01*
X7600000Y-8650000D02*
X7600000Y-8750000D01*
X7550000Y-8700000D02*
X7650000Y-8700000D01*
X7702000Y-13476000D02*
X7702000Y-13576000D01*
X7652000Y-13526000D02*
X7752000Y-13526000D01*
X7854000Y-8650000D02*
X7854000Y-8750000D01*
X7804000Y-8700000D02*
X7904000Y-8700000D01*
X7956000Y-13476000D02*
X7956000Y-13576000D01*
X7906000Y-13526000D02*
X8006000Y-13526000D01*
X8108000Y-8650000D02*
X8108000Y-8750000D01*
X8058000Y-8700000D02*
X8158000Y-8700000D01*
X8210000Y-13476000D02*
X8210000Y-13576000D01*
X8160000Y-13526000D02*
X8260000Y-13526000D01*
X8362000Y-8650000D02*
X8362000Y-8750000D01*
X8312000Y-8700000D02*
X8412000Y-8700000D01*
X8464000Y-13476000D02*
X8464000Y-13576000D01*
X8414000Y-13526000D02*
X8514000Y-13526000D01*
X8616000Y-8650000D02*
X8616000Y-8750000D01*
X8566000Y-8700000D02*
X8666000Y-8700000D01*
X8718000Y-13476000D02*
X8718000Y-13576000D01*
X8668000Y-13526000D02*
X8768000Y-13526000D01*
X8870000Y-8650000D02*
X8870000Y-8750000D01*
X8820000Y-8700000D02*
X8920000Y-8700000D01*
X8972000Y-13476000D02*
X8972000Y-13576000D01*
X8922000Y-13526000D02*
X9022000Y-13526000D01*
X9124000Y-8650000D02*
X9124000Y-8750000D01*
X9074000Y-8700000D02*
X9174000Y-8700000D01*
X9378000Y-8650000D02*
X9378000Y-8750000D01*
X9328000Y-8700000D02*
X9428000Y-8700000D01*
X9378000Y-13476000D02*
X9378000Y-13576000D01*
X9328000Y-13526000D02*
X9428000Y-13526000D01*
X9632000Y-13476000D02*
X9632000Y-13576000D01*
X9582000Y-13526000D02*
X9682000Y-13526000D01*
X9886000Y-8650000D02*
X9886000Y-8750000D01*
X9836000Y-8700000D02*
X9936000Y-8700000D01*
X9886000Y-13476000D02*
X9886000Y-13576000D01*
X9836000Y-13526000D02*
X9936000Y-13526000D01*
X10140000Y-8650000D02*
X10140000Y-8750000D01*
X10090000Y-8700000D02*
X10190000Y-8700000D01*
X10140000Y-13476000D02*
X10140000Y-13576000D01*
X10090000Y-13526000D02*
X10190000Y-13526000D01*
X10394000Y-8650000D02*
X10394000Y-8750000D01*
X10344000Y-8700000D02*
X10444000Y-8700000D01*
X10394000Y-13476000D02*
X10394000Y-13576000D01*
X10344000Y-13526000D02*
X10444000Y-13526000D01*
X10648000Y-8650000D02*
X10648000Y-8750000D01*
X10598000Y-8700000D02*
X10698000Y-8700000D01*
X10648000Y-13476000D02*
X10648000Y-13576000D01*
X10598000Y-13526000D02*
X10698000Y-13526000D01*
X10902000Y-8650000D02*
X10902000Y-8750000D01*
X10852000Y-8700000D02*
X10952000Y-8700000D01*
X10902000Y-13476000D02*
X10902000Y-13576000D01*
X10852000Y-13526000D02*
X10952000Y-13526000D01*
X11020000Y-4350000D02*
X11020000Y-4450000D01*
X10970000Y-4400000D02*
X11070000Y-4400000D01*
X11020000Y-5800000D02*
X11020000Y-5900000D01*
X10970000Y-5850000D02*
X11070000Y-5850000D01*
X11156000Y-8650000D02*
X11156000Y-8750000D01*
X11106000Y-8700000D02*
X11206000Y-8700000D01*
X11156000Y-13476000D02*
X11156000Y-13576000D01*
X11106000Y-13526000D02*
X11206000Y-13526000D01*
X11270000Y-5800000D02*
X11270000Y-5900000D01*
X11220000Y-5850000D02*
X11320000Y-5850000D01*
X11520000Y-4350000D02*
X11520000Y-4450000D01*
X11470000Y-4400000D02*
X11570000Y-4400000D01*
X11520000Y-5800000D02*
X11520000Y-5900000D01*
X11470000Y-5850000D02*
X11570000Y-5850000D01*
D13*
X8338891Y-4438891D02*
X8338891Y-4361109D01*
X8261109Y-4361109D01*
X8261109Y-4438891D01*
X8338891Y-4438891D01*
X8338891Y-4888891D02*
X8338891Y-4811109D01*
X8261109Y-4811109D01*
X8261109Y-4888891D01*
X8338891Y-4888891D01*
X8988891Y-4438891D02*
X8988891Y-4361109D01*
X8911109Y-4361109D01*
X8911109Y-4438891D01*
X8988891Y-4438891D01*
X8988891Y-4888891D02*
X8988891Y-4811109D01*
X8911109Y-4811109D01*
X8911109Y-4888891D01*
X8988891Y-4888891D01*
X9538891Y-4438891D02*
X9538891Y-4361109D01*
X9461109Y-4361109D01*
X9461109Y-4438891D01*
X9538891Y-4438891D01*
X9538891Y-4888891D02*
X9538891Y-4811109D01*
X9461109Y-4811109D01*
X9461109Y-4888891D01*
X9538891Y-4888891D01*
X10188891Y-4438891D02*
X10188891Y-4361109D01*
X10111109Y-4361109D01*
X10111109Y-4438891D01*
X10188891Y-4438891D01*
X10188891Y-4888891D02*
X10188891Y-4811109D01*
X10111109Y-4811109D01*
X10111109Y-4888891D01*
X10188891Y-4888891D01*
D14*
X10700000Y-5190000D02*
X10790000Y-5100000D01*
X10700000Y-5010000D01*
X10610000Y-5100000D01*
X10700000Y-5190000D01*
D12*
X10610000Y-5060000D02*
X10610000Y-5140000D01*
X10790000Y-5140000D02*
G75*
G02*
X10610000Y-5140000I-90000J0D01*
G01*
X10790000Y-5140000D02*
X10790000Y-5060000D01*
X10790000Y-5060000D02*
G75*
G03*
X10610000Y-5060000I-90000J0D01*
G01*
D14*
X11840000Y-5190000D02*
X11930000Y-5100000D01*
X11840000Y-5010000D01*
X11750000Y-5100000D01*
X11840000Y-5190000D01*
D12*
X11750000Y-5060000D02*
X11750000Y-5140000D01*
X11930000Y-5140000D02*
G75*
G02*
X11750000Y-5140000I-90000J0D01*
G01*
X11930000Y-5140000D02*
X11930000Y-5060000D01*
X11930000Y-5060000D02*
G75*
G03*
X11750000Y-5060000I-90000J0D01*
G01*
D15*
X4375000Y-8025000D02*
X4625000Y-8275000D01*
X4625000Y-8025000D02*
X4375000Y-8275000D01*
X4625000Y-8150000D02*
G75*
G02*
X4375000Y-8150000I-125000J0D01*
G01*
X4375000Y-8150000D02*
G75*
G02*
X4625000Y-8150000I125000J0D01*
G01*
X9375000Y-5375000D02*
X9625000Y-5625000D01*
X9625000Y-5375000D02*
X9375000Y-5625000D01*
X9625000Y-5500000D02*
G75*
G02*
X9375000Y-5500000I-125000J0D01*
G01*
X9375000Y-5500000D02*
G75*
G02*
X9625000Y-5500000I125000J0D01*
G01*
X11875000Y-13375000D02*
X12125000Y-13625000D01*
X12125000Y-13375000D02*
X11875000Y-13625000D01*
X12125000Y-13500000D02*
G75*
G02*
X11875000Y-13500000I-125000J0D01*
G01*
X11875000Y-13500000D02*
G75*
G02*
X12125000Y-13500000I125000J0D01*
G01*
D11*
X4258277Y-14313984D02*
X4258277Y-14113984D01*
X4258277Y-14113984D02*
X4305896Y-14113984D01*
X4305896Y-14113984D02*
X4334467Y-14123508D01*
X4334467Y-14123508D02*
X4353515Y-14142555D01*
X4353515Y-14142555D02*
X4363039Y-14161603D01*
X4363039Y-14161603D02*
X4372563Y-14199698D01*
X4372563Y-14199698D02*
X4372563Y-14228269D01*
X4372563Y-14228269D02*
X4363039Y-14266365D01*
X4363039Y-14266365D02*
X4353515Y-14285412D01*
X4353515Y-14285412D02*
X4334467Y-14304460D01*
X4334467Y-14304460D02*
X4305896Y-14313984D01*
X4305896Y-14313984D02*
X4258277Y-14313984D01*
X4458277Y-14313984D02*
X4458277Y-14180650D01*
X4458277Y-14218746D02*
X4467801Y-14199698D01*
X4467801Y-14199698D02*
X4477324Y-14190174D01*
X4477324Y-14190174D02*
X4496372Y-14180650D01*
X4496372Y-14180650D02*
X4515420Y-14180650D01*
X4582086Y-14313984D02*
X4582086Y-14180650D01*
X4582086Y-14113984D02*
X4572563Y-14123508D01*
X4572563Y-14123508D02*
X4582086Y-14133031D01*
X4582086Y-14133031D02*
X4591610Y-14123508D01*
X4591610Y-14123508D02*
X4582086Y-14113984D01*
X4582086Y-14113984D02*
X4582086Y-14133031D01*
X4705896Y-14313984D02*
X4686848Y-14304460D01*
X4686848Y-14304460D02*
X4677324Y-14285412D01*
X4677324Y-14285412D02*
X4677324Y-14113984D01*
X4810658Y-14313984D02*
X4791610Y-14304460D01*
X4791610Y-14304460D02*
X4782086Y-14285412D01*
X4782086Y-14285412D02*
X4782086Y-14113984D01*
X5039229Y-14313984D02*
X5039229Y-14113984D01*
X5039229Y-14113984D02*
X5105896Y-14256841D01*
X5105896Y-14256841D02*
X5172563Y-14113984D01*
X5172563Y-14113984D02*
X5172563Y-14313984D01*
X5353515Y-14313984D02*
X5353515Y-14209222D01*
X5353515Y-14209222D02*
X5343991Y-14190174D01*
X5343991Y-14190174D02*
X5324944Y-14180650D01*
X5324944Y-14180650D02*
X5286848Y-14180650D01*
X5286848Y-14180650D02*
X5267801Y-14190174D01*
X5353515Y-14304460D02*
X5334467Y-14313984D01*
X5334467Y-14313984D02*
X5286848Y-14313984D01*
X5286848Y-14313984D02*
X5267801Y-14304460D01*
X5267801Y-14304460D02*
X5258277Y-14285412D01*
X5258277Y-14285412D02*
X5258277Y-14266365D01*
X5258277Y-14266365D02*
X5267801Y-14247317D01*
X5267801Y-14247317D02*
X5286848Y-14237793D01*
X5286848Y-14237793D02*
X5334467Y-14237793D01*
X5334467Y-14237793D02*
X5353515Y-14228269D01*
X5448753Y-14180650D02*
X5448753Y-14380650D01*
X5448753Y-14190174D02*
X5467801Y-14180650D01*
X5467801Y-14180650D02*
X5505896Y-14180650D01*
X5505896Y-14180650D02*
X5524944Y-14190174D01*
X5524944Y-14190174D02*
X5534467Y-14199698D01*
X5534467Y-14199698D02*
X5543991Y-14218746D01*
X5543991Y-14218746D02*
X5543991Y-14275888D01*
X5543991Y-14275888D02*
X5534467Y-14294936D01*
X5534467Y-14294936D02*
X5524944Y-14304460D01*
X5524944Y-14304460D02*
X5505896Y-14313984D01*
X5505896Y-14313984D02*
X5467801Y-14313984D01*
X5467801Y-14313984D02*
X5448753Y-14304460D01*
X5629705Y-14294936D02*
X5639229Y-14304460D01*
X5639229Y-14304460D02*
X5629705Y-14313984D01*
X5629705Y-14313984D02*
X5620182Y-14304460D01*
X5620182Y-14304460D02*
X5629705Y-14294936D01*
X5629705Y-14294936D02*
X5629705Y-14313984D01*
X5629705Y-14190174D02*
X5639229Y-14199698D01*
X5639229Y-14199698D02*
X5629705Y-14209222D01*
X5629705Y-14209222D02*
X5620182Y-14199698D01*
X5620182Y-14199698D02*
X5629705Y-14190174D01*
X5629705Y-14190174D02*
X5629705Y-14209222D01*
D12*
X3957500Y-14622500D02*
X3997500Y-14662500D01*
X3997500Y-14622500D02*
X3957500Y-14662500D01*
D11*
X4296372Y-14533984D02*
X4315420Y-14533984D01*
X4315420Y-14533984D02*
X4334467Y-14543508D01*
X4334467Y-14543508D02*
X4343991Y-14553031D01*
X4343991Y-14553031D02*
X4353515Y-14572079D01*
X4353515Y-14572079D02*
X4363039Y-14610174D01*
X4363039Y-14610174D02*
X4363039Y-14657793D01*
X4363039Y-14657793D02*
X4353515Y-14695888D01*
X4353515Y-14695888D02*
X4343991Y-14714936D01*
X4343991Y-14714936D02*
X4334467Y-14724460D01*
X4334467Y-14724460D02*
X4315420Y-14733984D01*
X4315420Y-14733984D02*
X4296372Y-14733984D01*
X4296372Y-14733984D02*
X4277324Y-14724460D01*
X4277324Y-14724460D02*
X4267801Y-14714936D01*
X4267801Y-14714936D02*
X4258277Y-14695888D01*
X4258277Y-14695888D02*
X4248753Y-14657793D01*
X4248753Y-14657793D02*
X4248753Y-14610174D01*
X4248753Y-14610174D02*
X4258277Y-14572079D01*
X4258277Y-14572079D02*
X4267801Y-14553031D01*
X4267801Y-14553031D02*
X4277324Y-14543508D01*
X4277324Y-14543508D02*
X4296372Y-14533984D01*
X4448753Y-14714936D02*
X4458277Y-14724460D01*
X4458277Y-14724460D02*
X4448753Y-14733984D01*
X4448753Y-14733984D02*
X4439229Y-14724460D01*
X4439229Y-14724460D02*
X4448753Y-14714936D01*
X4448753Y-14714936D02*
X4448753Y-14733984D01*
X4629705Y-14600650D02*
X4629705Y-14733984D01*
X4582086Y-14524460D02*
X4534467Y-14667317D01*
X4534467Y-14667317D02*
X4658277Y-14667317D01*
X4772563Y-14533984D02*
X4791610Y-14533984D01*
X4791610Y-14533984D02*
X4810658Y-14543508D01*
X4810658Y-14543508D02*
X4820182Y-14553031D01*
X4820182Y-14553031D02*
X4829705Y-14572079D01*
X4829705Y-14572079D02*
X4839229Y-14610174D01*
X4839229Y-14610174D02*
X4839229Y-14657793D01*
X4839229Y-14657793D02*
X4829705Y-14695888D01*
X4829705Y-14695888D02*
X4820182Y-14714936D01*
X4820182Y-14714936D02*
X4810658Y-14724460D01*
X4810658Y-14724460D02*
X4791610Y-14733984D01*
X4791610Y-14733984D02*
X4772563Y-14733984D01*
X4772563Y-14733984D02*
X4753515Y-14724460D01*
X4753515Y-14724460D02*
X4743991Y-14714936D01*
X4743991Y-14714936D02*
X4734467Y-14695888D01*
X4734467Y-14695888D02*
X4724944Y-14657793D01*
X4724944Y-14657793D02*
X4724944Y-14610174D01*
X4724944Y-14610174D02*
X4734467Y-14572079D01*
X4734467Y-14572079D02*
X4743991Y-14553031D01*
X4743991Y-14553031D02*
X4753515Y-14543508D01*
X4753515Y-14543508D02*
X4772563Y-14533984D01*
X4963039Y-14533984D02*
X4982086Y-14533984D01*
X4982086Y-14533984D02*
X5001134Y-14543508D01*
X5001134Y-14543508D02*
X5010658Y-14553031D01*
X5010658Y-14553031D02*
X5020182Y-14572079D01*
X5020182Y-14572079D02*
X5029705Y-14610174D01*
X5029705Y-14610174D02*
X5029705Y-14657793D01*
X5029705Y-14657793D02*
X5020182Y-14695888D01*
X5020182Y-14695888D02*
X5010658Y-14714936D01*
X5010658Y-14714936D02*
X5001134Y-14724460D01*
X5001134Y-14724460D02*
X4982086Y-14733984D01*
X4982086Y-14733984D02*
X4963039Y-14733984D01*
X4963039Y-14733984D02*
X4943991Y-14724460D01*
X4943991Y-14724460D02*
X4934467Y-14714936D01*
X4934467Y-14714936D02*
X4924944Y-14695888D01*
X4924944Y-14695888D02*
X4915420Y-14657793D01*
X4915420Y-14657793D02*
X4915420Y-14610174D01*
X4915420Y-14610174D02*
X4924944Y-14572079D01*
X4924944Y-14572079D02*
X4934467Y-14553031D01*
X4934467Y-14553031D02*
X4943991Y-14543508D01*
X4943991Y-14543508D02*
X4963039Y-14533984D01*
X5115420Y-14733984D02*
X5115420Y-14600650D01*
X5115420Y-14619698D02*
X5124944Y-14610174D01*
X5124944Y-14610174D02*
X5143991Y-14600650D01*
X5143991Y-14600650D02*
X5172563Y-14600650D01*
X5172563Y-14600650D02*
X5191610Y-14610174D01*
X5191610Y-14610174D02*
X5201134Y-14629222D01*
X5201134Y-14629222D02*
X5201134Y-14733984D01*
X5201134Y-14629222D02*
X5210658Y-14610174D01*
X5210658Y-14610174D02*
X5229705Y-14600650D01*
X5229705Y-14600650D02*
X5258277Y-14600650D01*
X5258277Y-14600650D02*
X5277325Y-14610174D01*
X5277325Y-14610174D02*
X5286848Y-14629222D01*
X5286848Y-14629222D02*
X5286848Y-14733984D01*
X5382086Y-14733984D02*
X5382086Y-14600650D01*
X5382086Y-14619698D02*
X5391610Y-14610174D01*
X5391610Y-14610174D02*
X5410658Y-14600650D01*
X5410658Y-14600650D02*
X5439229Y-14600650D01*
X5439229Y-14600650D02*
X5458277Y-14610174D01*
X5458277Y-14610174D02*
X5467801Y-14629222D01*
X5467801Y-14629222D02*
X5467801Y-14733984D01*
X5467801Y-14629222D02*
X5477325Y-14610174D01*
X5477325Y-14610174D02*
X5496372Y-14600650D01*
X5496372Y-14600650D02*
X5524944Y-14600650D01*
X5524944Y-14600650D02*
X5543991Y-14610174D01*
X5543991Y-14610174D02*
X5553515Y-14629222D01*
X5553515Y-14629222D02*
X5553515Y-14733984D01*
X5943991Y-14524460D02*
X5772563Y-14781603D01*
X6201134Y-14533984D02*
X6220182Y-14533984D01*
X6220182Y-14533984D02*
X6239229Y-14543508D01*
X6239229Y-14543508D02*
X6248753Y-14553031D01*
X6248753Y-14553031D02*
X6258277Y-14572079D01*
X6258277Y-14572079D02*
X6267801Y-14610174D01*
X6267801Y-14610174D02*
X6267801Y-14657793D01*
X6267801Y-14657793D02*
X6258277Y-14695888D01*
X6258277Y-14695888D02*
X6248753Y-14714936D01*
X6248753Y-14714936D02*
X6239229Y-14724460D01*
X6239229Y-14724460D02*
X6220182Y-14733984D01*
X6220182Y-14733984D02*
X6201134Y-14733984D01*
X6201134Y-14733984D02*
X6182086Y-14724460D01*
X6182086Y-14724460D02*
X6172563Y-14714936D01*
X6172563Y-14714936D02*
X6163039Y-14695888D01*
X6163039Y-14695888D02*
X6153515Y-14657793D01*
X6153515Y-14657793D02*
X6153515Y-14610174D01*
X6153515Y-14610174D02*
X6163039Y-14572079D01*
X6163039Y-14572079D02*
X6172563Y-14553031D01*
X6172563Y-14553031D02*
X6182086Y-14543508D01*
X6182086Y-14543508D02*
X6201134Y-14533984D01*
X6353515Y-14714936D02*
X6363039Y-14724460D01*
X6363039Y-14724460D02*
X6353515Y-14733984D01*
X6353515Y-14733984D02*
X6343991Y-14724460D01*
X6343991Y-14724460D02*
X6353515Y-14714936D01*
X6353515Y-14714936D02*
X6353515Y-14733984D01*
X6486848Y-14533984D02*
X6505896Y-14533984D01*
X6505896Y-14533984D02*
X6524944Y-14543508D01*
X6524944Y-14543508D02*
X6534467Y-14553031D01*
X6534467Y-14553031D02*
X6543991Y-14572079D01*
X6543991Y-14572079D02*
X6553515Y-14610174D01*
X6553515Y-14610174D02*
X6553515Y-14657793D01*
X6553515Y-14657793D02*
X6543991Y-14695888D01*
X6543991Y-14695888D02*
X6534467Y-14714936D01*
X6534467Y-14714936D02*
X6524944Y-14724460D01*
X6524944Y-14724460D02*
X6505896Y-14733984D01*
X6505896Y-14733984D02*
X6486848Y-14733984D01*
X6486848Y-14733984D02*
X6467801Y-14724460D01*
X6467801Y-14724460D02*
X6458277Y-14714936D01*
X6458277Y-14714936D02*
X6448753Y-14695888D01*
X6448753Y-14695888D02*
X6439229Y-14657793D01*
X6439229Y-14657793D02*
X6439229Y-14610174D01*
X6439229Y-14610174D02*
X6448753Y-14572079D01*
X6448753Y-14572079D02*
X6458277Y-14553031D01*
X6458277Y-14553031D02*
X6467801Y-14543508D01*
X6467801Y-14543508D02*
X6486848Y-14533984D01*
X6743991Y-14733984D02*
X6629706Y-14733984D01*
X6686848Y-14733984D02*
X6686848Y-14533984D01*
X6686848Y-14533984D02*
X6667801Y-14562555D01*
X6667801Y-14562555D02*
X6648753Y-14581603D01*
X6648753Y-14581603D02*
X6629706Y-14591127D01*
X6924944Y-14533984D02*
X6829706Y-14533984D01*
X6829706Y-14533984D02*
X6820182Y-14629222D01*
X6820182Y-14629222D02*
X6829706Y-14619698D01*
X6829706Y-14619698D02*
X6848753Y-14610174D01*
X6848753Y-14610174D02*
X6896372Y-14610174D01*
X6896372Y-14610174D02*
X6915420Y-14619698D01*
X6915420Y-14619698D02*
X6924944Y-14629222D01*
X6924944Y-14629222D02*
X6934467Y-14648269D01*
X6934467Y-14648269D02*
X6934467Y-14695888D01*
X6934467Y-14695888D02*
X6924944Y-14714936D01*
X6924944Y-14714936D02*
X6915420Y-14724460D01*
X6915420Y-14724460D02*
X6896372Y-14733984D01*
X6896372Y-14733984D02*
X6848753Y-14733984D01*
X6848753Y-14733984D02*
X6829706Y-14724460D01*
X6829706Y-14724460D02*
X6820182Y-14714936D01*
X7001134Y-14533984D02*
X7134467Y-14533984D01*
X7134467Y-14533984D02*
X7048753Y-14733984D01*
X7201134Y-14533984D02*
X7201134Y-14572079D01*
X7277325Y-14533984D02*
X7277325Y-14572079D01*
X7572563Y-14810174D02*
X7563039Y-14800650D01*
X7563039Y-14800650D02*
X7543991Y-14772079D01*
X7543991Y-14772079D02*
X7534468Y-14753031D01*
X7534468Y-14753031D02*
X7524944Y-14724460D01*
X7524944Y-14724460D02*
X7515420Y-14676841D01*
X7515420Y-14676841D02*
X7515420Y-14638746D01*
X7515420Y-14638746D02*
X7524944Y-14591127D01*
X7524944Y-14591127D02*
X7534468Y-14562555D01*
X7534468Y-14562555D02*
X7543991Y-14543508D01*
X7543991Y-14543508D02*
X7563039Y-14514936D01*
X7563039Y-14514936D02*
X7572563Y-14505412D01*
X7639229Y-14553031D02*
X7648753Y-14543508D01*
X7648753Y-14543508D02*
X7667801Y-14533984D01*
X7667801Y-14533984D02*
X7715420Y-14533984D01*
X7715420Y-14533984D02*
X7734468Y-14543508D01*
X7734468Y-14543508D02*
X7743991Y-14553031D01*
X7743991Y-14553031D02*
X7753515Y-14572079D01*
X7753515Y-14572079D02*
X7753515Y-14591127D01*
X7753515Y-14591127D02*
X7743991Y-14619698D01*
X7743991Y-14619698D02*
X7629706Y-14733984D01*
X7629706Y-14733984D02*
X7753515Y-14733984D01*
X7820182Y-14533984D02*
X7943991Y-14533984D01*
X7943991Y-14533984D02*
X7877325Y-14610174D01*
X7877325Y-14610174D02*
X7905896Y-14610174D01*
X7905896Y-14610174D02*
X7924944Y-14619698D01*
X7924944Y-14619698D02*
X7934468Y-14629222D01*
X7934468Y-14629222D02*
X7943991Y-14648269D01*
X7943991Y-14648269D02*
X7943991Y-14695888D01*
X7943991Y-14695888D02*
X7934468Y-14714936D01*
X7934468Y-14714936D02*
X7924944Y-14724460D01*
X7924944Y-14724460D02*
X7905896Y-14733984D01*
X7905896Y-14733984D02*
X7848753Y-14733984D01*
X7848753Y-14733984D02*
X7829706Y-14724460D01*
X7829706Y-14724460D02*
X7820182Y-14714936D01*
X8182087Y-14733984D02*
X8182087Y-14533984D01*
X8267801Y-14733984D02*
X8267801Y-14629222D01*
X8267801Y-14629222D02*
X8258277Y-14610174D01*
X8258277Y-14610174D02*
X8239230Y-14600650D01*
X8239230Y-14600650D02*
X8210658Y-14600650D01*
X8210658Y-14600650D02*
X8191610Y-14610174D01*
X8191610Y-14610174D02*
X8182087Y-14619698D01*
X8391611Y-14733984D02*
X8372563Y-14724460D01*
X8372563Y-14724460D02*
X8363039Y-14714936D01*
X8363039Y-14714936D02*
X8353515Y-14695888D01*
X8353515Y-14695888D02*
X8353515Y-14638746D01*
X8353515Y-14638746D02*
X8363039Y-14619698D01*
X8363039Y-14619698D02*
X8372563Y-14610174D01*
X8372563Y-14610174D02*
X8391611Y-14600650D01*
X8391611Y-14600650D02*
X8420182Y-14600650D01*
X8420182Y-14600650D02*
X8439230Y-14610174D01*
X8439230Y-14610174D02*
X8448753Y-14619698D01*
X8448753Y-14619698D02*
X8458277Y-14638746D01*
X8458277Y-14638746D02*
X8458277Y-14695888D01*
X8458277Y-14695888D02*
X8448753Y-14714936D01*
X8448753Y-14714936D02*
X8439230Y-14724460D01*
X8439230Y-14724460D02*
X8420182Y-14733984D01*
X8420182Y-14733984D02*
X8391611Y-14733984D01*
X8572563Y-14733984D02*
X8553515Y-14724460D01*
X8553515Y-14724460D02*
X8543992Y-14705412D01*
X8543992Y-14705412D02*
X8543992Y-14533984D01*
X8724944Y-14724460D02*
X8705896Y-14733984D01*
X8705896Y-14733984D02*
X8667801Y-14733984D01*
X8667801Y-14733984D02*
X8648753Y-14724460D01*
X8648753Y-14724460D02*
X8639230Y-14705412D01*
X8639230Y-14705412D02*
X8639230Y-14629222D01*
X8639230Y-14629222D02*
X8648753Y-14610174D01*
X8648753Y-14610174D02*
X8667801Y-14600650D01*
X8667801Y-14600650D02*
X8705896Y-14600650D01*
X8705896Y-14600650D02*
X8724944Y-14610174D01*
X8724944Y-14610174D02*
X8734468Y-14629222D01*
X8734468Y-14629222D02*
X8734468Y-14648269D01*
X8734468Y-14648269D02*
X8639230Y-14667317D01*
X8810658Y-14724460D02*
X8829706Y-14733984D01*
X8829706Y-14733984D02*
X8867801Y-14733984D01*
X8867801Y-14733984D02*
X8886849Y-14724460D01*
X8886849Y-14724460D02*
X8896373Y-14705412D01*
X8896373Y-14705412D02*
X8896373Y-14695888D01*
X8896373Y-14695888D02*
X8886849Y-14676841D01*
X8886849Y-14676841D02*
X8867801Y-14667317D01*
X8867801Y-14667317D02*
X8839230Y-14667317D01*
X8839230Y-14667317D02*
X8820182Y-14657793D01*
X8820182Y-14657793D02*
X8810658Y-14638746D01*
X8810658Y-14638746D02*
X8810658Y-14629222D01*
X8810658Y-14629222D02*
X8820182Y-14610174D01*
X8820182Y-14610174D02*
X8839230Y-14600650D01*
X8839230Y-14600650D02*
X8867801Y-14600650D01*
X8867801Y-14600650D02*
X8886849Y-14610174D01*
X8963039Y-14810174D02*
X8972563Y-14800650D01*
X8972563Y-14800650D02*
X8991611Y-14772079D01*
X8991611Y-14772079D02*
X9001134Y-14753031D01*
X9001134Y-14753031D02*
X9010658Y-14724460D01*
X9010658Y-14724460D02*
X9020182Y-14676841D01*
X9020182Y-14676841D02*
X9020182Y-14638746D01*
X9020182Y-14638746D02*
X9010658Y-14591127D01*
X9010658Y-14591127D02*
X9001134Y-14562555D01*
X9001134Y-14562555D02*
X8991611Y-14543508D01*
X8991611Y-14543508D02*
X8972563Y-14514936D01*
X8972563Y-14514936D02*
X8963039Y-14505412D01*
D12*
X3997500Y-14906500D02*
G75*
G02*
X3927500Y-14906500I-35000J0D01*
G01*
X3927500Y-14906500D02*
G75*
G02*
X3997500Y-14906500I35000J0D01*
G01*
D11*
X4296372Y-14797984D02*
X4315420Y-14797984D01*
X4315420Y-14797984D02*
X4334467Y-14807508D01*
X4334467Y-14807508D02*
X4343991Y-14817031D01*
X4343991Y-14817031D02*
X4353515Y-14836079D01*
X4353515Y-14836079D02*
X4363039Y-14874174D01*
X4363039Y-14874174D02*
X4363039Y-14921793D01*
X4363039Y-14921793D02*
X4353515Y-14959888D01*
X4353515Y-14959888D02*
X4343991Y-14978936D01*
X4343991Y-14978936D02*
X4334467Y-14988460D01*
X4334467Y-14988460D02*
X4315420Y-14997984D01*
X4315420Y-14997984D02*
X4296372Y-14997984D01*
X4296372Y-14997984D02*
X4277324Y-14988460D01*
X4277324Y-14988460D02*
X4267801Y-14978936D01*
X4267801Y-14978936D02*
X4258277Y-14959888D01*
X4258277Y-14959888D02*
X4248753Y-14921793D01*
X4248753Y-14921793D02*
X4248753Y-14874174D01*
X4248753Y-14874174D02*
X4258277Y-14836079D01*
X4258277Y-14836079D02*
X4267801Y-14817031D01*
X4267801Y-14817031D02*
X4277324Y-14807508D01*
X4277324Y-14807508D02*
X4296372Y-14797984D01*
X4448753Y-14978936D02*
X4458277Y-14988460D01*
X4458277Y-14988460D02*
X4448753Y-14997984D01*
X4448753Y-14997984D02*
X4439229Y-14988460D01*
X4439229Y-14988460D02*
X4448753Y-14978936D01*
X4448753Y-14978936D02*
X4448753Y-14997984D01*
X4524944Y-14797984D02*
X4658277Y-14797984D01*
X4658277Y-14797984D02*
X4572563Y-14997984D01*
X4772563Y-14797984D02*
X4791610Y-14797984D01*
X4791610Y-14797984D02*
X4810658Y-14807508D01*
X4810658Y-14807508D02*
X4820182Y-14817031D01*
X4820182Y-14817031D02*
X4829705Y-14836079D01*
X4829705Y-14836079D02*
X4839229Y-14874174D01*
X4839229Y-14874174D02*
X4839229Y-14921793D01*
X4839229Y-14921793D02*
X4829705Y-14959888D01*
X4829705Y-14959888D02*
X4820182Y-14978936D01*
X4820182Y-14978936D02*
X4810658Y-14988460D01*
X4810658Y-14988460D02*
X4791610Y-14997984D01*
X4791610Y-14997984D02*
X4772563Y-14997984D01*
X4772563Y-14997984D02*
X4753515Y-14988460D01*
X4753515Y-14988460D02*
X4743991Y-14978936D01*
X4743991Y-14978936D02*
X4734467Y-14959888D01*
X4734467Y-14959888D02*
X4724944Y-14921793D01*
X4724944Y-14921793D02*
X4724944Y-14874174D01*
X4724944Y-14874174D02*
X4734467Y-14836079D01*
X4734467Y-14836079D02*
X4743991Y-14817031D01*
X4743991Y-14817031D02*
X4753515Y-14807508D01*
X4753515Y-14807508D02*
X4772563Y-14797984D01*
X4963039Y-14797984D02*
X4982086Y-14797984D01*
X4982086Y-14797984D02*
X5001134Y-14807508D01*
X5001134Y-14807508D02*
X5010658Y-14817031D01*
X5010658Y-14817031D02*
X5020182Y-14836079D01*
X5020182Y-14836079D02*
X5029705Y-14874174D01*
X5029705Y-14874174D02*
X5029705Y-14921793D01*
X5029705Y-14921793D02*
X5020182Y-14959888D01*
X5020182Y-14959888D02*
X5010658Y-14978936D01*
X5010658Y-14978936D02*
X5001134Y-14988460D01*
X5001134Y-14988460D02*
X4982086Y-14997984D01*
X4982086Y-14997984D02*
X4963039Y-14997984D01*
X4963039Y-14997984D02*
X4943991Y-14988460D01*
X4943991Y-14988460D02*
X4934467Y-14978936D01*
X4934467Y-14978936D02*
X4924944Y-14959888D01*
X4924944Y-14959888D02*
X4915420Y-14921793D01*
X4915420Y-14921793D02*
X4915420Y-14874174D01*
X4915420Y-14874174D02*
X4924944Y-14836079D01*
X4924944Y-14836079D02*
X4934467Y-14817031D01*
X4934467Y-14817031D02*
X4943991Y-14807508D01*
X4943991Y-14807508D02*
X4963039Y-14797984D01*
X5115420Y-14997984D02*
X5115420Y-14864650D01*
X5115420Y-14883698D02*
X5124944Y-14874174D01*
X5124944Y-14874174D02*
X5143991Y-14864650D01*
X5143991Y-14864650D02*
X5172563Y-14864650D01*
X5172563Y-14864650D02*
X5191610Y-14874174D01*
X5191610Y-14874174D02*
X5201134Y-14893222D01*
X5201134Y-14893222D02*
X5201134Y-14997984D01*
X5201134Y-14893222D02*
X5210658Y-14874174D01*
X5210658Y-14874174D02*
X5229705Y-14864650D01*
X5229705Y-14864650D02*
X5258277Y-14864650D01*
X5258277Y-14864650D02*
X5277325Y-14874174D01*
X5277325Y-14874174D02*
X5286848Y-14893222D01*
X5286848Y-14893222D02*
X5286848Y-14997984D01*
X5382086Y-14997984D02*
X5382086Y-14864650D01*
X5382086Y-14883698D02*
X5391610Y-14874174D01*
X5391610Y-14874174D02*
X5410658Y-14864650D01*
X5410658Y-14864650D02*
X5439229Y-14864650D01*
X5439229Y-14864650D02*
X5458277Y-14874174D01*
X5458277Y-14874174D02*
X5467801Y-14893222D01*
X5467801Y-14893222D02*
X5467801Y-14997984D01*
X5467801Y-14893222D02*
X5477325Y-14874174D01*
X5477325Y-14874174D02*
X5496372Y-14864650D01*
X5496372Y-14864650D02*
X5524944Y-14864650D01*
X5524944Y-14864650D02*
X5543991Y-14874174D01*
X5543991Y-14874174D02*
X5553515Y-14893222D01*
X5553515Y-14893222D02*
X5553515Y-14997984D01*
X5943991Y-14788460D02*
X5772563Y-15045603D01*
X6201134Y-14797984D02*
X6220182Y-14797984D01*
X6220182Y-14797984D02*
X6239229Y-14807508D01*
X6239229Y-14807508D02*
X6248753Y-14817031D01*
X6248753Y-14817031D02*
X6258277Y-14836079D01*
X6258277Y-14836079D02*
X6267801Y-14874174D01*
X6267801Y-14874174D02*
X6267801Y-14921793D01*
X6267801Y-14921793D02*
X6258277Y-14959888D01*
X6258277Y-14959888D02*
X6248753Y-14978936D01*
X6248753Y-14978936D02*
X6239229Y-14988460D01*
X6239229Y-14988460D02*
X6220182Y-14997984D01*
X6220182Y-14997984D02*
X6201134Y-14997984D01*
X6201134Y-14997984D02*
X6182086Y-14988460D01*
X6182086Y-14988460D02*
X6172563Y-14978936D01*
X6172563Y-14978936D02*
X6163039Y-14959888D01*
X6163039Y-14959888D02*
X6153515Y-14921793D01*
X6153515Y-14921793D02*
X6153515Y-14874174D01*
X6153515Y-14874174D02*
X6163039Y-14836079D01*
X6163039Y-14836079D02*
X6172563Y-14817031D01*
X6172563Y-14817031D02*
X6182086Y-14807508D01*
X6182086Y-14807508D02*
X6201134Y-14797984D01*
X6353515Y-14978936D02*
X6363039Y-14988460D01*
X6363039Y-14988460D02*
X6353515Y-14997984D01*
X6353515Y-14997984D02*
X6343991Y-14988460D01*
X6343991Y-14988460D02*
X6353515Y-14978936D01*
X6353515Y-14978936D02*
X6353515Y-14997984D01*
X6486848Y-14797984D02*
X6505896Y-14797984D01*
X6505896Y-14797984D02*
X6524944Y-14807508D01*
X6524944Y-14807508D02*
X6534467Y-14817031D01*
X6534467Y-14817031D02*
X6543991Y-14836079D01*
X6543991Y-14836079D02*
X6553515Y-14874174D01*
X6553515Y-14874174D02*
X6553515Y-14921793D01*
X6553515Y-14921793D02*
X6543991Y-14959888D01*
X6543991Y-14959888D02*
X6534467Y-14978936D01*
X6534467Y-14978936D02*
X6524944Y-14988460D01*
X6524944Y-14988460D02*
X6505896Y-14997984D01*
X6505896Y-14997984D02*
X6486848Y-14997984D01*
X6486848Y-14997984D02*
X6467801Y-14988460D01*
X6467801Y-14988460D02*
X6458277Y-14978936D01*
X6458277Y-14978936D02*
X6448753Y-14959888D01*
X6448753Y-14959888D02*
X6439229Y-14921793D01*
X6439229Y-14921793D02*
X6439229Y-14874174D01*
X6439229Y-14874174D02*
X6448753Y-14836079D01*
X6448753Y-14836079D02*
X6458277Y-14817031D01*
X6458277Y-14817031D02*
X6467801Y-14807508D01*
X6467801Y-14807508D02*
X6486848Y-14797984D01*
X6629706Y-14817031D02*
X6639229Y-14807508D01*
X6639229Y-14807508D02*
X6658277Y-14797984D01*
X6658277Y-14797984D02*
X6705896Y-14797984D01*
X6705896Y-14797984D02*
X6724944Y-14807508D01*
X6724944Y-14807508D02*
X6734467Y-14817031D01*
X6734467Y-14817031D02*
X6743991Y-14836079D01*
X6743991Y-14836079D02*
X6743991Y-14855127D01*
X6743991Y-14855127D02*
X6734467Y-14883698D01*
X6734467Y-14883698D02*
X6620182Y-14997984D01*
X6620182Y-14997984D02*
X6743991Y-14997984D01*
X6810658Y-14797984D02*
X6943991Y-14797984D01*
X6943991Y-14797984D02*
X6858277Y-14997984D01*
X7105896Y-14797984D02*
X7067801Y-14797984D01*
X7067801Y-14797984D02*
X7048753Y-14807508D01*
X7048753Y-14807508D02*
X7039229Y-14817031D01*
X7039229Y-14817031D02*
X7020182Y-14845603D01*
X7020182Y-14845603D02*
X7010658Y-14883698D01*
X7010658Y-14883698D02*
X7010658Y-14959888D01*
X7010658Y-14959888D02*
X7020182Y-14978936D01*
X7020182Y-14978936D02*
X7029706Y-14988460D01*
X7029706Y-14988460D02*
X7048753Y-14997984D01*
X7048753Y-14997984D02*
X7086848Y-14997984D01*
X7086848Y-14997984D02*
X7105896Y-14988460D01*
X7105896Y-14988460D02*
X7115420Y-14978936D01*
X7115420Y-14978936D02*
X7124944Y-14959888D01*
X7124944Y-14959888D02*
X7124944Y-14912269D01*
X7124944Y-14912269D02*
X7115420Y-14893222D01*
X7115420Y-14893222D02*
X7105896Y-14883698D01*
X7105896Y-14883698D02*
X7086848Y-14874174D01*
X7086848Y-14874174D02*
X7048753Y-14874174D01*
X7048753Y-14874174D02*
X7029706Y-14883698D01*
X7029706Y-14883698D02*
X7020182Y-14893222D01*
X7020182Y-14893222D02*
X7010658Y-14912269D01*
X7201134Y-14797984D02*
X7201134Y-14836079D01*
X7277325Y-14797984D02*
X7277325Y-14836079D01*
X7572563Y-15074174D02*
X7563039Y-15064650D01*
X7563039Y-15064650D02*
X7543991Y-15036079D01*
X7543991Y-15036079D02*
X7534468Y-15017031D01*
X7534468Y-15017031D02*
X7524944Y-14988460D01*
X7524944Y-14988460D02*
X7515420Y-14940841D01*
X7515420Y-14940841D02*
X7515420Y-14902746D01*
X7515420Y-14902746D02*
X7524944Y-14855127D01*
X7524944Y-14855127D02*
X7534468Y-14826555D01*
X7534468Y-14826555D02*
X7543991Y-14807508D01*
X7543991Y-14807508D02*
X7563039Y-14778936D01*
X7563039Y-14778936D02*
X7572563Y-14769412D01*
X7734468Y-14797984D02*
X7696372Y-14797984D01*
X7696372Y-14797984D02*
X7677325Y-14807508D01*
X7677325Y-14807508D02*
X7667801Y-14817031D01*
X7667801Y-14817031D02*
X7648753Y-14845603D01*
X7648753Y-14845603D02*
X7639229Y-14883698D01*
X7639229Y-14883698D02*
X7639229Y-14959888D01*
X7639229Y-14959888D02*
X7648753Y-14978936D01*
X7648753Y-14978936D02*
X7658277Y-14988460D01*
X7658277Y-14988460D02*
X7677325Y-14997984D01*
X7677325Y-14997984D02*
X7715420Y-14997984D01*
X7715420Y-14997984D02*
X7734468Y-14988460D01*
X7734468Y-14988460D02*
X7743991Y-14978936D01*
X7743991Y-14978936D02*
X7753515Y-14959888D01*
X7753515Y-14959888D02*
X7753515Y-14912269D01*
X7753515Y-14912269D02*
X7743991Y-14893222D01*
X7743991Y-14893222D02*
X7734468Y-14883698D01*
X7734468Y-14883698D02*
X7715420Y-14874174D01*
X7715420Y-14874174D02*
X7677325Y-14874174D01*
X7677325Y-14874174D02*
X7658277Y-14883698D01*
X7658277Y-14883698D02*
X7648753Y-14893222D01*
X7648753Y-14893222D02*
X7639229Y-14912269D01*
X7991610Y-14997984D02*
X7991610Y-14797984D01*
X8077325Y-14997984D02*
X8077325Y-14893222D01*
X8077325Y-14893222D02*
X8067801Y-14874174D01*
X8067801Y-14874174D02*
X8048753Y-14864650D01*
X8048753Y-14864650D02*
X8020182Y-14864650D01*
X8020182Y-14864650D02*
X8001134Y-14874174D01*
X8001134Y-14874174D02*
X7991610Y-14883698D01*
X8201134Y-14997984D02*
X8182087Y-14988460D01*
X8182087Y-14988460D02*
X8172563Y-14978936D01*
X8172563Y-14978936D02*
X8163039Y-14959888D01*
X8163039Y-14959888D02*
X8163039Y-14902746D01*
X8163039Y-14902746D02*
X8172563Y-14883698D01*
X8172563Y-14883698D02*
X8182087Y-14874174D01*
X8182087Y-14874174D02*
X8201134Y-14864650D01*
X8201134Y-14864650D02*
X8229706Y-14864650D01*
X8229706Y-14864650D02*
X8248753Y-14874174D01*
X8248753Y-14874174D02*
X8258277Y-14883698D01*
X8258277Y-14883698D02*
X8267801Y-14902746D01*
X8267801Y-14902746D02*
X8267801Y-14959888D01*
X8267801Y-14959888D02*
X8258277Y-14978936D01*
X8258277Y-14978936D02*
X8248753Y-14988460D01*
X8248753Y-14988460D02*
X8229706Y-14997984D01*
X8229706Y-14997984D02*
X8201134Y-14997984D01*
X8382087Y-14997984D02*
X8363039Y-14988460D01*
X8363039Y-14988460D02*
X8353515Y-14969412D01*
X8353515Y-14969412D02*
X8353515Y-14797984D01*
X8534468Y-14988460D02*
X8515420Y-14997984D01*
X8515420Y-14997984D02*
X8477325Y-14997984D01*
X8477325Y-14997984D02*
X8458277Y-14988460D01*
X8458277Y-14988460D02*
X8448753Y-14969412D01*
X8448753Y-14969412D02*
X8448753Y-14893222D01*
X8448753Y-14893222D02*
X8458277Y-14874174D01*
X8458277Y-14874174D02*
X8477325Y-14864650D01*
X8477325Y-14864650D02*
X8515420Y-14864650D01*
X8515420Y-14864650D02*
X8534468Y-14874174D01*
X8534468Y-14874174D02*
X8543992Y-14893222D01*
X8543992Y-14893222D02*
X8543992Y-14912269D01*
X8543992Y-14912269D02*
X8448753Y-14931317D01*
X8620182Y-14988460D02*
X8639230Y-14997984D01*
X8639230Y-14997984D02*
X8677325Y-14997984D01*
X8677325Y-14997984D02*
X8696373Y-14988460D01*
X8696373Y-14988460D02*
X8705896Y-14969412D01*
X8705896Y-14969412D02*
X8705896Y-14959888D01*
X8705896Y-14959888D02*
X8696373Y-14940841D01*
X8696373Y-14940841D02*
X8677325Y-14931317D01*
X8677325Y-14931317D02*
X8648753Y-14931317D01*
X8648753Y-14931317D02*
X8629706Y-14921793D01*
X8629706Y-14921793D02*
X8620182Y-14902746D01*
X8620182Y-14902746D02*
X8620182Y-14893222D01*
X8620182Y-14893222D02*
X8629706Y-14874174D01*
X8629706Y-14874174D02*
X8648753Y-14864650D01*
X8648753Y-14864650D02*
X8677325Y-14864650D01*
X8677325Y-14864650D02*
X8696373Y-14874174D01*
X8772563Y-15074174D02*
X8782087Y-15064650D01*
X8782087Y-15064650D02*
X8801134Y-15036079D01*
X8801134Y-15036079D02*
X8810658Y-15017031D01*
X8810658Y-15017031D02*
X8820182Y-14988460D01*
X8820182Y-14988460D02*
X8829706Y-14940841D01*
X8829706Y-14940841D02*
X8829706Y-14902746D01*
X8829706Y-14902746D02*
X8820182Y-14855127D01*
X8820182Y-14855127D02*
X8810658Y-14826555D01*
X8810658Y-14826555D02*
X8801134Y-14807508D01*
X8801134Y-14807508D02*
X8782087Y-14778936D01*
X8782087Y-14778936D02*
X8772563Y-14769412D01*
D12*
X3947500Y-15120500D02*
X3947500Y-15220500D01*
X3897500Y-15170500D02*
X3997500Y-15170500D01*
D11*
X4363039Y-15261984D02*
X4248753Y-15261984D01*
X4305896Y-15261984D02*
X4305896Y-15061984D01*
X4305896Y-15061984D02*
X4286848Y-15090555D01*
X4286848Y-15090555D02*
X4267801Y-15109603D01*
X4267801Y-15109603D02*
X4248753Y-15119127D01*
X4448753Y-15242936D02*
X4458277Y-15252460D01*
X4458277Y-15252460D02*
X4448753Y-15261984D01*
X4448753Y-15261984D02*
X4439229Y-15252460D01*
X4439229Y-15252460D02*
X4448753Y-15242936D01*
X4448753Y-15242936D02*
X4448753Y-15261984D01*
X4582086Y-15061984D02*
X4601134Y-15061984D01*
X4601134Y-15061984D02*
X4620182Y-15071508D01*
X4620182Y-15071508D02*
X4629705Y-15081031D01*
X4629705Y-15081031D02*
X4639229Y-15100079D01*
X4639229Y-15100079D02*
X4648753Y-15138174D01*
X4648753Y-15138174D02*
X4648753Y-15185793D01*
X4648753Y-15185793D02*
X4639229Y-15223888D01*
X4639229Y-15223888D02*
X4629705Y-15242936D01*
X4629705Y-15242936D02*
X4620182Y-15252460D01*
X4620182Y-15252460D02*
X4601134Y-15261984D01*
X4601134Y-15261984D02*
X4582086Y-15261984D01*
X4582086Y-15261984D02*
X4563039Y-15252460D01*
X4563039Y-15252460D02*
X4553515Y-15242936D01*
X4553515Y-15242936D02*
X4543991Y-15223888D01*
X4543991Y-15223888D02*
X4534467Y-15185793D01*
X4534467Y-15185793D02*
X4534467Y-15138174D01*
X4534467Y-15138174D02*
X4543991Y-15100079D01*
X4543991Y-15100079D02*
X4553515Y-15081031D01*
X4553515Y-15081031D02*
X4563039Y-15071508D01*
X4563039Y-15071508D02*
X4582086Y-15061984D01*
X4772563Y-15061984D02*
X4791610Y-15061984D01*
X4791610Y-15061984D02*
X4810658Y-15071508D01*
X4810658Y-15071508D02*
X4820182Y-15081031D01*
X4820182Y-15081031D02*
X4829705Y-15100079D01*
X4829705Y-15100079D02*
X4839229Y-15138174D01*
X4839229Y-15138174D02*
X4839229Y-15185793D01*
X4839229Y-15185793D02*
X4829705Y-15223888D01*
X4829705Y-15223888D02*
X4820182Y-15242936D01*
X4820182Y-15242936D02*
X4810658Y-15252460D01*
X4810658Y-15252460D02*
X4791610Y-15261984D01*
X4791610Y-15261984D02*
X4772563Y-15261984D01*
X4772563Y-15261984D02*
X4753515Y-15252460D01*
X4753515Y-15252460D02*
X4743991Y-15242936D01*
X4743991Y-15242936D02*
X4734467Y-15223888D01*
X4734467Y-15223888D02*
X4724944Y-15185793D01*
X4724944Y-15185793D02*
X4724944Y-15138174D01*
X4724944Y-15138174D02*
X4734467Y-15100079D01*
X4734467Y-15100079D02*
X4743991Y-15081031D01*
X4743991Y-15081031D02*
X4753515Y-15071508D01*
X4753515Y-15071508D02*
X4772563Y-15061984D01*
X4963039Y-15061984D02*
X4982086Y-15061984D01*
X4982086Y-15061984D02*
X5001134Y-15071508D01*
X5001134Y-15071508D02*
X5010658Y-15081031D01*
X5010658Y-15081031D02*
X5020182Y-15100079D01*
X5020182Y-15100079D02*
X5029705Y-15138174D01*
X5029705Y-15138174D02*
X5029705Y-15185793D01*
X5029705Y-15185793D02*
X5020182Y-15223888D01*
X5020182Y-15223888D02*
X5010658Y-15242936D01*
X5010658Y-15242936D02*
X5001134Y-15252460D01*
X5001134Y-15252460D02*
X4982086Y-15261984D01*
X4982086Y-15261984D02*
X4963039Y-15261984D01*
X4963039Y-15261984D02*
X4943991Y-15252460D01*
X4943991Y-15252460D02*
X4934467Y-15242936D01*
X4934467Y-15242936D02*
X4924944Y-15223888D01*
X4924944Y-15223888D02*
X4915420Y-15185793D01*
X4915420Y-15185793D02*
X4915420Y-15138174D01*
X4915420Y-15138174D02*
X4924944Y-15100079D01*
X4924944Y-15100079D02*
X4934467Y-15081031D01*
X4934467Y-15081031D02*
X4943991Y-15071508D01*
X4943991Y-15071508D02*
X4963039Y-15061984D01*
X5115420Y-15261984D02*
X5115420Y-15128650D01*
X5115420Y-15147698D02*
X5124944Y-15138174D01*
X5124944Y-15138174D02*
X5143991Y-15128650D01*
X5143991Y-15128650D02*
X5172563Y-15128650D01*
X5172563Y-15128650D02*
X5191610Y-15138174D01*
X5191610Y-15138174D02*
X5201134Y-15157222D01*
X5201134Y-15157222D02*
X5201134Y-15261984D01*
X5201134Y-15157222D02*
X5210658Y-15138174D01*
X5210658Y-15138174D02*
X5229705Y-15128650D01*
X5229705Y-15128650D02*
X5258277Y-15128650D01*
X5258277Y-15128650D02*
X5277325Y-15138174D01*
X5277325Y-15138174D02*
X5286848Y-15157222D01*
X5286848Y-15157222D02*
X5286848Y-15261984D01*
X5382086Y-15261984D02*
X5382086Y-15128650D01*
X5382086Y-15147698D02*
X5391610Y-15138174D01*
X5391610Y-15138174D02*
X5410658Y-15128650D01*
X5410658Y-15128650D02*
X5439229Y-15128650D01*
X5439229Y-15128650D02*
X5458277Y-15138174D01*
X5458277Y-15138174D02*
X5467801Y-15157222D01*
X5467801Y-15157222D02*
X5467801Y-15261984D01*
X5467801Y-15157222D02*
X5477325Y-15138174D01*
X5477325Y-15138174D02*
X5496372Y-15128650D01*
X5496372Y-15128650D02*
X5524944Y-15128650D01*
X5524944Y-15128650D02*
X5543991Y-15138174D01*
X5543991Y-15138174D02*
X5553515Y-15157222D01*
X5553515Y-15157222D02*
X5553515Y-15261984D01*
X5943991Y-15052460D02*
X5772563Y-15309603D01*
X6201134Y-15061984D02*
X6220182Y-15061984D01*
X6220182Y-15061984D02*
X6239229Y-15071508D01*
X6239229Y-15071508D02*
X6248753Y-15081031D01*
X6248753Y-15081031D02*
X6258277Y-15100079D01*
X6258277Y-15100079D02*
X6267801Y-15138174D01*
X6267801Y-15138174D02*
X6267801Y-15185793D01*
X6267801Y-15185793D02*
X6258277Y-15223888D01*
X6258277Y-15223888D02*
X6248753Y-15242936D01*
X6248753Y-15242936D02*
X6239229Y-15252460D01*
X6239229Y-15252460D02*
X6220182Y-15261984D01*
X6220182Y-15261984D02*
X6201134Y-15261984D01*
X6201134Y-15261984D02*
X6182086Y-15252460D01*
X6182086Y-15252460D02*
X6172563Y-15242936D01*
X6172563Y-15242936D02*
X6163039Y-15223888D01*
X6163039Y-15223888D02*
X6153515Y-15185793D01*
X6153515Y-15185793D02*
X6153515Y-15138174D01*
X6153515Y-15138174D02*
X6163039Y-15100079D01*
X6163039Y-15100079D02*
X6172563Y-15081031D01*
X6172563Y-15081031D02*
X6182086Y-15071508D01*
X6182086Y-15071508D02*
X6201134Y-15061984D01*
X6353515Y-15242936D02*
X6363039Y-15252460D01*
X6363039Y-15252460D02*
X6353515Y-15261984D01*
X6353515Y-15261984D02*
X6343991Y-15252460D01*
X6343991Y-15252460D02*
X6353515Y-15242936D01*
X6353515Y-15242936D02*
X6353515Y-15261984D01*
X6486848Y-15061984D02*
X6505896Y-15061984D01*
X6505896Y-15061984D02*
X6524944Y-15071508D01*
X6524944Y-15071508D02*
X6534467Y-15081031D01*
X6534467Y-15081031D02*
X6543991Y-15100079D01*
X6543991Y-15100079D02*
X6553515Y-15138174D01*
X6553515Y-15138174D02*
X6553515Y-15185793D01*
X6553515Y-15185793D02*
X6543991Y-15223888D01*
X6543991Y-15223888D02*
X6534467Y-15242936D01*
X6534467Y-15242936D02*
X6524944Y-15252460D01*
X6524944Y-15252460D02*
X6505896Y-15261984D01*
X6505896Y-15261984D02*
X6486848Y-15261984D01*
X6486848Y-15261984D02*
X6467801Y-15252460D01*
X6467801Y-15252460D02*
X6458277Y-15242936D01*
X6458277Y-15242936D02*
X6448753Y-15223888D01*
X6448753Y-15223888D02*
X6439229Y-15185793D01*
X6439229Y-15185793D02*
X6439229Y-15138174D01*
X6439229Y-15138174D02*
X6448753Y-15100079D01*
X6448753Y-15100079D02*
X6458277Y-15081031D01*
X6458277Y-15081031D02*
X6467801Y-15071508D01*
X6467801Y-15071508D02*
X6486848Y-15061984D01*
X6620182Y-15061984D02*
X6743991Y-15061984D01*
X6743991Y-15061984D02*
X6677325Y-15138174D01*
X6677325Y-15138174D02*
X6705896Y-15138174D01*
X6705896Y-15138174D02*
X6724944Y-15147698D01*
X6724944Y-15147698D02*
X6734467Y-15157222D01*
X6734467Y-15157222D02*
X6743991Y-15176269D01*
X6743991Y-15176269D02*
X6743991Y-15223888D01*
X6743991Y-15223888D02*
X6734467Y-15242936D01*
X6734467Y-15242936D02*
X6724944Y-15252460D01*
X6724944Y-15252460D02*
X6705896Y-15261984D01*
X6705896Y-15261984D02*
X6648753Y-15261984D01*
X6648753Y-15261984D02*
X6629706Y-15252460D01*
X6629706Y-15252460D02*
X6620182Y-15242936D01*
X6839229Y-15261984D02*
X6877325Y-15261984D01*
X6877325Y-15261984D02*
X6896372Y-15252460D01*
X6896372Y-15252460D02*
X6905896Y-15242936D01*
X6905896Y-15242936D02*
X6924944Y-15214365D01*
X6924944Y-15214365D02*
X6934467Y-15176269D01*
X6934467Y-15176269D02*
X6934467Y-15100079D01*
X6934467Y-15100079D02*
X6924944Y-15081031D01*
X6924944Y-15081031D02*
X6915420Y-15071508D01*
X6915420Y-15071508D02*
X6896372Y-15061984D01*
X6896372Y-15061984D02*
X6858277Y-15061984D01*
X6858277Y-15061984D02*
X6839229Y-15071508D01*
X6839229Y-15071508D02*
X6829706Y-15081031D01*
X6829706Y-15081031D02*
X6820182Y-15100079D01*
X6820182Y-15100079D02*
X6820182Y-15147698D01*
X6820182Y-15147698D02*
X6829706Y-15166746D01*
X6829706Y-15166746D02*
X6839229Y-15176269D01*
X6839229Y-15176269D02*
X6858277Y-15185793D01*
X6858277Y-15185793D02*
X6896372Y-15185793D01*
X6896372Y-15185793D02*
X6915420Y-15176269D01*
X6915420Y-15176269D02*
X6924944Y-15166746D01*
X6924944Y-15166746D02*
X6934467Y-15147698D01*
X7105896Y-15128650D02*
X7105896Y-15261984D01*
X7058277Y-15052460D02*
X7010658Y-15195317D01*
X7010658Y-15195317D02*
X7134467Y-15195317D01*
X7201134Y-15061984D02*
X7201134Y-15100079D01*
X7277325Y-15061984D02*
X7277325Y-15100079D01*
X7572563Y-15338174D02*
X7563039Y-15328650D01*
X7563039Y-15328650D02*
X7543991Y-15300079D01*
X7543991Y-15300079D02*
X7534468Y-15281031D01*
X7534468Y-15281031D02*
X7524944Y-15252460D01*
X7524944Y-15252460D02*
X7515420Y-15204841D01*
X7515420Y-15204841D02*
X7515420Y-15166746D01*
X7515420Y-15166746D02*
X7524944Y-15119127D01*
X7524944Y-15119127D02*
X7534468Y-15090555D01*
X7534468Y-15090555D02*
X7543991Y-15071508D01*
X7543991Y-15071508D02*
X7563039Y-15042936D01*
X7563039Y-15042936D02*
X7572563Y-15033412D01*
X7734468Y-15128650D02*
X7734468Y-15261984D01*
X7686848Y-15052460D02*
X7639229Y-15195317D01*
X7639229Y-15195317D02*
X7763039Y-15195317D01*
X7934468Y-15061984D02*
X7839229Y-15061984D01*
X7839229Y-15061984D02*
X7829706Y-15157222D01*
X7829706Y-15157222D02*
X7839229Y-15147698D01*
X7839229Y-15147698D02*
X7858277Y-15138174D01*
X7858277Y-15138174D02*
X7905896Y-15138174D01*
X7905896Y-15138174D02*
X7924944Y-15147698D01*
X7924944Y-15147698D02*
X7934468Y-15157222D01*
X7934468Y-15157222D02*
X7943991Y-15176269D01*
X7943991Y-15176269D02*
X7943991Y-15223888D01*
X7943991Y-15223888D02*
X7934468Y-15242936D01*
X7934468Y-15242936D02*
X7924944Y-15252460D01*
X7924944Y-15252460D02*
X7905896Y-15261984D01*
X7905896Y-15261984D02*
X7858277Y-15261984D01*
X7858277Y-15261984D02*
X7839229Y-15252460D01*
X7839229Y-15252460D02*
X7829706Y-15242936D01*
X8182087Y-15261984D02*
X8182087Y-15061984D01*
X8267801Y-15261984D02*
X8267801Y-15157222D01*
X8267801Y-15157222D02*
X8258277Y-15138174D01*
X8258277Y-15138174D02*
X8239230Y-15128650D01*
X8239230Y-15128650D02*
X8210658Y-15128650D01*
X8210658Y-15128650D02*
X8191610Y-15138174D01*
X8191610Y-15138174D02*
X8182087Y-15147698D01*
X8391611Y-15261984D02*
X8372563Y-15252460D01*
X8372563Y-15252460D02*
X8363039Y-15242936D01*
X8363039Y-15242936D02*
X8353515Y-15223888D01*
X8353515Y-15223888D02*
X8353515Y-15166746D01*
X8353515Y-15166746D02*
X8363039Y-15147698D01*
X8363039Y-15147698D02*
X8372563Y-15138174D01*
X8372563Y-15138174D02*
X8391611Y-15128650D01*
X8391611Y-15128650D02*
X8420182Y-15128650D01*
X8420182Y-15128650D02*
X8439230Y-15138174D01*
X8439230Y-15138174D02*
X8448753Y-15147698D01*
X8448753Y-15147698D02*
X8458277Y-15166746D01*
X8458277Y-15166746D02*
X8458277Y-15223888D01*
X8458277Y-15223888D02*
X8448753Y-15242936D01*
X8448753Y-15242936D02*
X8439230Y-15252460D01*
X8439230Y-15252460D02*
X8420182Y-15261984D01*
X8420182Y-15261984D02*
X8391611Y-15261984D01*
X8572563Y-15261984D02*
X8553515Y-15252460D01*
X8553515Y-15252460D02*
X8543992Y-15233412D01*
X8543992Y-15233412D02*
X8543992Y-15061984D01*
X8724944Y-15252460D02*
X8705896Y-15261984D01*
X8705896Y-15261984D02*
X8667801Y-15261984D01*
X8667801Y-15261984D02*
X8648753Y-15252460D01*
X8648753Y-15252460D02*
X8639230Y-15233412D01*
X8639230Y-15233412D02*
X8639230Y-15157222D01*
X8639230Y-15157222D02*
X8648753Y-15138174D01*
X8648753Y-15138174D02*
X8667801Y-15128650D01*
X8667801Y-15128650D02*
X8705896Y-15128650D01*
X8705896Y-15128650D02*
X8724944Y-15138174D01*
X8724944Y-15138174D02*
X8734468Y-15157222D01*
X8734468Y-15157222D02*
X8734468Y-15176269D01*
X8734468Y-15176269D02*
X8639230Y-15195317D01*
X8810658Y-15252460D02*
X8829706Y-15261984D01*
X8829706Y-15261984D02*
X8867801Y-15261984D01*
X8867801Y-15261984D02*
X8886849Y-15252460D01*
X8886849Y-15252460D02*
X8896373Y-15233412D01*
X8896373Y-15233412D02*
X8896373Y-15223888D01*
X8896373Y-15223888D02*
X8886849Y-15204841D01*
X8886849Y-15204841D02*
X8867801Y-15195317D01*
X8867801Y-15195317D02*
X8839230Y-15195317D01*
X8839230Y-15195317D02*
X8820182Y-15185793D01*
X8820182Y-15185793D02*
X8810658Y-15166746D01*
X8810658Y-15166746D02*
X8810658Y-15157222D01*
X8810658Y-15157222D02*
X8820182Y-15138174D01*
X8820182Y-15138174D02*
X8839230Y-15128650D01*
X8839230Y-15128650D02*
X8867801Y-15128650D01*
X8867801Y-15128650D02*
X8886849Y-15138174D01*
X8963039Y-15338174D02*
X8972563Y-15328650D01*
X8972563Y-15328650D02*
X8991611Y-15300079D01*
X8991611Y-15300079D02*
X9001134Y-15281031D01*
X9001134Y-15281031D02*
X9010658Y-15252460D01*
X9010658Y-15252460D02*
X9020182Y-15204841D01*
X9020182Y-15204841D02*
X9020182Y-15166746D01*
X9020182Y-15166746D02*
X9010658Y-15119127D01*
X9010658Y-15119127D02*
X9001134Y-15090555D01*
X9001134Y-15090555D02*
X8991611Y-15071508D01*
X8991611Y-15071508D02*
X8972563Y-15042936D01*
X8972563Y-15042936D02*
X8963039Y-15033412D01*
D13*
X3981391Y-15473391D02*
X3981391Y-15395609D01*
X3903609Y-15395609D01*
X3903609Y-15473391D01*
X3981391Y-15473391D01*
D11*
X4363039Y-15525984D02*
X4248753Y-15525984D01*
X4305896Y-15525984D02*
X4305896Y-15325984D01*
X4305896Y-15325984D02*
X4286848Y-15354555D01*
X4286848Y-15354555D02*
X4267801Y-15373603D01*
X4267801Y-15373603D02*
X4248753Y-15383127D01*
X4448753Y-15506936D02*
X4458277Y-15516460D01*
X4458277Y-15516460D02*
X4448753Y-15525984D01*
X4448753Y-15525984D02*
X4439229Y-15516460D01*
X4439229Y-15516460D02*
X4448753Y-15506936D01*
X4448753Y-15506936D02*
X4448753Y-15525984D01*
X4648753Y-15525984D02*
X4534467Y-15525984D01*
X4591610Y-15525984D02*
X4591610Y-15325984D01*
X4591610Y-15325984D02*
X4572563Y-15354555D01*
X4572563Y-15354555D02*
X4553515Y-15373603D01*
X4553515Y-15373603D02*
X4534467Y-15383127D01*
X4772563Y-15325984D02*
X4791610Y-15325984D01*
X4791610Y-15325984D02*
X4810658Y-15335508D01*
X4810658Y-15335508D02*
X4820182Y-15345031D01*
X4820182Y-15345031D02*
X4829705Y-15364079D01*
X4829705Y-15364079D02*
X4839229Y-15402174D01*
X4839229Y-15402174D02*
X4839229Y-15449793D01*
X4839229Y-15449793D02*
X4829705Y-15487888D01*
X4829705Y-15487888D02*
X4820182Y-15506936D01*
X4820182Y-15506936D02*
X4810658Y-15516460D01*
X4810658Y-15516460D02*
X4791610Y-15525984D01*
X4791610Y-15525984D02*
X4772563Y-15525984D01*
X4772563Y-15525984D02*
X4753515Y-15516460D01*
X4753515Y-15516460D02*
X4743991Y-15506936D01*
X4743991Y-15506936D02*
X4734467Y-15487888D01*
X4734467Y-15487888D02*
X4724944Y-15449793D01*
X4724944Y-15449793D02*
X4724944Y-15402174D01*
X4724944Y-15402174D02*
X4734467Y-15364079D01*
X4734467Y-15364079D02*
X4743991Y-15345031D01*
X4743991Y-15345031D02*
X4753515Y-15335508D01*
X4753515Y-15335508D02*
X4772563Y-15325984D01*
X4963039Y-15325984D02*
X4982086Y-15325984D01*
X4982086Y-15325984D02*
X5001134Y-15335508D01*
X5001134Y-15335508D02*
X5010658Y-15345031D01*
X5010658Y-15345031D02*
X5020182Y-15364079D01*
X5020182Y-15364079D02*
X5029705Y-15402174D01*
X5029705Y-15402174D02*
X5029705Y-15449793D01*
X5029705Y-15449793D02*
X5020182Y-15487888D01*
X5020182Y-15487888D02*
X5010658Y-15506936D01*
X5010658Y-15506936D02*
X5001134Y-15516460D01*
X5001134Y-15516460D02*
X4982086Y-15525984D01*
X4982086Y-15525984D02*
X4963039Y-15525984D01*
X4963039Y-15525984D02*
X4943991Y-15516460D01*
X4943991Y-15516460D02*
X4934467Y-15506936D01*
X4934467Y-15506936D02*
X4924944Y-15487888D01*
X4924944Y-15487888D02*
X4915420Y-15449793D01*
X4915420Y-15449793D02*
X4915420Y-15402174D01*
X4915420Y-15402174D02*
X4924944Y-15364079D01*
X4924944Y-15364079D02*
X4934467Y-15345031D01*
X4934467Y-15345031D02*
X4943991Y-15335508D01*
X4943991Y-15335508D02*
X4963039Y-15325984D01*
X5115420Y-15525984D02*
X5115420Y-15392650D01*
X5115420Y-15411698D02*
X5124944Y-15402174D01*
X5124944Y-15402174D02*
X5143991Y-15392650D01*
X5143991Y-15392650D02*
X5172563Y-15392650D01*
X5172563Y-15392650D02*
X5191610Y-15402174D01*
X5191610Y-15402174D02*
X5201134Y-15421222D01*
X5201134Y-15421222D02*
X5201134Y-15525984D01*
X5201134Y-15421222D02*
X5210658Y-15402174D01*
X5210658Y-15402174D02*
X5229705Y-15392650D01*
X5229705Y-15392650D02*
X5258277Y-15392650D01*
X5258277Y-15392650D02*
X5277325Y-15402174D01*
X5277325Y-15402174D02*
X5286848Y-15421222D01*
X5286848Y-15421222D02*
X5286848Y-15525984D01*
X5382086Y-15525984D02*
X5382086Y-15392650D01*
X5382086Y-15411698D02*
X5391610Y-15402174D01*
X5391610Y-15402174D02*
X5410658Y-15392650D01*
X5410658Y-15392650D02*
X5439229Y-15392650D01*
X5439229Y-15392650D02*
X5458277Y-15402174D01*
X5458277Y-15402174D02*
X5467801Y-15421222D01*
X5467801Y-15421222D02*
X5467801Y-15525984D01*
X5467801Y-15421222D02*
X5477325Y-15402174D01*
X5477325Y-15402174D02*
X5496372Y-15392650D01*
X5496372Y-15392650D02*
X5524944Y-15392650D01*
X5524944Y-15392650D02*
X5543991Y-15402174D01*
X5543991Y-15402174D02*
X5553515Y-15421222D01*
X5553515Y-15421222D02*
X5553515Y-15525984D01*
X5943991Y-15316460D02*
X5772563Y-15573603D01*
X6201134Y-15325984D02*
X6220182Y-15325984D01*
X6220182Y-15325984D02*
X6239229Y-15335508D01*
X6239229Y-15335508D02*
X6248753Y-15345031D01*
X6248753Y-15345031D02*
X6258277Y-15364079D01*
X6258277Y-15364079D02*
X6267801Y-15402174D01*
X6267801Y-15402174D02*
X6267801Y-15449793D01*
X6267801Y-15449793D02*
X6258277Y-15487888D01*
X6258277Y-15487888D02*
X6248753Y-15506936D01*
X6248753Y-15506936D02*
X6239229Y-15516460D01*
X6239229Y-15516460D02*
X6220182Y-15525984D01*
X6220182Y-15525984D02*
X6201134Y-15525984D01*
X6201134Y-15525984D02*
X6182086Y-15516460D01*
X6182086Y-15516460D02*
X6172563Y-15506936D01*
X6172563Y-15506936D02*
X6163039Y-15487888D01*
X6163039Y-15487888D02*
X6153515Y-15449793D01*
X6153515Y-15449793D02*
X6153515Y-15402174D01*
X6153515Y-15402174D02*
X6163039Y-15364079D01*
X6163039Y-15364079D02*
X6172563Y-15345031D01*
X6172563Y-15345031D02*
X6182086Y-15335508D01*
X6182086Y-15335508D02*
X6201134Y-15325984D01*
X6353515Y-15506936D02*
X6363039Y-15516460D01*
X6363039Y-15516460D02*
X6353515Y-15525984D01*
X6353515Y-15525984D02*
X6343991Y-15516460D01*
X6343991Y-15516460D02*
X6353515Y-15506936D01*
X6353515Y-15506936D02*
X6353515Y-15525984D01*
X6486848Y-15325984D02*
X6505896Y-15325984D01*
X6505896Y-15325984D02*
X6524944Y-15335508D01*
X6524944Y-15335508D02*
X6534467Y-15345031D01*
X6534467Y-15345031D02*
X6543991Y-15364079D01*
X6543991Y-15364079D02*
X6553515Y-15402174D01*
X6553515Y-15402174D02*
X6553515Y-15449793D01*
X6553515Y-15449793D02*
X6543991Y-15487888D01*
X6543991Y-15487888D02*
X6534467Y-15506936D01*
X6534467Y-15506936D02*
X6524944Y-15516460D01*
X6524944Y-15516460D02*
X6505896Y-15525984D01*
X6505896Y-15525984D02*
X6486848Y-15525984D01*
X6486848Y-15525984D02*
X6467801Y-15516460D01*
X6467801Y-15516460D02*
X6458277Y-15506936D01*
X6458277Y-15506936D02*
X6448753Y-15487888D01*
X6448753Y-15487888D02*
X6439229Y-15449793D01*
X6439229Y-15449793D02*
X6439229Y-15402174D01*
X6439229Y-15402174D02*
X6448753Y-15364079D01*
X6448753Y-15364079D02*
X6458277Y-15345031D01*
X6458277Y-15345031D02*
X6467801Y-15335508D01*
X6467801Y-15335508D02*
X6486848Y-15325984D01*
X6724944Y-15392650D02*
X6724944Y-15525984D01*
X6677325Y-15316460D02*
X6629706Y-15459317D01*
X6629706Y-15459317D02*
X6753515Y-15459317D01*
X6810658Y-15325984D02*
X6934467Y-15325984D01*
X6934467Y-15325984D02*
X6867801Y-15402174D01*
X6867801Y-15402174D02*
X6896372Y-15402174D01*
X6896372Y-15402174D02*
X6915420Y-15411698D01*
X6915420Y-15411698D02*
X6924944Y-15421222D01*
X6924944Y-15421222D02*
X6934467Y-15440269D01*
X6934467Y-15440269D02*
X6934467Y-15487888D01*
X6934467Y-15487888D02*
X6924944Y-15506936D01*
X6924944Y-15506936D02*
X6915420Y-15516460D01*
X6915420Y-15516460D02*
X6896372Y-15525984D01*
X6896372Y-15525984D02*
X6839229Y-15525984D01*
X6839229Y-15525984D02*
X6820182Y-15516460D01*
X6820182Y-15516460D02*
X6810658Y-15506936D01*
X7001134Y-15325984D02*
X7124944Y-15325984D01*
X7124944Y-15325984D02*
X7058277Y-15402174D01*
X7058277Y-15402174D02*
X7086848Y-15402174D01*
X7086848Y-15402174D02*
X7105896Y-15411698D01*
X7105896Y-15411698D02*
X7115420Y-15421222D01*
X7115420Y-15421222D02*
X7124944Y-15440269D01*
X7124944Y-15440269D02*
X7124944Y-15487888D01*
X7124944Y-15487888D02*
X7115420Y-15506936D01*
X7115420Y-15506936D02*
X7105896Y-15516460D01*
X7105896Y-15516460D02*
X7086848Y-15525984D01*
X7086848Y-15525984D02*
X7029706Y-15525984D01*
X7029706Y-15525984D02*
X7010658Y-15516460D01*
X7010658Y-15516460D02*
X7001134Y-15506936D01*
X7201134Y-15325984D02*
X7201134Y-15364079D01*
X7277325Y-15325984D02*
X7277325Y-15364079D01*
X7572563Y-15602174D02*
X7563039Y-15592650D01*
X7563039Y-15592650D02*
X7543991Y-15564079D01*
X7543991Y-15564079D02*
X7534468Y-15545031D01*
X7534468Y-15545031D02*
X7524944Y-15516460D01*
X7524944Y-15516460D02*
X7515420Y-15468841D01*
X7515420Y-15468841D02*
X7515420Y-15430746D01*
X7515420Y-15430746D02*
X7524944Y-15383127D01*
X7524944Y-15383127D02*
X7534468Y-15354555D01*
X7534468Y-15354555D02*
X7543991Y-15335508D01*
X7543991Y-15335508D02*
X7563039Y-15306936D01*
X7563039Y-15306936D02*
X7572563Y-15297412D01*
X7677325Y-15411698D02*
X7658277Y-15402174D01*
X7658277Y-15402174D02*
X7648753Y-15392650D01*
X7648753Y-15392650D02*
X7639229Y-15373603D01*
X7639229Y-15373603D02*
X7639229Y-15364079D01*
X7639229Y-15364079D02*
X7648753Y-15345031D01*
X7648753Y-15345031D02*
X7658277Y-15335508D01*
X7658277Y-15335508D02*
X7677325Y-15325984D01*
X7677325Y-15325984D02*
X7715420Y-15325984D01*
X7715420Y-15325984D02*
X7734468Y-15335508D01*
X7734468Y-15335508D02*
X7743991Y-15345031D01*
X7743991Y-15345031D02*
X7753515Y-15364079D01*
X7753515Y-15364079D02*
X7753515Y-15373603D01*
X7753515Y-15373603D02*
X7743991Y-15392650D01*
X7743991Y-15392650D02*
X7734468Y-15402174D01*
X7734468Y-15402174D02*
X7715420Y-15411698D01*
X7715420Y-15411698D02*
X7677325Y-15411698D01*
X7677325Y-15411698D02*
X7658277Y-15421222D01*
X7658277Y-15421222D02*
X7648753Y-15430746D01*
X7648753Y-15430746D02*
X7639229Y-15449793D01*
X7639229Y-15449793D02*
X7639229Y-15487888D01*
X7639229Y-15487888D02*
X7648753Y-15506936D01*
X7648753Y-15506936D02*
X7658277Y-15516460D01*
X7658277Y-15516460D02*
X7677325Y-15525984D01*
X7677325Y-15525984D02*
X7715420Y-15525984D01*
X7715420Y-15525984D02*
X7734468Y-15516460D01*
X7734468Y-15516460D02*
X7743991Y-15506936D01*
X7743991Y-15506936D02*
X7753515Y-15487888D01*
X7753515Y-15487888D02*
X7753515Y-15449793D01*
X7753515Y-15449793D02*
X7743991Y-15430746D01*
X7743991Y-15430746D02*
X7734468Y-15421222D01*
X7734468Y-15421222D02*
X7715420Y-15411698D01*
X7991610Y-15525984D02*
X7991610Y-15325984D01*
X8077325Y-15525984D02*
X8077325Y-15421222D01*
X8077325Y-15421222D02*
X8067801Y-15402174D01*
X8067801Y-15402174D02*
X8048753Y-15392650D01*
X8048753Y-15392650D02*
X8020182Y-15392650D01*
X8020182Y-15392650D02*
X8001134Y-15402174D01*
X8001134Y-15402174D02*
X7991610Y-15411698D01*
X8201134Y-15525984D02*
X8182087Y-15516460D01*
X8182087Y-15516460D02*
X8172563Y-15506936D01*
X8172563Y-15506936D02*
X8163039Y-15487888D01*
X8163039Y-15487888D02*
X8163039Y-15430746D01*
X8163039Y-15430746D02*
X8172563Y-15411698D01*
X8172563Y-15411698D02*
X8182087Y-15402174D01*
X8182087Y-15402174D02*
X8201134Y-15392650D01*
X8201134Y-15392650D02*
X8229706Y-15392650D01*
X8229706Y-15392650D02*
X8248753Y-15402174D01*
X8248753Y-15402174D02*
X8258277Y-15411698D01*
X8258277Y-15411698D02*
X8267801Y-15430746D01*
X8267801Y-15430746D02*
X8267801Y-15487888D01*
X8267801Y-15487888D02*
X8258277Y-15506936D01*
X8258277Y-15506936D02*
X8248753Y-15516460D01*
X8248753Y-15516460D02*
X8229706Y-15525984D01*
X8229706Y-15525984D02*
X8201134Y-15525984D01*
X8382087Y-15525984D02*
X8363039Y-15516460D01*
X8363039Y-15516460D02*
X8353515Y-15497412D01*
X8353515Y-15497412D02*
X8353515Y-15325984D01*
X8534468Y-15516460D02*
X8515420Y-15525984D01*
X8515420Y-15525984D02*
X8477325Y-15525984D01*
X8477325Y-15525984D02*
X8458277Y-15516460D01*
X8458277Y-15516460D02*
X8448753Y-15497412D01*
X8448753Y-15497412D02*
X8448753Y-15421222D01*
X8448753Y-15421222D02*
X8458277Y-15402174D01*
X8458277Y-15402174D02*
X8477325Y-15392650D01*
X8477325Y-15392650D02*
X8515420Y-15392650D01*
X8515420Y-15392650D02*
X8534468Y-15402174D01*
X8534468Y-15402174D02*
X8543992Y-15421222D01*
X8543992Y-15421222D02*
X8543992Y-15440269D01*
X8543992Y-15440269D02*
X8448753Y-15459317D01*
X8620182Y-15516460D02*
X8639230Y-15525984D01*
X8639230Y-15525984D02*
X8677325Y-15525984D01*
X8677325Y-15525984D02*
X8696373Y-15516460D01*
X8696373Y-15516460D02*
X8705896Y-15497412D01*
X8705896Y-15497412D02*
X8705896Y-15487888D01*
X8705896Y-15487888D02*
X8696373Y-15468841D01*
X8696373Y-15468841D02*
X8677325Y-15459317D01*
X8677325Y-15459317D02*
X8648753Y-15459317D01*
X8648753Y-15459317D02*
X8629706Y-15449793D01*
X8629706Y-15449793D02*
X8620182Y-15430746D01*
X8620182Y-15430746D02*
X8620182Y-15421222D01*
X8620182Y-15421222D02*
X8629706Y-15402174D01*
X8629706Y-15402174D02*
X8648753Y-15392650D01*
X8648753Y-15392650D02*
X8677325Y-15392650D01*
X8677325Y-15392650D02*
X8696373Y-15402174D01*
X8772563Y-15602174D02*
X8782087Y-15592650D01*
X8782087Y-15592650D02*
X8801134Y-15564079D01*
X8801134Y-15564079D02*
X8810658Y-15545031D01*
X8810658Y-15545031D02*
X8820182Y-15516460D01*
X8820182Y-15516460D02*
X8829706Y-15468841D01*
X8829706Y-15468841D02*
X8829706Y-15430746D01*
X8829706Y-15430746D02*
X8820182Y-15383127D01*
X8820182Y-15383127D02*
X8810658Y-15354555D01*
X8810658Y-15354555D02*
X8801134Y-15335508D01*
X8801134Y-15335508D02*
X8782087Y-15306936D01*
X8782087Y-15306936D02*
X8772563Y-15297412D01*
D14*
X3907500Y-15788500D02*
X3997500Y-15698500D01*
X3907500Y-15608500D01*
X3817500Y-15698500D01*
X3907500Y-15788500D01*
D11*
X4363039Y-15789984D02*
X4248753Y-15789984D01*
X4305896Y-15789984D02*
X4305896Y-15589984D01*
X4305896Y-15589984D02*
X4286848Y-15618555D01*
X4286848Y-15618555D02*
X4267801Y-15637603D01*
X4267801Y-15637603D02*
X4248753Y-15647127D01*
X4448753Y-15770936D02*
X4458277Y-15780460D01*
X4458277Y-15780460D02*
X4448753Y-15789984D01*
X4448753Y-15789984D02*
X4439229Y-15780460D01*
X4439229Y-15780460D02*
X4448753Y-15770936D01*
X4448753Y-15770936D02*
X4448753Y-15789984D01*
X4572563Y-15675698D02*
X4553515Y-15666174D01*
X4553515Y-15666174D02*
X4543991Y-15656650D01*
X4543991Y-15656650D02*
X4534467Y-15637603D01*
X4534467Y-15637603D02*
X4534467Y-15628079D01*
X4534467Y-15628079D02*
X4543991Y-15609031D01*
X4543991Y-15609031D02*
X4553515Y-15599508D01*
X4553515Y-15599508D02*
X4572563Y-15589984D01*
X4572563Y-15589984D02*
X4610658Y-15589984D01*
X4610658Y-15589984D02*
X4629705Y-15599508D01*
X4629705Y-15599508D02*
X4639229Y-15609031D01*
X4639229Y-15609031D02*
X4648753Y-15628079D01*
X4648753Y-15628079D02*
X4648753Y-15637603D01*
X4648753Y-15637603D02*
X4639229Y-15656650D01*
X4639229Y-15656650D02*
X4629705Y-15666174D01*
X4629705Y-15666174D02*
X4610658Y-15675698D01*
X4610658Y-15675698D02*
X4572563Y-15675698D01*
X4572563Y-15675698D02*
X4553515Y-15685222D01*
X4553515Y-15685222D02*
X4543991Y-15694746D01*
X4543991Y-15694746D02*
X4534467Y-15713793D01*
X4534467Y-15713793D02*
X4534467Y-15751888D01*
X4534467Y-15751888D02*
X4543991Y-15770936D01*
X4543991Y-15770936D02*
X4553515Y-15780460D01*
X4553515Y-15780460D02*
X4572563Y-15789984D01*
X4572563Y-15789984D02*
X4610658Y-15789984D01*
X4610658Y-15789984D02*
X4629705Y-15780460D01*
X4629705Y-15780460D02*
X4639229Y-15770936D01*
X4639229Y-15770936D02*
X4648753Y-15751888D01*
X4648753Y-15751888D02*
X4648753Y-15713793D01*
X4648753Y-15713793D02*
X4639229Y-15694746D01*
X4639229Y-15694746D02*
X4629705Y-15685222D01*
X4629705Y-15685222D02*
X4610658Y-15675698D01*
X4772563Y-15589984D02*
X4791610Y-15589984D01*
X4791610Y-15589984D02*
X4810658Y-15599508D01*
X4810658Y-15599508D02*
X4820182Y-15609031D01*
X4820182Y-15609031D02*
X4829705Y-15628079D01*
X4829705Y-15628079D02*
X4839229Y-15666174D01*
X4839229Y-15666174D02*
X4839229Y-15713793D01*
X4839229Y-15713793D02*
X4829705Y-15751888D01*
X4829705Y-15751888D02*
X4820182Y-15770936D01*
X4820182Y-15770936D02*
X4810658Y-15780460D01*
X4810658Y-15780460D02*
X4791610Y-15789984D01*
X4791610Y-15789984D02*
X4772563Y-15789984D01*
X4772563Y-15789984D02*
X4753515Y-15780460D01*
X4753515Y-15780460D02*
X4743991Y-15770936D01*
X4743991Y-15770936D02*
X4734467Y-15751888D01*
X4734467Y-15751888D02*
X4724944Y-15713793D01*
X4724944Y-15713793D02*
X4724944Y-15666174D01*
X4724944Y-15666174D02*
X4734467Y-15628079D01*
X4734467Y-15628079D02*
X4743991Y-15609031D01*
X4743991Y-15609031D02*
X4753515Y-15599508D01*
X4753515Y-15599508D02*
X4772563Y-15589984D01*
X4963039Y-15589984D02*
X4982086Y-15589984D01*
X4982086Y-15589984D02*
X5001134Y-15599508D01*
X5001134Y-15599508D02*
X5010658Y-15609031D01*
X5010658Y-15609031D02*
X5020182Y-15628079D01*
X5020182Y-15628079D02*
X5029705Y-15666174D01*
X5029705Y-15666174D02*
X5029705Y-15713793D01*
X5029705Y-15713793D02*
X5020182Y-15751888D01*
X5020182Y-15751888D02*
X5010658Y-15770936D01*
X5010658Y-15770936D02*
X5001134Y-15780460D01*
X5001134Y-15780460D02*
X4982086Y-15789984D01*
X4982086Y-15789984D02*
X4963039Y-15789984D01*
X4963039Y-15789984D02*
X4943991Y-15780460D01*
X4943991Y-15780460D02*
X4934467Y-15770936D01*
X4934467Y-15770936D02*
X4924944Y-15751888D01*
X4924944Y-15751888D02*
X4915420Y-15713793D01*
X4915420Y-15713793D02*
X4915420Y-15666174D01*
X4915420Y-15666174D02*
X4924944Y-15628079D01*
X4924944Y-15628079D02*
X4934467Y-15609031D01*
X4934467Y-15609031D02*
X4943991Y-15599508D01*
X4943991Y-15599508D02*
X4963039Y-15589984D01*
X5115420Y-15789984D02*
X5115420Y-15656650D01*
X5115420Y-15675698D02*
X5124944Y-15666174D01*
X5124944Y-15666174D02*
X5143991Y-15656650D01*
X5143991Y-15656650D02*
X5172563Y-15656650D01*
X5172563Y-15656650D02*
X5191610Y-15666174D01*
X5191610Y-15666174D02*
X5201134Y-15685222D01*
X5201134Y-15685222D02*
X5201134Y-15789984D01*
X5201134Y-15685222D02*
X5210658Y-15666174D01*
X5210658Y-15666174D02*
X5229705Y-15656650D01*
X5229705Y-15656650D02*
X5258277Y-15656650D01*
X5258277Y-15656650D02*
X5277325Y-15666174D01*
X5277325Y-15666174D02*
X5286848Y-15685222D01*
X5286848Y-15685222D02*
X5286848Y-15789984D01*
X5382086Y-15789984D02*
X5382086Y-15656650D01*
X5382086Y-15675698D02*
X5391610Y-15666174D01*
X5391610Y-15666174D02*
X5410658Y-15656650D01*
X5410658Y-15656650D02*
X5439229Y-15656650D01*
X5439229Y-15656650D02*
X5458277Y-15666174D01*
X5458277Y-15666174D02*
X5467801Y-15685222D01*
X5467801Y-15685222D02*
X5467801Y-15789984D01*
X5467801Y-15685222D02*
X5477325Y-15666174D01*
X5477325Y-15666174D02*
X5496372Y-15656650D01*
X5496372Y-15656650D02*
X5524944Y-15656650D01*
X5524944Y-15656650D02*
X5543991Y-15666174D01*
X5543991Y-15666174D02*
X5553515Y-15685222D01*
X5553515Y-15685222D02*
X5553515Y-15789984D01*
X5943991Y-15580460D02*
X5772563Y-15837603D01*
X6201134Y-15589984D02*
X6220182Y-15589984D01*
X6220182Y-15589984D02*
X6239229Y-15599508D01*
X6239229Y-15599508D02*
X6248753Y-15609031D01*
X6248753Y-15609031D02*
X6258277Y-15628079D01*
X6258277Y-15628079D02*
X6267801Y-15666174D01*
X6267801Y-15666174D02*
X6267801Y-15713793D01*
X6267801Y-15713793D02*
X6258277Y-15751888D01*
X6258277Y-15751888D02*
X6248753Y-15770936D01*
X6248753Y-15770936D02*
X6239229Y-15780460D01*
X6239229Y-15780460D02*
X6220182Y-15789984D01*
X6220182Y-15789984D02*
X6201134Y-15789984D01*
X6201134Y-15789984D02*
X6182086Y-15780460D01*
X6182086Y-15780460D02*
X6172563Y-15770936D01*
X6172563Y-15770936D02*
X6163039Y-15751888D01*
X6163039Y-15751888D02*
X6153515Y-15713793D01*
X6153515Y-15713793D02*
X6153515Y-15666174D01*
X6153515Y-15666174D02*
X6163039Y-15628079D01*
X6163039Y-15628079D02*
X6172563Y-15609031D01*
X6172563Y-15609031D02*
X6182086Y-15599508D01*
X6182086Y-15599508D02*
X6201134Y-15589984D01*
X6353515Y-15770936D02*
X6363039Y-15780460D01*
X6363039Y-15780460D02*
X6353515Y-15789984D01*
X6353515Y-15789984D02*
X6343991Y-15780460D01*
X6343991Y-15780460D02*
X6353515Y-15770936D01*
X6353515Y-15770936D02*
X6353515Y-15789984D01*
X6486848Y-15589984D02*
X6505896Y-15589984D01*
X6505896Y-15589984D02*
X6524944Y-15599508D01*
X6524944Y-15599508D02*
X6534467Y-15609031D01*
X6534467Y-15609031D02*
X6543991Y-15628079D01*
X6543991Y-15628079D02*
X6553515Y-15666174D01*
X6553515Y-15666174D02*
X6553515Y-15713793D01*
X6553515Y-15713793D02*
X6543991Y-15751888D01*
X6543991Y-15751888D02*
X6534467Y-15770936D01*
X6534467Y-15770936D02*
X6524944Y-15780460D01*
X6524944Y-15780460D02*
X6505896Y-15789984D01*
X6505896Y-15789984D02*
X6486848Y-15789984D01*
X6486848Y-15789984D02*
X6467801Y-15780460D01*
X6467801Y-15780460D02*
X6458277Y-15770936D01*
X6458277Y-15770936D02*
X6448753Y-15751888D01*
X6448753Y-15751888D02*
X6439229Y-15713793D01*
X6439229Y-15713793D02*
X6439229Y-15666174D01*
X6439229Y-15666174D02*
X6448753Y-15628079D01*
X6448753Y-15628079D02*
X6458277Y-15609031D01*
X6458277Y-15609031D02*
X6467801Y-15599508D01*
X6467801Y-15599508D02*
X6486848Y-15589984D01*
X6620182Y-15589984D02*
X6753515Y-15589984D01*
X6753515Y-15589984D02*
X6667801Y-15789984D01*
X6867801Y-15589984D02*
X6886848Y-15589984D01*
X6886848Y-15589984D02*
X6905896Y-15599508D01*
X6905896Y-15599508D02*
X6915420Y-15609031D01*
X6915420Y-15609031D02*
X6924944Y-15628079D01*
X6924944Y-15628079D02*
X6934467Y-15666174D01*
X6934467Y-15666174D02*
X6934467Y-15713793D01*
X6934467Y-15713793D02*
X6924944Y-15751888D01*
X6924944Y-15751888D02*
X6915420Y-15770936D01*
X6915420Y-15770936D02*
X6905896Y-15780460D01*
X6905896Y-15780460D02*
X6886848Y-15789984D01*
X6886848Y-15789984D02*
X6867801Y-15789984D01*
X6867801Y-15789984D02*
X6848753Y-15780460D01*
X6848753Y-15780460D02*
X6839229Y-15770936D01*
X6839229Y-15770936D02*
X6829706Y-15751888D01*
X6829706Y-15751888D02*
X6820182Y-15713793D01*
X6820182Y-15713793D02*
X6820182Y-15666174D01*
X6820182Y-15666174D02*
X6829706Y-15628079D01*
X6829706Y-15628079D02*
X6839229Y-15609031D01*
X6839229Y-15609031D02*
X6848753Y-15599508D01*
X6848753Y-15599508D02*
X6867801Y-15589984D01*
X7029706Y-15789984D02*
X7067801Y-15789984D01*
X7067801Y-15789984D02*
X7086848Y-15780460D01*
X7086848Y-15780460D02*
X7096372Y-15770936D01*
X7096372Y-15770936D02*
X7115420Y-15742365D01*
X7115420Y-15742365D02*
X7124944Y-15704269D01*
X7124944Y-15704269D02*
X7124944Y-15628079D01*
X7124944Y-15628079D02*
X7115420Y-15609031D01*
X7115420Y-15609031D02*
X7105896Y-15599508D01*
X7105896Y-15599508D02*
X7086848Y-15589984D01*
X7086848Y-15589984D02*
X7048753Y-15589984D01*
X7048753Y-15589984D02*
X7029706Y-15599508D01*
X7029706Y-15599508D02*
X7020182Y-15609031D01*
X7020182Y-15609031D02*
X7010658Y-15628079D01*
X7010658Y-15628079D02*
X7010658Y-15675698D01*
X7010658Y-15675698D02*
X7020182Y-15694746D01*
X7020182Y-15694746D02*
X7029706Y-15704269D01*
X7029706Y-15704269D02*
X7048753Y-15713793D01*
X7048753Y-15713793D02*
X7086848Y-15713793D01*
X7086848Y-15713793D02*
X7105896Y-15704269D01*
X7105896Y-15704269D02*
X7115420Y-15694746D01*
X7115420Y-15694746D02*
X7124944Y-15675698D01*
X7201134Y-15589984D02*
X7201134Y-15628079D01*
X7277325Y-15589984D02*
X7277325Y-15628079D01*
X7572563Y-15866174D02*
X7563039Y-15856650D01*
X7563039Y-15856650D02*
X7543991Y-15828079D01*
X7543991Y-15828079D02*
X7534468Y-15809031D01*
X7534468Y-15809031D02*
X7524944Y-15780460D01*
X7524944Y-15780460D02*
X7515420Y-15732841D01*
X7515420Y-15732841D02*
X7515420Y-15694746D01*
X7515420Y-15694746D02*
X7524944Y-15647127D01*
X7524944Y-15647127D02*
X7534468Y-15618555D01*
X7534468Y-15618555D02*
X7543991Y-15599508D01*
X7543991Y-15599508D02*
X7563039Y-15570936D01*
X7563039Y-15570936D02*
X7572563Y-15561412D01*
X7686848Y-15589984D02*
X7705896Y-15589984D01*
X7705896Y-15589984D02*
X7724944Y-15599508D01*
X7724944Y-15599508D02*
X7734468Y-15609031D01*
X7734468Y-15609031D02*
X7743991Y-15628079D01*
X7743991Y-15628079D02*
X7753515Y-15666174D01*
X7753515Y-15666174D02*
X7753515Y-15713793D01*
X7753515Y-15713793D02*
X7743991Y-15751888D01*
X7743991Y-15751888D02*
X7734468Y-15770936D01*
X7734468Y-15770936D02*
X7724944Y-15780460D01*
X7724944Y-15780460D02*
X7705896Y-15789984D01*
X7705896Y-15789984D02*
X7686848Y-15789984D01*
X7686848Y-15789984D02*
X7667801Y-15780460D01*
X7667801Y-15780460D02*
X7658277Y-15770936D01*
X7658277Y-15770936D02*
X7648753Y-15751888D01*
X7648753Y-15751888D02*
X7639229Y-15713793D01*
X7639229Y-15713793D02*
X7639229Y-15666174D01*
X7639229Y-15666174D02*
X7648753Y-15628079D01*
X7648753Y-15628079D02*
X7658277Y-15609031D01*
X7658277Y-15609031D02*
X7667801Y-15599508D01*
X7667801Y-15599508D02*
X7686848Y-15589984D01*
X7991610Y-15789984D02*
X7991610Y-15589984D01*
X8077325Y-15789984D02*
X8077325Y-15685222D01*
X8077325Y-15685222D02*
X8067801Y-15666174D01*
X8067801Y-15666174D02*
X8048753Y-15656650D01*
X8048753Y-15656650D02*
X8020182Y-15656650D01*
X8020182Y-15656650D02*
X8001134Y-15666174D01*
X8001134Y-15666174D02*
X7991610Y-15675698D01*
X8201134Y-15789984D02*
X8182087Y-15780460D01*
X8182087Y-15780460D02*
X8172563Y-15770936D01*
X8172563Y-15770936D02*
X8163039Y-15751888D01*
X8163039Y-15751888D02*
X8163039Y-15694746D01*
X8163039Y-15694746D02*
X8172563Y-15675698D01*
X8172563Y-15675698D02*
X8182087Y-15666174D01*
X8182087Y-15666174D02*
X8201134Y-15656650D01*
X8201134Y-15656650D02*
X8229706Y-15656650D01*
X8229706Y-15656650D02*
X8248753Y-15666174D01*
X8248753Y-15666174D02*
X8258277Y-15675698D01*
X8258277Y-15675698D02*
X8267801Y-15694746D01*
X8267801Y-15694746D02*
X8267801Y-15751888D01*
X8267801Y-15751888D02*
X8258277Y-15770936D01*
X8258277Y-15770936D02*
X8248753Y-15780460D01*
X8248753Y-15780460D02*
X8229706Y-15789984D01*
X8229706Y-15789984D02*
X8201134Y-15789984D01*
X8382087Y-15789984D02*
X8363039Y-15780460D01*
X8363039Y-15780460D02*
X8353515Y-15761412D01*
X8353515Y-15761412D02*
X8353515Y-15589984D01*
X8534468Y-15780460D02*
X8515420Y-15789984D01*
X8515420Y-15789984D02*
X8477325Y-15789984D01*
X8477325Y-15789984D02*
X8458277Y-15780460D01*
X8458277Y-15780460D02*
X8448753Y-15761412D01*
X8448753Y-15761412D02*
X8448753Y-15685222D01*
X8448753Y-15685222D02*
X8458277Y-15666174D01*
X8458277Y-15666174D02*
X8477325Y-15656650D01*
X8477325Y-15656650D02*
X8515420Y-15656650D01*
X8515420Y-15656650D02*
X8534468Y-15666174D01*
X8534468Y-15666174D02*
X8543992Y-15685222D01*
X8543992Y-15685222D02*
X8543992Y-15704269D01*
X8543992Y-15704269D02*
X8448753Y-15723317D01*
X8620182Y-15780460D02*
X8639230Y-15789984D01*
X8639230Y-15789984D02*
X8677325Y-15789984D01*
X8677325Y-15789984D02*
X8696373Y-15780460D01*
X8696373Y-15780460D02*
X8705896Y-15761412D01*
X8705896Y-15761412D02*
X8705896Y-15751888D01*
X8705896Y-15751888D02*
X8696373Y-15732841D01*
X8696373Y-15732841D02*
X8677325Y-15723317D01*
X8677325Y-15723317D02*
X8648753Y-15723317D01*
X8648753Y-15723317D02*
X8629706Y-15713793D01*
X8629706Y-15713793D02*
X8620182Y-15694746D01*
X8620182Y-15694746D02*
X8620182Y-15685222D01*
X8620182Y-15685222D02*
X8629706Y-15666174D01*
X8629706Y-15666174D02*
X8648753Y-15656650D01*
X8648753Y-15656650D02*
X8677325Y-15656650D01*
X8677325Y-15656650D02*
X8696373Y-15666174D01*
X8943992Y-15713793D02*
X9096373Y-15713793D01*
X9020182Y-15789984D02*
X9020182Y-15637603D01*
X9334468Y-15609031D02*
X9343992Y-15599508D01*
X9343992Y-15599508D02*
X9363039Y-15589984D01*
X9363039Y-15589984D02*
X9410658Y-15589984D01*
X9410658Y-15589984D02*
X9429706Y-15599508D01*
X9429706Y-15599508D02*
X9439230Y-15609031D01*
X9439230Y-15609031D02*
X9448754Y-15628079D01*
X9448754Y-15628079D02*
X9448754Y-15647127D01*
X9448754Y-15647127D02*
X9439230Y-15675698D01*
X9439230Y-15675698D02*
X9324944Y-15789984D01*
X9324944Y-15789984D02*
X9448754Y-15789984D01*
X9677325Y-15780460D02*
X9696373Y-15789984D01*
X9696373Y-15789984D02*
X9734468Y-15789984D01*
X9734468Y-15789984D02*
X9753516Y-15780460D01*
X9753516Y-15780460D02*
X9763039Y-15761412D01*
X9763039Y-15761412D02*
X9763039Y-15751888D01*
X9763039Y-15751888D02*
X9753516Y-15732841D01*
X9753516Y-15732841D02*
X9734468Y-15723317D01*
X9734468Y-15723317D02*
X9705896Y-15723317D01*
X9705896Y-15723317D02*
X9686849Y-15713793D01*
X9686849Y-15713793D02*
X9677325Y-15694746D01*
X9677325Y-15694746D02*
X9677325Y-15685222D01*
X9677325Y-15685222D02*
X9686849Y-15666174D01*
X9686849Y-15666174D02*
X9705896Y-15656650D01*
X9705896Y-15656650D02*
X9734468Y-15656650D01*
X9734468Y-15656650D02*
X9753516Y-15666174D01*
X9877325Y-15789984D02*
X9858277Y-15780460D01*
X9858277Y-15780460D02*
X9848754Y-15761412D01*
X9848754Y-15761412D02*
X9848754Y-15589984D01*
X9982087Y-15789984D02*
X9963039Y-15780460D01*
X9963039Y-15780460D02*
X9953516Y-15770936D01*
X9953516Y-15770936D02*
X9943992Y-15751888D01*
X9943992Y-15751888D02*
X9943992Y-15694746D01*
X9943992Y-15694746D02*
X9953516Y-15675698D01*
X9953516Y-15675698D02*
X9963039Y-15666174D01*
X9963039Y-15666174D02*
X9982087Y-15656650D01*
X9982087Y-15656650D02*
X10010658Y-15656650D01*
X10010658Y-15656650D02*
X10029706Y-15666174D01*
X10029706Y-15666174D02*
X10039230Y-15675698D01*
X10039230Y-15675698D02*
X10048754Y-15694746D01*
X10048754Y-15694746D02*
X10048754Y-15751888D01*
X10048754Y-15751888D02*
X10039230Y-15770936D01*
X10039230Y-15770936D02*
X10029706Y-15780460D01*
X10029706Y-15780460D02*
X10010658Y-15789984D01*
X10010658Y-15789984D02*
X9982087Y-15789984D01*
X10105897Y-15656650D02*
X10182087Y-15656650D01*
X10134468Y-15589984D02*
X10134468Y-15761412D01*
X10134468Y-15761412D02*
X10143992Y-15780460D01*
X10143992Y-15780460D02*
X10163039Y-15789984D01*
X10163039Y-15789984D02*
X10182087Y-15789984D01*
X10239230Y-15780460D02*
X10258277Y-15789984D01*
X10258277Y-15789984D02*
X10296373Y-15789984D01*
X10296373Y-15789984D02*
X10315420Y-15780460D01*
X10315420Y-15780460D02*
X10324944Y-15761412D01*
X10324944Y-15761412D02*
X10324944Y-15751888D01*
X10324944Y-15751888D02*
X10315420Y-15732841D01*
X10315420Y-15732841D02*
X10296373Y-15723317D01*
X10296373Y-15723317D02*
X10267801Y-15723317D01*
X10267801Y-15723317D02*
X10248754Y-15713793D01*
X10248754Y-15713793D02*
X10239230Y-15694746D01*
X10239230Y-15694746D02*
X10239230Y-15685222D01*
X10239230Y-15685222D02*
X10248754Y-15666174D01*
X10248754Y-15666174D02*
X10267801Y-15656650D01*
X10267801Y-15656650D02*
X10296373Y-15656650D01*
X10296373Y-15656650D02*
X10315420Y-15666174D01*
X10391611Y-15866174D02*
X10401135Y-15856650D01*
X10401135Y-15856650D02*
X10420182Y-15828079D01*
X10420182Y-15828079D02*
X10429706Y-15809031D01*
X10429706Y-15809031D02*
X10439230Y-15780460D01*
X10439230Y-15780460D02*
X10448754Y-15732841D01*
X10448754Y-15732841D02*
X10448754Y-15694746D01*
X10448754Y-15694746D02*
X10439230Y-15647127D01*
X10439230Y-15647127D02*
X10429706Y-15618555D01*
X10429706Y-15618555D02*
X10420182Y-15599508D01*
X10420182Y-15599508D02*
X10401135Y-15570936D01*
X10401135Y-15570936D02*
X10391611Y-15561412D01*
X3797500Y-15898500D02*
X3997500Y-16098500D01*
X3997500Y-15898500D02*
X3797500Y-16098500D01*
X3997500Y-15998500D02*
G75*
G02*
X3797500Y-15998500I-100000J0D01*
G01*
X3797500Y-15998500D02*
G75*
G02*
X3997500Y-15998500I100000J0D01*
G01*
X4248753Y-15909031D02*
X4258277Y-15899508D01*
X4258277Y-15899508D02*
X4277324Y-15889984D01*
X4277324Y-15889984D02*
X4324944Y-15889984D01*
X4324944Y-15889984D02*
X4343991Y-15899508D01*
X4343991Y-15899508D02*
X4353515Y-15909031D01*
X4353515Y-15909031D02*
X4363039Y-15928079D01*
X4363039Y-15928079D02*
X4363039Y-15947127D01*
X4363039Y-15947127D02*
X4353515Y-15975698D01*
X4353515Y-15975698D02*
X4239229Y-16089984D01*
X4239229Y-16089984D02*
X4363039Y-16089984D01*
X4448753Y-16070936D02*
X4458277Y-16080460D01*
X4458277Y-16080460D02*
X4448753Y-16089984D01*
X4448753Y-16089984D02*
X4439229Y-16080460D01*
X4439229Y-16080460D02*
X4448753Y-16070936D01*
X4448753Y-16070936D02*
X4448753Y-16089984D01*
X4639229Y-15889984D02*
X4543991Y-15889984D01*
X4543991Y-15889984D02*
X4534467Y-15985222D01*
X4534467Y-15985222D02*
X4543991Y-15975698D01*
X4543991Y-15975698D02*
X4563039Y-15966174D01*
X4563039Y-15966174D02*
X4610658Y-15966174D01*
X4610658Y-15966174D02*
X4629705Y-15975698D01*
X4629705Y-15975698D02*
X4639229Y-15985222D01*
X4639229Y-15985222D02*
X4648753Y-16004269D01*
X4648753Y-16004269D02*
X4648753Y-16051888D01*
X4648753Y-16051888D02*
X4639229Y-16070936D01*
X4639229Y-16070936D02*
X4629705Y-16080460D01*
X4629705Y-16080460D02*
X4610658Y-16089984D01*
X4610658Y-16089984D02*
X4563039Y-16089984D01*
X4563039Y-16089984D02*
X4543991Y-16080460D01*
X4543991Y-16080460D02*
X4534467Y-16070936D01*
X4772563Y-15889984D02*
X4791610Y-15889984D01*
X4791610Y-15889984D02*
X4810658Y-15899508D01*
X4810658Y-15899508D02*
X4820182Y-15909031D01*
X4820182Y-15909031D02*
X4829705Y-15928079D01*
X4829705Y-15928079D02*
X4839229Y-15966174D01*
X4839229Y-15966174D02*
X4839229Y-16013793D01*
X4839229Y-16013793D02*
X4829705Y-16051888D01*
X4829705Y-16051888D02*
X4820182Y-16070936D01*
X4820182Y-16070936D02*
X4810658Y-16080460D01*
X4810658Y-16080460D02*
X4791610Y-16089984D01*
X4791610Y-16089984D02*
X4772563Y-16089984D01*
X4772563Y-16089984D02*
X4753515Y-16080460D01*
X4753515Y-16080460D02*
X4743991Y-16070936D01*
X4743991Y-16070936D02*
X4734467Y-16051888D01*
X4734467Y-16051888D02*
X4724944Y-16013793D01*
X4724944Y-16013793D02*
X4724944Y-15966174D01*
X4724944Y-15966174D02*
X4734467Y-15928079D01*
X4734467Y-15928079D02*
X4743991Y-15909031D01*
X4743991Y-15909031D02*
X4753515Y-15899508D01*
X4753515Y-15899508D02*
X4772563Y-15889984D01*
X4963039Y-15889984D02*
X4982086Y-15889984D01*
X4982086Y-15889984D02*
X5001134Y-15899508D01*
X5001134Y-15899508D02*
X5010658Y-15909031D01*
X5010658Y-15909031D02*
X5020182Y-15928079D01*
X5020182Y-15928079D02*
X5029705Y-15966174D01*
X5029705Y-15966174D02*
X5029705Y-16013793D01*
X5029705Y-16013793D02*
X5020182Y-16051888D01*
X5020182Y-16051888D02*
X5010658Y-16070936D01*
X5010658Y-16070936D02*
X5001134Y-16080460D01*
X5001134Y-16080460D02*
X4982086Y-16089984D01*
X4982086Y-16089984D02*
X4963039Y-16089984D01*
X4963039Y-16089984D02*
X4943991Y-16080460D01*
X4943991Y-16080460D02*
X4934467Y-16070936D01*
X4934467Y-16070936D02*
X4924944Y-16051888D01*
X4924944Y-16051888D02*
X4915420Y-16013793D01*
X4915420Y-16013793D02*
X4915420Y-15966174D01*
X4915420Y-15966174D02*
X4924944Y-15928079D01*
X4924944Y-15928079D02*
X4934467Y-15909031D01*
X4934467Y-15909031D02*
X4943991Y-15899508D01*
X4943991Y-15899508D02*
X4963039Y-15889984D01*
X5115420Y-16089984D02*
X5115420Y-15956650D01*
X5115420Y-15975698D02*
X5124944Y-15966174D01*
X5124944Y-15966174D02*
X5143991Y-15956650D01*
X5143991Y-15956650D02*
X5172563Y-15956650D01*
X5172563Y-15956650D02*
X5191610Y-15966174D01*
X5191610Y-15966174D02*
X5201134Y-15985222D01*
X5201134Y-15985222D02*
X5201134Y-16089984D01*
X5201134Y-15985222D02*
X5210658Y-15966174D01*
X5210658Y-15966174D02*
X5229705Y-15956650D01*
X5229705Y-15956650D02*
X5258277Y-15956650D01*
X5258277Y-15956650D02*
X5277325Y-15966174D01*
X5277325Y-15966174D02*
X5286848Y-15985222D01*
X5286848Y-15985222D02*
X5286848Y-16089984D01*
X5382086Y-16089984D02*
X5382086Y-15956650D01*
X5382086Y-15975698D02*
X5391610Y-15966174D01*
X5391610Y-15966174D02*
X5410658Y-15956650D01*
X5410658Y-15956650D02*
X5439229Y-15956650D01*
X5439229Y-15956650D02*
X5458277Y-15966174D01*
X5458277Y-15966174D02*
X5467801Y-15985222D01*
X5467801Y-15985222D02*
X5467801Y-16089984D01*
X5467801Y-15985222D02*
X5477325Y-15966174D01*
X5477325Y-15966174D02*
X5496372Y-15956650D01*
X5496372Y-15956650D02*
X5524944Y-15956650D01*
X5524944Y-15956650D02*
X5543991Y-15966174D01*
X5543991Y-15966174D02*
X5553515Y-15985222D01*
X5553515Y-15985222D02*
X5553515Y-16089984D01*
X5943991Y-15880460D02*
X5772563Y-16137603D01*
X6201134Y-15889984D02*
X6220182Y-15889984D01*
X6220182Y-15889984D02*
X6239229Y-15899508D01*
X6239229Y-15899508D02*
X6248753Y-15909031D01*
X6248753Y-15909031D02*
X6258277Y-15928079D01*
X6258277Y-15928079D02*
X6267801Y-15966174D01*
X6267801Y-15966174D02*
X6267801Y-16013793D01*
X6267801Y-16013793D02*
X6258277Y-16051888D01*
X6258277Y-16051888D02*
X6248753Y-16070936D01*
X6248753Y-16070936D02*
X6239229Y-16080460D01*
X6239229Y-16080460D02*
X6220182Y-16089984D01*
X6220182Y-16089984D02*
X6201134Y-16089984D01*
X6201134Y-16089984D02*
X6182086Y-16080460D01*
X6182086Y-16080460D02*
X6172563Y-16070936D01*
X6172563Y-16070936D02*
X6163039Y-16051888D01*
X6163039Y-16051888D02*
X6153515Y-16013793D01*
X6153515Y-16013793D02*
X6153515Y-15966174D01*
X6153515Y-15966174D02*
X6163039Y-15928079D01*
X6163039Y-15928079D02*
X6172563Y-15909031D01*
X6172563Y-15909031D02*
X6182086Y-15899508D01*
X6182086Y-15899508D02*
X6201134Y-15889984D01*
X6353515Y-16070936D02*
X6363039Y-16080460D01*
X6363039Y-16080460D02*
X6353515Y-16089984D01*
X6353515Y-16089984D02*
X6343991Y-16080460D01*
X6343991Y-16080460D02*
X6353515Y-16070936D01*
X6353515Y-16070936D02*
X6353515Y-16089984D01*
X6486848Y-15889984D02*
X6505896Y-15889984D01*
X6505896Y-15889984D02*
X6524944Y-15899508D01*
X6524944Y-15899508D02*
X6534467Y-15909031D01*
X6534467Y-15909031D02*
X6543991Y-15928079D01*
X6543991Y-15928079D02*
X6553515Y-15966174D01*
X6553515Y-15966174D02*
X6553515Y-16013793D01*
X6553515Y-16013793D02*
X6543991Y-16051888D01*
X6543991Y-16051888D02*
X6534467Y-16070936D01*
X6534467Y-16070936D02*
X6524944Y-16080460D01*
X6524944Y-16080460D02*
X6505896Y-16089984D01*
X6505896Y-16089984D02*
X6486848Y-16089984D01*
X6486848Y-16089984D02*
X6467801Y-16080460D01*
X6467801Y-16080460D02*
X6458277Y-16070936D01*
X6458277Y-16070936D02*
X6448753Y-16051888D01*
X6448753Y-16051888D02*
X6439229Y-16013793D01*
X6439229Y-16013793D02*
X6439229Y-15966174D01*
X6439229Y-15966174D02*
X6448753Y-15928079D01*
X6448753Y-15928079D02*
X6458277Y-15909031D01*
X6458277Y-15909031D02*
X6467801Y-15899508D01*
X6467801Y-15899508D02*
X6486848Y-15889984D01*
X6648753Y-16089984D02*
X6686848Y-16089984D01*
X6686848Y-16089984D02*
X6705896Y-16080460D01*
X6705896Y-16080460D02*
X6715420Y-16070936D01*
X6715420Y-16070936D02*
X6734467Y-16042365D01*
X6734467Y-16042365D02*
X6743991Y-16004269D01*
X6743991Y-16004269D02*
X6743991Y-15928079D01*
X6743991Y-15928079D02*
X6734467Y-15909031D01*
X6734467Y-15909031D02*
X6724944Y-15899508D01*
X6724944Y-15899508D02*
X6705896Y-15889984D01*
X6705896Y-15889984D02*
X6667801Y-15889984D01*
X6667801Y-15889984D02*
X6648753Y-15899508D01*
X6648753Y-15899508D02*
X6639229Y-15909031D01*
X6639229Y-15909031D02*
X6629706Y-15928079D01*
X6629706Y-15928079D02*
X6629706Y-15975698D01*
X6629706Y-15975698D02*
X6639229Y-15994746D01*
X6639229Y-15994746D02*
X6648753Y-16004269D01*
X6648753Y-16004269D02*
X6667801Y-16013793D01*
X6667801Y-16013793D02*
X6705896Y-16013793D01*
X6705896Y-16013793D02*
X6724944Y-16004269D01*
X6724944Y-16004269D02*
X6734467Y-15994746D01*
X6734467Y-15994746D02*
X6743991Y-15975698D01*
X6858277Y-15975698D02*
X6839229Y-15966174D01*
X6839229Y-15966174D02*
X6829706Y-15956650D01*
X6829706Y-15956650D02*
X6820182Y-15937603D01*
X6820182Y-15937603D02*
X6820182Y-15928079D01*
X6820182Y-15928079D02*
X6829706Y-15909031D01*
X6829706Y-15909031D02*
X6839229Y-15899508D01*
X6839229Y-15899508D02*
X6858277Y-15889984D01*
X6858277Y-15889984D02*
X6896372Y-15889984D01*
X6896372Y-15889984D02*
X6915420Y-15899508D01*
X6915420Y-15899508D02*
X6924944Y-15909031D01*
X6924944Y-15909031D02*
X6934467Y-15928079D01*
X6934467Y-15928079D02*
X6934467Y-15937603D01*
X6934467Y-15937603D02*
X6924944Y-15956650D01*
X6924944Y-15956650D02*
X6915420Y-15966174D01*
X6915420Y-15966174D02*
X6896372Y-15975698D01*
X6896372Y-15975698D02*
X6858277Y-15975698D01*
X6858277Y-15975698D02*
X6839229Y-15985222D01*
X6839229Y-15985222D02*
X6829706Y-15994746D01*
X6829706Y-15994746D02*
X6820182Y-16013793D01*
X6820182Y-16013793D02*
X6820182Y-16051888D01*
X6820182Y-16051888D02*
X6829706Y-16070936D01*
X6829706Y-16070936D02*
X6839229Y-16080460D01*
X6839229Y-16080460D02*
X6858277Y-16089984D01*
X6858277Y-16089984D02*
X6896372Y-16089984D01*
X6896372Y-16089984D02*
X6915420Y-16080460D01*
X6915420Y-16080460D02*
X6924944Y-16070936D01*
X6924944Y-16070936D02*
X6934467Y-16051888D01*
X6934467Y-16051888D02*
X6934467Y-16013793D01*
X6934467Y-16013793D02*
X6924944Y-15994746D01*
X6924944Y-15994746D02*
X6915420Y-15985222D01*
X6915420Y-15985222D02*
X6896372Y-15975698D01*
X7105896Y-15956650D02*
X7105896Y-16089984D01*
X7058277Y-15880460D02*
X7010658Y-16023317D01*
X7010658Y-16023317D02*
X7134467Y-16023317D01*
X7201134Y-15889984D02*
X7201134Y-15928079D01*
X7277325Y-15889984D02*
X7277325Y-15928079D01*
X7572563Y-16166174D02*
X7563039Y-16156650D01*
X7563039Y-16156650D02*
X7543991Y-16128079D01*
X7543991Y-16128079D02*
X7534468Y-16109031D01*
X7534468Y-16109031D02*
X7524944Y-16080460D01*
X7524944Y-16080460D02*
X7515420Y-16032841D01*
X7515420Y-16032841D02*
X7515420Y-15994746D01*
X7515420Y-15994746D02*
X7524944Y-15947127D01*
X7524944Y-15947127D02*
X7534468Y-15918555D01*
X7534468Y-15918555D02*
X7543991Y-15899508D01*
X7543991Y-15899508D02*
X7563039Y-15870936D01*
X7563039Y-15870936D02*
X7572563Y-15861412D01*
X7629706Y-15889984D02*
X7753515Y-15889984D01*
X7753515Y-15889984D02*
X7686848Y-15966174D01*
X7686848Y-15966174D02*
X7715420Y-15966174D01*
X7715420Y-15966174D02*
X7734468Y-15975698D01*
X7734468Y-15975698D02*
X7743991Y-15985222D01*
X7743991Y-15985222D02*
X7753515Y-16004269D01*
X7753515Y-16004269D02*
X7753515Y-16051888D01*
X7753515Y-16051888D02*
X7743991Y-16070936D01*
X7743991Y-16070936D02*
X7734468Y-16080460D01*
X7734468Y-16080460D02*
X7715420Y-16089984D01*
X7715420Y-16089984D02*
X7658277Y-16089984D01*
X7658277Y-16089984D02*
X7639229Y-16080460D01*
X7639229Y-16080460D02*
X7629706Y-16070936D01*
X7991610Y-16089984D02*
X7991610Y-15889984D01*
X8077325Y-16089984D02*
X8077325Y-15985222D01*
X8077325Y-15985222D02*
X8067801Y-15966174D01*
X8067801Y-15966174D02*
X8048753Y-15956650D01*
X8048753Y-15956650D02*
X8020182Y-15956650D01*
X8020182Y-15956650D02*
X8001134Y-15966174D01*
X8001134Y-15966174D02*
X7991610Y-15975698D01*
X8201134Y-16089984D02*
X8182087Y-16080460D01*
X8182087Y-16080460D02*
X8172563Y-16070936D01*
X8172563Y-16070936D02*
X8163039Y-16051888D01*
X8163039Y-16051888D02*
X8163039Y-15994746D01*
X8163039Y-15994746D02*
X8172563Y-15975698D01*
X8172563Y-15975698D02*
X8182087Y-15966174D01*
X8182087Y-15966174D02*
X8201134Y-15956650D01*
X8201134Y-15956650D02*
X8229706Y-15956650D01*
X8229706Y-15956650D02*
X8248753Y-15966174D01*
X8248753Y-15966174D02*
X8258277Y-15975698D01*
X8258277Y-15975698D02*
X8267801Y-15994746D01*
X8267801Y-15994746D02*
X8267801Y-16051888D01*
X8267801Y-16051888D02*
X8258277Y-16070936D01*
X8258277Y-16070936D02*
X8248753Y-16080460D01*
X8248753Y-16080460D02*
X8229706Y-16089984D01*
X8229706Y-16089984D02*
X8201134Y-16089984D01*
X8382087Y-16089984D02*
X8363039Y-16080460D01*
X8363039Y-16080460D02*
X8353515Y-16061412D01*
X8353515Y-16061412D02*
X8353515Y-15889984D01*
X8534468Y-16080460D02*
X8515420Y-16089984D01*
X8515420Y-16089984D02*
X8477325Y-16089984D01*
X8477325Y-16089984D02*
X8458277Y-16080460D01*
X8458277Y-16080460D02*
X8448753Y-16061412D01*
X8448753Y-16061412D02*
X8448753Y-15985222D01*
X8448753Y-15985222D02*
X8458277Y-15966174D01*
X8458277Y-15966174D02*
X8477325Y-15956650D01*
X8477325Y-15956650D02*
X8515420Y-15956650D01*
X8515420Y-15956650D02*
X8534468Y-15966174D01*
X8534468Y-15966174D02*
X8543992Y-15985222D01*
X8543992Y-15985222D02*
X8543992Y-16004269D01*
X8543992Y-16004269D02*
X8448753Y-16023317D01*
X8620182Y-16080460D02*
X8639230Y-16089984D01*
X8639230Y-16089984D02*
X8677325Y-16089984D01*
X8677325Y-16089984D02*
X8696373Y-16080460D01*
X8696373Y-16080460D02*
X8705896Y-16061412D01*
X8705896Y-16061412D02*
X8705896Y-16051888D01*
X8705896Y-16051888D02*
X8696373Y-16032841D01*
X8696373Y-16032841D02*
X8677325Y-16023317D01*
X8677325Y-16023317D02*
X8648753Y-16023317D01*
X8648753Y-16023317D02*
X8629706Y-16013793D01*
X8629706Y-16013793D02*
X8620182Y-15994746D01*
X8620182Y-15994746D02*
X8620182Y-15985222D01*
X8620182Y-15985222D02*
X8629706Y-15966174D01*
X8629706Y-15966174D02*
X8648753Y-15956650D01*
X8648753Y-15956650D02*
X8677325Y-15956650D01*
X8677325Y-15956650D02*
X8696373Y-15966174D01*
X8772563Y-16166174D02*
X8782087Y-16156650D01*
X8782087Y-16156650D02*
X8801134Y-16128079D01*
X8801134Y-16128079D02*
X8810658Y-16109031D01*
X8810658Y-16109031D02*
X8820182Y-16080460D01*
X8820182Y-16080460D02*
X8829706Y-16032841D01*
X8829706Y-16032841D02*
X8829706Y-15994746D01*
X8829706Y-15994746D02*
X8820182Y-15947127D01*
X8820182Y-15947127D02*
X8810658Y-15918555D01*
X8810658Y-15918555D02*
X8801134Y-15899508D01*
X8801134Y-15899508D02*
X8782087Y-15870936D01*
X8782087Y-15870936D02*
X8772563Y-15861412D01*
M02*
