%TF.GenerationSoftware,KiCad,Pcbnew,8.0.3*%
%TF.CreationDate,2024-07-30T19:30:49-07:00*%
%TF.ProjectId,ardxp1,61726478-7031-42e6-9b69-6361645f7063,v0.1*%
%TF.SameCoordinates,Original*%
%TF.FileFunction,Copper,L2,Bot*%
%TF.FilePolarity,Positive*%
%FSLAX46Y46*%
G04 Gerber Fmt 4.6, Leading zero omitted, Abs format (unit mm)*
G04 Created by KiCad (PCBNEW 8.0.3) date 2024-07-30 19:30:49*
%MOMM*%
%LPD*%
G01*
G04 APERTURE LIST*
%TA.AperFunction,ComponentPad*%
%ADD10R,1.600000X1.600000*%
%TD*%
%TA.AperFunction,ComponentPad*%
%ADD11O,1.600000X1.600000*%
%TD*%
%TA.AperFunction,ComponentPad*%
%ADD12C,1.400000*%
%TD*%
%TA.AperFunction,ComponentPad*%
%ADD13O,1.400000X1.400000*%
%TD*%
%TA.AperFunction,ComponentPad*%
%ADD14C,2.000000*%
%TD*%
%TA.AperFunction,ComponentPad*%
%ADD15R,2.800000X3.600000*%
%TD*%
%TA.AperFunction,ComponentPad*%
%ADD16C,5.000000*%
%TD*%
%TA.AperFunction,ComponentPad*%
%ADD17C,1.700000*%
%TD*%
%TA.AperFunction,ComponentPad*%
%ADD18R,1.700000X1.700000*%
%TD*%
%TA.AperFunction,ViaPad*%
%ADD19C,0.800000*%
%TD*%
%TA.AperFunction,Conductor*%
%ADD20C,0.200000*%
%TD*%
%TA.AperFunction,Profile*%
%ADD21C,0.050000*%
%TD*%
G04 APERTURE END LIST*
D10*
%TO.P,A1,1*%
%TO.N,Net-(A1-Pad1)*%
X76000000Y-87000000D03*
D11*
%TO.P,A1,2*%
%TO.N,Net-(A1-Pad2)*%
X78540000Y-87000000D03*
%TO.P,A1,3*%
%TO.N,Net-(A1-Pad3)*%
X81080000Y-87000000D03*
%TO.P,A1,4*%
%TO.N,Net-(A1-Pad4)*%
X83620000Y-87000000D03*
%TO.P,A1,5*%
%TO.N,VCC*%
X86160000Y-87000000D03*
%TO.P,A1,6*%
%TO.N,GND*%
X88700000Y-87000000D03*
%TO.P,A1,7*%
X91240000Y-87000000D03*
%TO.P,A1,8*%
%TO.N,Net-(A1-Pad8)*%
X93780000Y-87000000D03*
%TO.P,A1,9*%
%TO.N,Net-(A1-Pad9)*%
X98860000Y-87000000D03*
%TO.P,A1,10*%
%TO.N,Net-(A1-Pad10)*%
X101400000Y-87000000D03*
%TO.P,A1,11*%
%TO.N,Net-(A1-Pad11)*%
X103940000Y-87000000D03*
%TO.P,A1,12*%
%TO.N,Net-(A1-Pad12)*%
X106480000Y-87000000D03*
%TO.P,A1,13*%
%TO.N,Net-(A1-Pad13)*%
X109020000Y-87000000D03*
%TO.P,A1,14*%
%TO.N,Net-(A1-Pad14)*%
X111560000Y-87000000D03*
%TO.P,A1,15*%
%TO.N,Net-(A1-Pad15)*%
X111560000Y-135260000D03*
%TO.P,A1,16*%
%TO.N,Net-(A1-Pad16)*%
X109020000Y-135260000D03*
%TO.P,A1,17*%
%TO.N,Net-(A1-Pad17)*%
X106480000Y-135260000D03*
%TO.P,A1,18*%
%TO.N,Net-(A1-Pad18)*%
X103940000Y-135260000D03*
%TO.P,A1,19*%
%TO.N,Net-(A1-Pad19)*%
X101400000Y-135260000D03*
%TO.P,A1,20*%
%TO.N,Net-(A1-Pad20)*%
X98860000Y-135260000D03*
%TO.P,A1,21*%
%TO.N,Net-(A1-Pad21)*%
X96320000Y-135260000D03*
%TO.P,A1,22*%
%TO.N,Net-(A1-Pad22)*%
X93780000Y-135260000D03*
%TO.P,A1,23*%
%TO.N,Net-(A1-Pad23)*%
X89720000Y-135260000D03*
%TO.P,A1,24*%
%TO.N,Net-(A1-Pad24)*%
X87180000Y-135260000D03*
%TO.P,A1,25*%
%TO.N,Net-(A1-Pad25)*%
X84640000Y-135260000D03*
%TO.P,A1,26*%
%TO.N,Net-(A1-Pad26)*%
X82100000Y-135260000D03*
%TO.P,A1,27*%
%TO.N,Net-(A1-Pad27)*%
X79560000Y-135260000D03*
%TO.P,A1,28*%
%TO.N,Net-(A1-Pad28)*%
X77020000Y-135260000D03*
%TO.P,A1,29*%
%TO.N,GND*%
X74480000Y-135260000D03*
%TO.P,A1,30*%
%TO.N,Net-(A1-Pad30)*%
X71940000Y-135260000D03*
%TO.P,A1,31*%
%TO.N,Net-(A1-Pad31)*%
X69400000Y-135260000D03*
%TO.P,A1,32*%
%TO.N,Net-(A1-Pad32)*%
X66860000Y-135260000D03*
%TD*%
D12*
%TO.P,R1,1*%
%TO.N,Net-(A1-Pad21)*%
X115000000Y-67000000D03*
D13*
%TO.P,R1,2*%
%TO.N,GND*%
X109920000Y-67000000D03*
%TD*%
D12*
%TO.P,R2,1*%
%TO.N,Net-(A1-Pad22)*%
X100920000Y-64000000D03*
D13*
%TO.P,R2,2*%
%TO.N,GND*%
X95840000Y-64000000D03*
%TD*%
D12*
%TO.P,R3,1*%
%TO.N,Net-(A1-Pad23)*%
X89000000Y-64000000D03*
D13*
%TO.P,R3,2*%
%TO.N,GND*%
X83920000Y-64000000D03*
%TD*%
D14*
%TO.P,S1,1*%
%TO.N,VCC*%
X110200000Y-44000000D03*
%TO.P,S1,2*%
%TO.N,Net-(A1-Pad21)*%
X115200000Y-44000000D03*
D15*
%TO.P,S1,3*%
%TO.N,Net-(S1-Pad3)*%
X107000000Y-51000000D03*
X118400000Y-51000000D03*
D14*
%TO.P,S1,A*%
%TO.N,Net-(A1-Pad18)*%
X110200000Y-58500000D03*
%TO.P,S1,B*%
%TO.N,Net-(A1-Pad17)*%
X115200000Y-58500000D03*
%TO.P,S1,C*%
%TO.N,GND*%
X112700000Y-58500000D03*
%TD*%
%TO.P,SW1,1*%
%TO.N,VCC*%
X95000000Y-44000000D03*
X101500000Y-44000000D03*
%TO.P,SW1,2*%
%TO.N,Net-(A1-Pad22)*%
X95000000Y-48500000D03*
X101500000Y-48500000D03*
%TD*%
%TO.P,SW2,1*%
%TO.N,VCC*%
X83000000Y-44000000D03*
X89500000Y-44000000D03*
%TO.P,SW2,2*%
%TO.N,Net-(A1-Pad23)*%
X83000000Y-48500000D03*
X89500000Y-48500000D03*
%TD*%
D16*
%TO.P,H1,1*%
%TO.N,GND*%
X120000000Y-135000000D03*
%TD*%
%TO.P,H2,1*%
%TO.N,GND*%
X95000000Y-55000000D03*
%TD*%
%TO.P,H3,1*%
%TO.N,GND*%
X45000000Y-81500000D03*
%TD*%
D17*
%TO.P,J1,8*%
%TO.N,Net-(A1-Pad13)*%
X68780000Y-74000000D03*
%TO.P,J1,7*%
%TO.N,Net-(A1-Pad14)*%
X66240000Y-74000000D03*
%TO.P,J1,6*%
%TO.N,Net-(J1-Pad6)*%
X63700000Y-74000000D03*
%TO.P,J1,5*%
%TO.N,Net-(J1-Pad5)*%
X61160000Y-74000000D03*
%TO.P,J1,4*%
%TO.N,Net-(J1-Pad4)*%
X58620000Y-74000000D03*
%TO.P,J1,3*%
%TO.N,Net-(J1-Pad3)*%
X56080000Y-74000000D03*
%TO.P,J1,2*%
%TO.N,VCC*%
X53540000Y-74000000D03*
D18*
%TO.P,J1,1*%
%TO.N,GND*%
X51000000Y-74000000D03*
%TD*%
D19*
%TO.N,GND*%
X64000000Y-128000000D03*
X64000000Y-114500000D03*
X64000000Y-102500000D03*
X64000000Y-88000000D03*
X120000000Y-42000000D03*
X77000000Y-42000000D03*
X123000000Y-94000000D03*
X42000000Y-73000000D03*
X42000000Y-65000000D03*
X123000000Y-62000000D03*
X123000000Y-86000000D03*
X123000000Y-46000000D03*
X61000000Y-42000000D03*
X42000000Y-49000000D03*
X53000000Y-42000000D03*
X123000000Y-102000000D03*
X123000000Y-54000000D03*
X123000000Y-70000000D03*
X42000000Y-57000000D03*
X120000000Y-123500000D03*
X69000000Y-42000000D03*
X123000000Y-78000000D03*
X45000000Y-42000000D03*
%TD*%
D20*
%TO.N,Net-(A1-Pad21)*%
X101400000Y-111600000D02*
X101400000Y-122653400D01*
X101400000Y-122653400D02*
X96320000Y-127733400D01*
X96320000Y-127733400D02*
X96320000Y-135260000D01*
X115000000Y-98000000D02*
X101400000Y-111600000D01*
X115000000Y-67000000D02*
X115000000Y-98000000D01*
%TO.N,Net-(A1-Pad13)*%
X108000000Y-84000000D02*
X70000000Y-84000000D01*
X109020000Y-87000000D02*
X109020000Y-85020000D01*
X70000000Y-84000000D02*
X68780000Y-82780000D01*
X109020000Y-85020000D02*
X108000000Y-84000000D01*
X68780000Y-82780000D02*
X68780000Y-74000000D01*
%TO.N,Net-(A1-Pad14)*%
X70500000Y-72500000D02*
X69500000Y-71500000D01*
X66500000Y-71500000D02*
X66240000Y-71760000D01*
X110000000Y-83000000D02*
X70500000Y-83000000D01*
X111560000Y-87000000D02*
X111560000Y-84560000D01*
X70500000Y-83000000D02*
X70500000Y-72500000D01*
X69500000Y-71500000D02*
X66500000Y-71500000D01*
X111560000Y-84560000D02*
X110000000Y-83000000D01*
X66240000Y-71760000D02*
X66240000Y-74000000D01*
%TO.N,Net-(S1-Pad3)*%
X107000000Y-51000000D02*
X118400000Y-51000000D01*
%TD*%
%TA.AperFunction,Conductor*%
%TO.N,GND*%
G36*
X90774075Y-86807007D02*
G01*
X90740000Y-86934174D01*
X90740000Y-87065826D01*
X90774075Y-87192993D01*
X90809297Y-87254000D01*
X89130703Y-87254000D01*
X89165925Y-87192993D01*
X89200000Y-87065826D01*
X89200000Y-86934174D01*
X89165925Y-86807007D01*
X89130703Y-86746000D01*
X90809297Y-86746000D01*
X90774075Y-86807007D01*
G37*
%TD.AperFunction*%
%TA.AperFunction,Conductor*%
G36*
X124916621Y-40045502D02*
G01*
X124963114Y-40099158D01*
X124974500Y-40151500D01*
X124974500Y-139848500D01*
X124954498Y-139916621D01*
X124900842Y-139963114D01*
X124848500Y-139974500D01*
X60476486Y-139974500D01*
X60408365Y-139954498D01*
X60361872Y-139900842D01*
X60350486Y-139848512D01*
X60350317Y-138008000D01*
X60350065Y-135260000D01*
X65546502Y-135260000D01*
X65566457Y-135488087D01*
X65625716Y-135709243D01*
X65722477Y-135916749D01*
X65853802Y-136104300D01*
X66015700Y-136266198D01*
X66203251Y-136397523D01*
X66410757Y-136494284D01*
X66631913Y-136553543D01*
X66860000Y-136573498D01*
X67088087Y-136553543D01*
X67309243Y-136494284D01*
X67516749Y-136397523D01*
X67704300Y-136266198D01*
X67866198Y-136104300D01*
X67997523Y-135916749D01*
X68015805Y-135877543D01*
X68062721Y-135824258D01*
X68130998Y-135804796D01*
X68198958Y-135825337D01*
X68244195Y-135877543D01*
X68262477Y-135916749D01*
X68393802Y-136104300D01*
X68555700Y-136266198D01*
X68743251Y-136397523D01*
X68950757Y-136494284D01*
X69171913Y-136553543D01*
X69400000Y-136573498D01*
X69628087Y-136553543D01*
X69849243Y-136494284D01*
X70056749Y-136397523D01*
X70244300Y-136266198D01*
X70406198Y-136104300D01*
X70537523Y-135916749D01*
X70555805Y-135877543D01*
X70602721Y-135824258D01*
X70670998Y-135804796D01*
X70738958Y-135825337D01*
X70784195Y-135877543D01*
X70802477Y-135916749D01*
X70933802Y-136104300D01*
X71095700Y-136266198D01*
X71283251Y-136397523D01*
X71490757Y-136494284D01*
X71711913Y-136553543D01*
X71940000Y-136573498D01*
X72168087Y-136553543D01*
X72389243Y-136494284D01*
X72596749Y-136397523D01*
X72784300Y-136266198D01*
X72946198Y-136104300D01*
X73077523Y-135916749D01*
X73096081Y-135876950D01*
X73142995Y-135823667D01*
X73211272Y-135804205D01*
X73279232Y-135824745D01*
X73324469Y-135876949D01*
X73342911Y-135916497D01*
X73474184Y-136103974D01*
X73474189Y-136103980D01*
X73636019Y-136265810D01*
X73636025Y-136265815D01*
X73823501Y-136397087D01*
X74030926Y-136493811D01*
X74030931Y-136493813D01*
X74226000Y-136546081D01*
X74226000Y-135690702D01*
X74287007Y-135725925D01*
X74414174Y-135760000D01*
X74545826Y-135760000D01*
X74672993Y-135725925D01*
X74734000Y-135690702D01*
X74734000Y-136546081D01*
X74929068Y-136493813D01*
X74929073Y-136493811D01*
X75136498Y-136397087D01*
X75323974Y-136265815D01*
X75323980Y-136265810D01*
X75485810Y-136103980D01*
X75485815Y-136103974D01*
X75617087Y-135916498D01*
X75635529Y-135876951D01*
X75682446Y-135823666D01*
X75750723Y-135804205D01*
X75818683Y-135824747D01*
X75863919Y-135876951D01*
X75882477Y-135916749D01*
X76013802Y-136104300D01*
X76175700Y-136266198D01*
X76363251Y-136397523D01*
X76570757Y-136494284D01*
X76791913Y-136553543D01*
X77020000Y-136573498D01*
X77248087Y-136553543D01*
X77469243Y-136494284D01*
X77676749Y-136397523D01*
X77864300Y-136266198D01*
X78026198Y-136104300D01*
X78157523Y-135916749D01*
X78175805Y-135877543D01*
X78222721Y-135824258D01*
X78290998Y-135804796D01*
X78358958Y-135825337D01*
X78404195Y-135877543D01*
X78422477Y-135916749D01*
X78553802Y-136104300D01*
X78715700Y-136266198D01*
X78903251Y-136397523D01*
X79110757Y-136494284D01*
X79331913Y-136553543D01*
X79560000Y-136573498D01*
X79788087Y-136553543D01*
X80009243Y-136494284D01*
X80216749Y-136397523D01*
X80404300Y-136266198D01*
X80566198Y-136104300D01*
X80697523Y-135916749D01*
X80715805Y-135877543D01*
X80762721Y-135824258D01*
X80830998Y-135804796D01*
X80898958Y-135825337D01*
X80944195Y-135877543D01*
X80962477Y-135916749D01*
X81093802Y-136104300D01*
X81255700Y-136266198D01*
X81443251Y-136397523D01*
X81650757Y-136494284D01*
X81871913Y-136553543D01*
X82100000Y-136573498D01*
X82328087Y-136553543D01*
X82549243Y-136494284D01*
X82756749Y-136397523D01*
X82944300Y-136266198D01*
X83106198Y-136104300D01*
X83237523Y-135916749D01*
X83255805Y-135877543D01*
X83302721Y-135824258D01*
X83370998Y-135804796D01*
X83438958Y-135825337D01*
X83484195Y-135877543D01*
X83502477Y-135916749D01*
X83633802Y-136104300D01*
X83795700Y-136266198D01*
X83983251Y-136397523D01*
X84190757Y-136494284D01*
X84411913Y-136553543D01*
X84640000Y-136573498D01*
X84868087Y-136553543D01*
X85089243Y-136494284D01*
X85296749Y-136397523D01*
X85484300Y-136266198D01*
X85646198Y-136104300D01*
X85777523Y-135916749D01*
X85795805Y-135877543D01*
X85842721Y-135824258D01*
X85910998Y-135804796D01*
X85978958Y-135825337D01*
X86024195Y-135877543D01*
X86042477Y-135916749D01*
X86173802Y-136104300D01*
X86335700Y-136266198D01*
X86523251Y-136397523D01*
X86730757Y-136494284D01*
X86951913Y-136553543D01*
X87180000Y-136573498D01*
X87408087Y-136553543D01*
X87629243Y-136494284D01*
X87836749Y-136397523D01*
X88024300Y-136266198D01*
X88186198Y-136104300D01*
X88317523Y-135916749D01*
X88335805Y-135877543D01*
X88382721Y-135824258D01*
X88450998Y-135804796D01*
X88518958Y-135825337D01*
X88564195Y-135877543D01*
X88582477Y-135916749D01*
X88713802Y-136104300D01*
X88875700Y-136266198D01*
X89063251Y-136397523D01*
X89270757Y-136494284D01*
X89491913Y-136553543D01*
X89720000Y-136573498D01*
X89948087Y-136553543D01*
X90169243Y-136494284D01*
X90376749Y-136397523D01*
X90564300Y-136266198D01*
X90726198Y-136104300D01*
X90857523Y-135916749D01*
X90954284Y-135709243D01*
X91013543Y-135488087D01*
X91033498Y-135260000D01*
X92466502Y-135260000D01*
X92486457Y-135488087D01*
X92545716Y-135709243D01*
X92642477Y-135916749D01*
X92773802Y-136104300D01*
X92935700Y-136266198D01*
X93123251Y-136397523D01*
X93330757Y-136494284D01*
X93551913Y-136553543D01*
X93780000Y-136573498D01*
X94008087Y-136553543D01*
X94229243Y-136494284D01*
X94436749Y-136397523D01*
X94624300Y-136266198D01*
X94786198Y-136104300D01*
X94917523Y-135916749D01*
X94935805Y-135877543D01*
X94982721Y-135824258D01*
X95050998Y-135804796D01*
X95118958Y-135825337D01*
X95164195Y-135877543D01*
X95182477Y-135916749D01*
X95313802Y-136104300D01*
X95475700Y-136266198D01*
X95663251Y-136397523D01*
X95870757Y-136494284D01*
X96091913Y-136553543D01*
X96320000Y-136573498D01*
X96548087Y-136553543D01*
X96769243Y-136494284D01*
X96976749Y-136397523D01*
X97164300Y-136266198D01*
X97326198Y-136104300D01*
X97457523Y-135916749D01*
X97475805Y-135877543D01*
X97522721Y-135824258D01*
X97590998Y-135804796D01*
X97658958Y-135825337D01*
X97704195Y-135877543D01*
X97722477Y-135916749D01*
X97853802Y-136104300D01*
X98015700Y-136266198D01*
X98203251Y-136397523D01*
X98410757Y-136494284D01*
X98631913Y-136553543D01*
X98860000Y-136573498D01*
X99088087Y-136553543D01*
X99309243Y-136494284D01*
X99516749Y-136397523D01*
X99704300Y-136266198D01*
X99866198Y-136104300D01*
X99997523Y-135916749D01*
X100015805Y-135877543D01*
X100062721Y-135824258D01*
X100130998Y-135804796D01*
X100198958Y-135825337D01*
X100244195Y-135877543D01*
X100262477Y-135916749D01*
X100393802Y-136104300D01*
X100555700Y-136266198D01*
X100743251Y-136397523D01*
X100950757Y-136494284D01*
X101171913Y-136553543D01*
X101400000Y-136573498D01*
X101628087Y-136553543D01*
X101849243Y-136494284D01*
X102056749Y-136397523D01*
X102244300Y-136266198D01*
X102406198Y-136104300D01*
X102537523Y-135916749D01*
X102555805Y-135877543D01*
X102602721Y-135824258D01*
X102670998Y-135804796D01*
X102738958Y-135825337D01*
X102784195Y-135877543D01*
X102802477Y-135916749D01*
X102933802Y-136104300D01*
X103095700Y-136266198D01*
X103283251Y-136397523D01*
X103490757Y-136494284D01*
X103711913Y-136553543D01*
X103940000Y-136573498D01*
X104168087Y-136553543D01*
X104389243Y-136494284D01*
X104596749Y-136397523D01*
X104784300Y-136266198D01*
X104946198Y-136104300D01*
X105077523Y-135916749D01*
X105095805Y-135877543D01*
X105142721Y-135824258D01*
X105210998Y-135804796D01*
X105278958Y-135825337D01*
X105324195Y-135877543D01*
X105342477Y-135916749D01*
X105473802Y-136104300D01*
X105635700Y-136266198D01*
X105823251Y-136397523D01*
X106030757Y-136494284D01*
X106251913Y-136553543D01*
X106480000Y-136573498D01*
X106708087Y-136553543D01*
X106929243Y-136494284D01*
X107136749Y-136397523D01*
X107324300Y-136266198D01*
X107486198Y-136104300D01*
X107617523Y-135916749D01*
X107635805Y-135877543D01*
X107682721Y-135824258D01*
X107750998Y-135804796D01*
X107818958Y-135825337D01*
X107864195Y-135877543D01*
X107882477Y-135916749D01*
X108013802Y-136104300D01*
X108175700Y-136266198D01*
X108363251Y-136397523D01*
X108570757Y-136494284D01*
X108791913Y-136553543D01*
X109020000Y-136573498D01*
X109248087Y-136553543D01*
X109469243Y-136494284D01*
X109676749Y-136397523D01*
X109864300Y-136266198D01*
X110026198Y-136104300D01*
X110157523Y-135916749D01*
X110175805Y-135877543D01*
X110222721Y-135824258D01*
X110290998Y-135804796D01*
X110358958Y-135825337D01*
X110404195Y-135877543D01*
X110422477Y-135916749D01*
X110553802Y-136104300D01*
X110715700Y-136266198D01*
X110903251Y-136397523D01*
X111110757Y-136494284D01*
X111331913Y-136553543D01*
X111560000Y-136573498D01*
X111788087Y-136553543D01*
X112009243Y-136494284D01*
X112216749Y-136397523D01*
X112404300Y-136266198D01*
X112566198Y-136104300D01*
X112697523Y-135916749D01*
X112794284Y-135709243D01*
X112853543Y-135488087D01*
X112873498Y-135260000D01*
X112853543Y-135031913D01*
X112844992Y-135000000D01*
X116986902Y-135000000D01*
X117007274Y-135349788D01*
X117007274Y-135349794D01*
X117068120Y-135694868D01*
X117168615Y-136030541D01*
X117168617Y-136030547D01*
X117307395Y-136352273D01*
X117307398Y-136352278D01*
X117482586Y-136655712D01*
X117482596Y-136655728D01*
X117691836Y-136936785D01*
X117691840Y-136936790D01*
X117697741Y-136943045D01*
X117697744Y-136943045D01*
X118953940Y-135686849D01*
X119046554Y-135814320D01*
X119185680Y-135953446D01*
X119313149Y-136046058D01*
X118060215Y-137298992D01*
X118060216Y-137298993D01*
X118200696Y-137416871D01*
X118493449Y-137609417D01*
X118806577Y-137766676D01*
X118806582Y-137766678D01*
X119135825Y-137886513D01*
X119135830Y-137886514D01*
X119476779Y-137967321D01*
X119476785Y-137967322D01*
X119824801Y-138008000D01*
X120175199Y-138008000D01*
X120523214Y-137967322D01*
X120523220Y-137967321D01*
X120864169Y-137886514D01*
X120864174Y-137886513D01*
X121193417Y-137766678D01*
X121193422Y-137766676D01*
X121506550Y-137609417D01*
X121799299Y-137416874D01*
X121939783Y-137298992D01*
X120686850Y-136046059D01*
X120814320Y-135953446D01*
X120953446Y-135814320D01*
X121046059Y-135686850D01*
X122302255Y-136943046D01*
X122302256Y-136943045D01*
X122308164Y-136936785D01*
X122308166Y-136936782D01*
X122517395Y-136655739D01*
X122517413Y-136655712D01*
X122692601Y-136352278D01*
X122692604Y-136352273D01*
X122831382Y-136030547D01*
X122831384Y-136030541D01*
X122931879Y-135694868D01*
X122992725Y-135349794D01*
X122992725Y-135349788D01*
X123013097Y-135000000D01*
X122992725Y-134650211D01*
X122992725Y-134650205D01*
X122931879Y-134305131D01*
X122831384Y-133969458D01*
X122831382Y-133969452D01*
X122692604Y-133647726D01*
X122692601Y-133647721D01*
X122517413Y-133344287D01*
X122517403Y-133344271D01*
X122308165Y-133063216D01*
X122302255Y-133056952D01*
X121046058Y-134313149D01*
X120953446Y-134185680D01*
X120814320Y-134046554D01*
X120686849Y-133953940D01*
X121939783Y-132701006D01*
X121939783Y-132701005D01*
X121799298Y-132583125D01*
X121506550Y-132390582D01*
X121193422Y-132233323D01*
X121193417Y-132233321D01*
X120864174Y-132113486D01*
X120864169Y-132113485D01*
X120523220Y-132032678D01*
X120523214Y-132032677D01*
X120175199Y-131992000D01*
X119824801Y-131992000D01*
X119476785Y-132032677D01*
X119476779Y-132032678D01*
X119135830Y-132113485D01*
X119135825Y-132113486D01*
X118806582Y-132233321D01*
X118806577Y-132233323D01*
X118493449Y-132390582D01*
X118200701Y-132583125D01*
X118060215Y-132701005D01*
X119313150Y-133953940D01*
X119185680Y-134046554D01*
X119046554Y-134185680D01*
X118953940Y-134313149D01*
X117697744Y-133056953D01*
X117697743Y-133056953D01*
X117691831Y-133063220D01*
X117691827Y-133063224D01*
X117482604Y-133344260D01*
X117482586Y-133344287D01*
X117307398Y-133647721D01*
X117307395Y-133647726D01*
X117168617Y-133969452D01*
X117168615Y-133969458D01*
X117068120Y-134305131D01*
X117007274Y-134650205D01*
X117007274Y-134650211D01*
X116986902Y-135000000D01*
X112844992Y-135000000D01*
X112794284Y-134810757D01*
X112697523Y-134603251D01*
X112566198Y-134415700D01*
X112404300Y-134253802D01*
X112216749Y-134122477D01*
X112009246Y-134025717D01*
X112009240Y-134025715D01*
X111915771Y-134000670D01*
X111788087Y-133966457D01*
X111560000Y-133946502D01*
X111331913Y-133966457D01*
X111110759Y-134025715D01*
X111110753Y-134025717D01*
X110903250Y-134122477D01*
X110715703Y-134253799D01*
X110715697Y-134253804D01*
X110553804Y-134415697D01*
X110553799Y-134415703D01*
X110422477Y-134603250D01*
X110404195Y-134642457D01*
X110357278Y-134695742D01*
X110289001Y-134715203D01*
X110221041Y-134694661D01*
X110175805Y-134642457D01*
X110173894Y-134638359D01*
X110157523Y-134603251D01*
X110026198Y-134415700D01*
X109864300Y-134253802D01*
X109676749Y-134122477D01*
X109469246Y-134025717D01*
X109469240Y-134025715D01*
X109375771Y-134000670D01*
X109248087Y-133966457D01*
X109020000Y-133946502D01*
X108791913Y-133966457D01*
X108570759Y-134025715D01*
X108570753Y-134025717D01*
X108363250Y-134122477D01*
X108175703Y-134253799D01*
X108175697Y-134253804D01*
X108013804Y-134415697D01*
X108013799Y-134415703D01*
X107882477Y-134603250D01*
X107864195Y-134642457D01*
X107817278Y-134695742D01*
X107749001Y-134715203D01*
X107681041Y-134694661D01*
X107635805Y-134642457D01*
X107633894Y-134638359D01*
X107617523Y-134603251D01*
X107486198Y-134415700D01*
X107324300Y-134253802D01*
X107136749Y-134122477D01*
X106929246Y-134025717D01*
X106929240Y-134025715D01*
X106835771Y-134000670D01*
X106708087Y-133966457D01*
X106480000Y-133946502D01*
X106251913Y-133966457D01*
X106030759Y-134025715D01*
X106030753Y-134025717D01*
X105823250Y-134122477D01*
X105635703Y-134253799D01*
X105635697Y-134253804D01*
X105473804Y-134415697D01*
X105473799Y-134415703D01*
X105342477Y-134603250D01*
X105324195Y-134642457D01*
X105277278Y-134695742D01*
X105209001Y-134715203D01*
X105141041Y-134694661D01*
X105095805Y-134642457D01*
X105093894Y-134638359D01*
X105077523Y-134603251D01*
X104946198Y-134415700D01*
X104784300Y-134253802D01*
X104596749Y-134122477D01*
X104389246Y-134025717D01*
X104389240Y-134025715D01*
X104295771Y-134000670D01*
X104168087Y-133966457D01*
X103940000Y-133946502D01*
X103711913Y-133966457D01*
X103490759Y-134025715D01*
X103490753Y-134025717D01*
X103283250Y-134122477D01*
X103095703Y-134253799D01*
X103095697Y-134253804D01*
X102933804Y-134415697D01*
X102933799Y-134415703D01*
X102802477Y-134603250D01*
X102784195Y-134642457D01*
X102737278Y-134695742D01*
X102669001Y-134715203D01*
X102601041Y-134694661D01*
X102555805Y-134642457D01*
X102553894Y-134638359D01*
X102537523Y-134603251D01*
X102406198Y-134415700D01*
X102244300Y-134253802D01*
X102056749Y-134122477D01*
X101849246Y-134025717D01*
X101849240Y-134025715D01*
X101755771Y-134000670D01*
X101628087Y-133966457D01*
X101400000Y-133946502D01*
X101171913Y-133966457D01*
X100950759Y-134025715D01*
X100950753Y-134025717D01*
X100743250Y-134122477D01*
X100555703Y-134253799D01*
X100555697Y-134253804D01*
X100393804Y-134415697D01*
X100393799Y-134415703D01*
X100262477Y-134603250D01*
X100244195Y-134642457D01*
X100197278Y-134695742D01*
X100129001Y-134715203D01*
X100061041Y-134694661D01*
X100015805Y-134642457D01*
X100013894Y-134638359D01*
X99997523Y-134603251D01*
X99866198Y-134415700D01*
X99704300Y-134253802D01*
X99516749Y-134122477D01*
X99309246Y-134025717D01*
X99309240Y-134025715D01*
X99215771Y-134000670D01*
X99088087Y-133966457D01*
X98860000Y-133946502D01*
X98631913Y-133966457D01*
X98410759Y-134025715D01*
X98410753Y-134025717D01*
X98203250Y-134122477D01*
X98015703Y-134253799D01*
X98015697Y-134253804D01*
X97853804Y-134415697D01*
X97853799Y-134415703D01*
X97722477Y-134603250D01*
X97704195Y-134642457D01*
X97657278Y-134695742D01*
X97589001Y-134715203D01*
X97521041Y-134694661D01*
X97475805Y-134642457D01*
X97473894Y-134638359D01*
X97457523Y-134603251D01*
X97326198Y-134415700D01*
X97164300Y-134253802D01*
X96982229Y-134126314D01*
X96937901Y-134070857D01*
X96928500Y-134023101D01*
X96928500Y-128037639D01*
X96948502Y-127969518D01*
X96965405Y-127948544D01*
X101886916Y-123027033D01*
X101886922Y-123027027D01*
X101967032Y-122888273D01*
X102008500Y-122733510D01*
X102008500Y-122573290D01*
X102008500Y-111904239D01*
X102028502Y-111836118D01*
X102045405Y-111815144D01*
X115486915Y-98373634D01*
X115486921Y-98373628D01*
X115567031Y-98234873D01*
X115567032Y-98234872D01*
X115608500Y-98080111D01*
X115608500Y-68114820D01*
X115628502Y-68046699D01*
X115662226Y-68011609D01*
X115779776Y-67929301D01*
X115929301Y-67779776D01*
X116050589Y-67606558D01*
X116139956Y-67414910D01*
X116194686Y-67210655D01*
X116213116Y-67000000D01*
X116194686Y-66789345D01*
X116139956Y-66585090D01*
X116050589Y-66393442D01*
X116050588Y-66393441D01*
X116050587Y-66393438D01*
X115929307Y-66220232D01*
X115929304Y-66220228D01*
X115929301Y-66220224D01*
X115779776Y-66070699D01*
X115779772Y-66070696D01*
X115779767Y-66070692D01*
X115606561Y-65949412D01*
X115414912Y-65860045D01*
X115414908Y-65860043D01*
X115320113Y-65834643D01*
X115210655Y-65805314D01*
X115000000Y-65786884D01*
X114789345Y-65805314D01*
X114744075Y-65817444D01*
X114585091Y-65860043D01*
X114585087Y-65860045D01*
X114393438Y-65949412D01*
X114220232Y-66070692D01*
X114220221Y-66070701D01*
X114070701Y-66220221D01*
X114070692Y-66220232D01*
X113949412Y-66393438D01*
X113860045Y-66585087D01*
X113860043Y-66585091D01*
X113859997Y-66585264D01*
X113805314Y-66789345D01*
X113786884Y-67000000D01*
X113805314Y-67210655D01*
X113823914Y-67280070D01*
X113860043Y-67414908D01*
X113860045Y-67414912D01*
X113949412Y-67606561D01*
X114070692Y-67779767D01*
X114070696Y-67779772D01*
X114070699Y-67779776D01*
X114220224Y-67929301D01*
X114337771Y-68011608D01*
X114382099Y-68067063D01*
X114391500Y-68114820D01*
X114391500Y-97695760D01*
X114371498Y-97763881D01*
X114354595Y-97784855D01*
X100913083Y-111226366D01*
X100913075Y-111226376D01*
X100832967Y-111365127D01*
X100832968Y-111365128D01*
X100791500Y-111519890D01*
X100791500Y-122349160D01*
X100771498Y-122417281D01*
X100754595Y-122438255D01*
X95833083Y-127359766D01*
X95833075Y-127359776D01*
X95752967Y-127498527D01*
X95752968Y-127498528D01*
X95711500Y-127653290D01*
X95711500Y-134023101D01*
X95691498Y-134091222D01*
X95657771Y-134126314D01*
X95475703Y-134253799D01*
X95475697Y-134253804D01*
X95313804Y-134415697D01*
X95313799Y-134415703D01*
X95182477Y-134603250D01*
X95164195Y-134642457D01*
X95117278Y-134695742D01*
X95049001Y-134715203D01*
X94981041Y-134694661D01*
X94935805Y-134642457D01*
X94933894Y-134638359D01*
X94917523Y-134603251D01*
X94786198Y-134415700D01*
X94624300Y-134253802D01*
X94436749Y-134122477D01*
X94229246Y-134025717D01*
X94229240Y-134025715D01*
X94135771Y-134000670D01*
X94008087Y-133966457D01*
X93780000Y-133946502D01*
X93551913Y-133966457D01*
X93330759Y-134025715D01*
X93330753Y-134025717D01*
X93123250Y-134122477D01*
X92935703Y-134253799D01*
X92935697Y-134253804D01*
X92773804Y-134415697D01*
X92773799Y-134415703D01*
X92642477Y-134603250D01*
X92545717Y-134810753D01*
X92545715Y-134810759D01*
X92521368Y-134901623D01*
X92486457Y-135031913D01*
X92466502Y-135260000D01*
X91033498Y-135260000D01*
X91013543Y-135031913D01*
X90954284Y-134810757D01*
X90857523Y-134603251D01*
X90726198Y-134415700D01*
X90564300Y-134253802D01*
X90376749Y-134122477D01*
X90169246Y-134025717D01*
X90169240Y-134025715D01*
X90075771Y-134000670D01*
X89948087Y-133966457D01*
X89720000Y-133946502D01*
X89491913Y-133966457D01*
X89270759Y-134025715D01*
X89270753Y-134025717D01*
X89063250Y-134122477D01*
X88875703Y-134253799D01*
X88875697Y-134253804D01*
X88713804Y-134415697D01*
X88713799Y-134415703D01*
X88582477Y-134603250D01*
X88564195Y-134642457D01*
X88517278Y-134695742D01*
X88449001Y-134715203D01*
X88381041Y-134694661D01*
X88335805Y-134642457D01*
X88333894Y-134638359D01*
X88317523Y-134603251D01*
X88186198Y-134415700D01*
X88024300Y-134253802D01*
X87836749Y-134122477D01*
X87629246Y-134025717D01*
X87629240Y-134025715D01*
X87535771Y-134000670D01*
X87408087Y-133966457D01*
X87180000Y-133946502D01*
X86951913Y-133966457D01*
X86730759Y-134025715D01*
X86730753Y-134025717D01*
X86523250Y-134122477D01*
X86335703Y-134253799D01*
X86335697Y-134253804D01*
X86173804Y-134415697D01*
X86173799Y-134415703D01*
X86042477Y-134603250D01*
X86024195Y-134642457D01*
X85977278Y-134695742D01*
X85909001Y-134715203D01*
X85841041Y-134694661D01*
X85795805Y-134642457D01*
X85793894Y-134638359D01*
X85777523Y-134603251D01*
X85646198Y-134415700D01*
X85484300Y-134253802D01*
X85296749Y-134122477D01*
X85089246Y-134025717D01*
X85089240Y-134025715D01*
X84995771Y-134000670D01*
X84868087Y-133966457D01*
X84640000Y-133946502D01*
X84411913Y-133966457D01*
X84190759Y-134025715D01*
X84190753Y-134025717D01*
X83983250Y-134122477D01*
X83795703Y-134253799D01*
X83795697Y-134253804D01*
X83633804Y-134415697D01*
X83633799Y-134415703D01*
X83502477Y-134603250D01*
X83484195Y-134642457D01*
X83437278Y-134695742D01*
X83369001Y-134715203D01*
X83301041Y-134694661D01*
X83255805Y-134642457D01*
X83253894Y-134638359D01*
X83237523Y-134603251D01*
X83106198Y-134415700D01*
X82944300Y-134253802D01*
X82756749Y-134122477D01*
X82549246Y-134025717D01*
X82549240Y-134025715D01*
X82455771Y-134000670D01*
X82328087Y-133966457D01*
X82100000Y-133946502D01*
X81871913Y-133966457D01*
X81650759Y-134025715D01*
X81650753Y-134025717D01*
X81443250Y-134122477D01*
X81255703Y-134253799D01*
X81255697Y-134253804D01*
X81093804Y-134415697D01*
X81093799Y-134415703D01*
X80962477Y-134603250D01*
X80944195Y-134642457D01*
X80897278Y-134695742D01*
X80829001Y-134715203D01*
X80761041Y-134694661D01*
X80715805Y-134642457D01*
X80713894Y-134638359D01*
X80697523Y-134603251D01*
X80566198Y-134415700D01*
X80404300Y-134253802D01*
X80216749Y-134122477D01*
X80009246Y-134025717D01*
X80009240Y-134025715D01*
X79915771Y-134000670D01*
X79788087Y-133966457D01*
X79560000Y-133946502D01*
X79331913Y-133966457D01*
X79110759Y-134025715D01*
X79110753Y-134025717D01*
X78903250Y-134122477D01*
X78715703Y-134253799D01*
X78715697Y-134253804D01*
X78553804Y-134415697D01*
X78553799Y-134415703D01*
X78422477Y-134603250D01*
X78404195Y-134642457D01*
X78357278Y-134695742D01*
X78289001Y-134715203D01*
X78221041Y-134694661D01*
X78175805Y-134642457D01*
X78173894Y-134638359D01*
X78157523Y-134603251D01*
X78026198Y-134415700D01*
X77864300Y-134253802D01*
X77676749Y-134122477D01*
X77469246Y-134025717D01*
X77469240Y-134025715D01*
X77375771Y-134000670D01*
X77248087Y-133966457D01*
X77020000Y-133946502D01*
X76791913Y-133966457D01*
X76570759Y-134025715D01*
X76570753Y-134025717D01*
X76363250Y-134122477D01*
X76175703Y-134253799D01*
X76175697Y-134253804D01*
X76013804Y-134415697D01*
X76013799Y-134415703D01*
X75882475Y-134603252D01*
X75863918Y-134643049D01*
X75817001Y-134696333D01*
X75748724Y-134715794D01*
X75680764Y-134695252D01*
X75635530Y-134643049D01*
X75617089Y-134603503D01*
X75485815Y-134416025D01*
X75485810Y-134416019D01*
X75323980Y-134254189D01*
X75323974Y-134254184D01*
X75136498Y-134122912D01*
X74929073Y-134026188D01*
X74929071Y-134026187D01*
X74734000Y-133973917D01*
X74734000Y-134829297D01*
X74672993Y-134794075D01*
X74545826Y-134760000D01*
X74414174Y-134760000D01*
X74287007Y-134794075D01*
X74226000Y-134829297D01*
X74226000Y-133973917D01*
X74225999Y-133973917D01*
X74030928Y-134026187D01*
X74030926Y-134026188D01*
X73823501Y-134122912D01*
X73636025Y-134254184D01*
X73636019Y-134254189D01*
X73474189Y-134416019D01*
X73474184Y-134416025D01*
X73342910Y-134603504D01*
X73324468Y-134643051D01*
X73277550Y-134696335D01*
X73209272Y-134715794D01*
X73141313Y-134695250D01*
X73096080Y-134643047D01*
X73077641Y-134603504D01*
X73077523Y-134603251D01*
X72946198Y-134415700D01*
X72784300Y-134253802D01*
X72596749Y-134122477D01*
X72389246Y-134025717D01*
X72389240Y-134025715D01*
X72295771Y-134000670D01*
X72168087Y-133966457D01*
X71940000Y-133946502D01*
X71711913Y-133966457D01*
X71490759Y-134025715D01*
X71490753Y-134025717D01*
X71283250Y-134122477D01*
X71095703Y-134253799D01*
X71095697Y-134253804D01*
X70933804Y-134415697D01*
X70933799Y-134415703D01*
X70802477Y-134603250D01*
X70784195Y-134642457D01*
X70737278Y-134695742D01*
X70669001Y-134715203D01*
X70601041Y-134694661D01*
X70555805Y-134642457D01*
X70553894Y-134638359D01*
X70537523Y-134603251D01*
X70406198Y-134415700D01*
X70244300Y-134253802D01*
X70056749Y-134122477D01*
X69849246Y-134025717D01*
X69849240Y-134025715D01*
X69755771Y-134000670D01*
X69628087Y-133966457D01*
X69400000Y-133946502D01*
X69171913Y-133966457D01*
X68950759Y-134025715D01*
X68950753Y-134025717D01*
X68743250Y-134122477D01*
X68555703Y-134253799D01*
X68555697Y-134253804D01*
X68393804Y-134415697D01*
X68393799Y-134415703D01*
X68262477Y-134603250D01*
X68244195Y-134642457D01*
X68197278Y-134695742D01*
X68129001Y-134715203D01*
X68061041Y-134694661D01*
X68015805Y-134642457D01*
X68013894Y-134638359D01*
X67997523Y-134603251D01*
X67866198Y-134415700D01*
X67704300Y-134253802D01*
X67516749Y-134122477D01*
X67309246Y-134025717D01*
X67309240Y-134025715D01*
X67215771Y-134000670D01*
X67088087Y-133966457D01*
X66860000Y-133946502D01*
X66631913Y-133966457D01*
X66410759Y-134025715D01*
X66410753Y-134025717D01*
X66203250Y-134122477D01*
X66015703Y-134253799D01*
X66015697Y-134253804D01*
X65853804Y-134415697D01*
X65853799Y-134415703D01*
X65722477Y-134603250D01*
X65625717Y-134810753D01*
X65625715Y-134810759D01*
X65601368Y-134901623D01*
X65566457Y-135031913D01*
X65546502Y-135260000D01*
X60350065Y-135260000D01*
X60345560Y-86151350D01*
X74691500Y-86151350D01*
X74691500Y-87848649D01*
X74698009Y-87909196D01*
X74698011Y-87909204D01*
X74749110Y-88046202D01*
X74749112Y-88046207D01*
X74836738Y-88163261D01*
X74953792Y-88250887D01*
X74953794Y-88250888D01*
X74953796Y-88250889D01*
X75012875Y-88272924D01*
X75090795Y-88301988D01*
X75090803Y-88301990D01*
X75151350Y-88308499D01*
X75151355Y-88308499D01*
X75151362Y-88308500D01*
X75151368Y-88308500D01*
X76848632Y-88308500D01*
X76848638Y-88308500D01*
X76848645Y-88308499D01*
X76848649Y-88308499D01*
X76909196Y-88301990D01*
X76909199Y-88301989D01*
X76909201Y-88301989D01*
X77046204Y-88250889D01*
X77068389Y-88234282D01*
X77163261Y-88163261D01*
X77250887Y-88046207D01*
X77250887Y-88046206D01*
X77250889Y-88046204D01*
X77301989Y-87909201D01*
X77302998Y-87899808D01*
X77330163Y-87834215D01*
X77388478Y-87793721D01*
X77459429Y-87791182D01*
X77520490Y-87827405D01*
X77531487Y-87840995D01*
X77533796Y-87844292D01*
X77533802Y-87844300D01*
X77695700Y-88006198D01*
X77883251Y-88137523D01*
X78090757Y-88234284D01*
X78311913Y-88293543D01*
X78540000Y-88313498D01*
X78768087Y-88293543D01*
X78989243Y-88234284D01*
X79196749Y-88137523D01*
X79384300Y-88006198D01*
X79546198Y-87844300D01*
X79677523Y-87656749D01*
X79695805Y-87617543D01*
X79742721Y-87564258D01*
X79810998Y-87544796D01*
X79878958Y-87565337D01*
X79924195Y-87617543D01*
X79942477Y-87656749D01*
X80073802Y-87844300D01*
X80235700Y-88006198D01*
X80423251Y-88137523D01*
X80630757Y-88234284D01*
X80851913Y-88293543D01*
X81080000Y-88313498D01*
X81308087Y-88293543D01*
X81529243Y-88234284D01*
X81736749Y-88137523D01*
X81924300Y-88006198D01*
X82086198Y-87844300D01*
X82217523Y-87656749D01*
X82235805Y-87617543D01*
X82282721Y-87564258D01*
X82350998Y-87544796D01*
X82418958Y-87565337D01*
X82464195Y-87617543D01*
X82482477Y-87656749D01*
X82613802Y-87844300D01*
X82775700Y-88006198D01*
X82963251Y-88137523D01*
X83170757Y-88234284D01*
X83391913Y-88293543D01*
X83620000Y-88313498D01*
X83848087Y-88293543D01*
X84069243Y-88234284D01*
X84276749Y-88137523D01*
X84464300Y-88006198D01*
X84626198Y-87844300D01*
X84757523Y-87656749D01*
X84775805Y-87617543D01*
X84822721Y-87564258D01*
X84890998Y-87544796D01*
X84958958Y-87565337D01*
X85004195Y-87617543D01*
X85022477Y-87656749D01*
X85153802Y-87844300D01*
X85315700Y-88006198D01*
X85503251Y-88137523D01*
X85710757Y-88234284D01*
X85931913Y-88293543D01*
X86160000Y-88313498D01*
X86388087Y-88293543D01*
X86609243Y-88234284D01*
X86816749Y-88137523D01*
X87004300Y-88006198D01*
X87166198Y-87844300D01*
X87297523Y-87656749D01*
X87316081Y-87616950D01*
X87362995Y-87563667D01*
X87431272Y-87544205D01*
X87499232Y-87564745D01*
X87544469Y-87616949D01*
X87562911Y-87656497D01*
X87694184Y-87843974D01*
X87694189Y-87843980D01*
X87856019Y-88005810D01*
X87856025Y-88005815D01*
X88043501Y-88137087D01*
X88250926Y-88233811D01*
X88250931Y-88233813D01*
X88446000Y-88286081D01*
X88446000Y-87430702D01*
X88507007Y-87465925D01*
X88634174Y-87500000D01*
X88765826Y-87500000D01*
X88892993Y-87465925D01*
X88954000Y-87430702D01*
X88954000Y-88286081D01*
X89149068Y-88233813D01*
X89149073Y-88233811D01*
X89356498Y-88137087D01*
X89543974Y-88005815D01*
X89543980Y-88005810D01*
X89705810Y-87843980D01*
X89705815Y-87843974D01*
X89837087Y-87656498D01*
X89855805Y-87616359D01*
X89902722Y-87563074D01*
X89970999Y-87543613D01*
X90038959Y-87564155D01*
X90084195Y-87616359D01*
X90102912Y-87656498D01*
X90234184Y-87843974D01*
X90234189Y-87843980D01*
X90396019Y-88005810D01*
X90396025Y-88005815D01*
X90583501Y-88137087D01*
X90790926Y-88233811D01*
X90790931Y-88233813D01*
X90986000Y-88286081D01*
X90986000Y-87430702D01*
X91047007Y-87465925D01*
X91174174Y-87500000D01*
X91305826Y-87500000D01*
X91432993Y-87465925D01*
X91494000Y-87430702D01*
X91494000Y-88286081D01*
X91689068Y-88233813D01*
X91689073Y-88233811D01*
X91896498Y-88137087D01*
X92083974Y-88005815D01*
X92083980Y-88005810D01*
X92245810Y-87843980D01*
X92245815Y-87843974D01*
X92377087Y-87656498D01*
X92395529Y-87616951D01*
X92442446Y-87563666D01*
X92510723Y-87544205D01*
X92578683Y-87564747D01*
X92623919Y-87616951D01*
X92642477Y-87656749D01*
X92773802Y-87844300D01*
X92935700Y-88006198D01*
X93123251Y-88137523D01*
X93330757Y-88234284D01*
X93551913Y-88293543D01*
X93780000Y-88313498D01*
X94008087Y-88293543D01*
X94229243Y-88234284D01*
X94436749Y-88137523D01*
X94624300Y-88006198D01*
X94786198Y-87844300D01*
X94917523Y-87656749D01*
X95014284Y-87449243D01*
X95073543Y-87228087D01*
X95093498Y-87000000D01*
X95073543Y-86771913D01*
X95014284Y-86550757D01*
X94917523Y-86343251D01*
X94786198Y-86155700D01*
X94624300Y-85993802D01*
X94436749Y-85862477D01*
X94229246Y-85765717D01*
X94229240Y-85765715D01*
X94135771Y-85740670D01*
X94008087Y-85706457D01*
X93780000Y-85686502D01*
X93551913Y-85706457D01*
X93330759Y-85765715D01*
X93330753Y-85765717D01*
X93123250Y-85862477D01*
X92935703Y-85993799D01*
X92935697Y-85993804D01*
X92773804Y-86155697D01*
X92773799Y-86155703D01*
X92642475Y-86343252D01*
X92623918Y-86383049D01*
X92577001Y-86436333D01*
X92508724Y-86455794D01*
X92440764Y-86435252D01*
X92395530Y-86383049D01*
X92377089Y-86343503D01*
X92245815Y-86156025D01*
X92245810Y-86156019D01*
X92083980Y-85994189D01*
X92083974Y-85994184D01*
X91896498Y-85862912D01*
X91689073Y-85766188D01*
X91689071Y-85766187D01*
X91494000Y-85713917D01*
X91494000Y-86569297D01*
X91432993Y-86534075D01*
X91305826Y-86500000D01*
X91174174Y-86500000D01*
X91047007Y-86534075D01*
X90986000Y-86569297D01*
X90986000Y-85713917D01*
X90985999Y-85713917D01*
X90790928Y-85766187D01*
X90790926Y-85766188D01*
X90583501Y-85862912D01*
X90396025Y-85994184D01*
X90396019Y-85994189D01*
X90234189Y-86156019D01*
X90234184Y-86156025D01*
X90102910Y-86343503D01*
X90084194Y-86383641D01*
X90037277Y-86436925D01*
X89969000Y-86456386D01*
X89901040Y-86435844D01*
X89855806Y-86383641D01*
X89837089Y-86343503D01*
X89705815Y-86156025D01*
X89705810Y-86156019D01*
X89543980Y-85994189D01*
X89543974Y-85994184D01*
X89356498Y-85862912D01*
X89149073Y-85766188D01*
X89149071Y-85766187D01*
X88954000Y-85713917D01*
X88954000Y-86569297D01*
X88892993Y-86534075D01*
X88765826Y-86500000D01*
X88634174Y-86500000D01*
X88507007Y-86534075D01*
X88446000Y-86569297D01*
X88446000Y-85713917D01*
X88445999Y-85713917D01*
X88250928Y-85766187D01*
X88250926Y-85766188D01*
X88043501Y-85862912D01*
X87856025Y-85994184D01*
X87856019Y-85994189D01*
X87694189Y-86156019D01*
X87694184Y-86156025D01*
X87562910Y-86343504D01*
X87544468Y-86383051D01*
X87497550Y-86436335D01*
X87429272Y-86455794D01*
X87361313Y-86435250D01*
X87316080Y-86383047D01*
X87297641Y-86343504D01*
X87297523Y-86343251D01*
X87166198Y-86155700D01*
X87004300Y-85993802D01*
X86816749Y-85862477D01*
X86609246Y-85765717D01*
X86609240Y-85765715D01*
X86515771Y-85740670D01*
X86388087Y-85706457D01*
X86160000Y-85686502D01*
X85931913Y-85706457D01*
X85710759Y-85765715D01*
X85710753Y-85765717D01*
X85503250Y-85862477D01*
X85315703Y-85993799D01*
X85315697Y-85993804D01*
X85153804Y-86155697D01*
X85153799Y-86155703D01*
X85022477Y-86343250D01*
X85004195Y-86382457D01*
X84957278Y-86435742D01*
X84889001Y-86455203D01*
X84821041Y-86434661D01*
X84775805Y-86382457D01*
X84773894Y-86378359D01*
X84757523Y-86343251D01*
X84626198Y-86155700D01*
X84464300Y-85993802D01*
X84276749Y-85862477D01*
X84069246Y-85765717D01*
X84069240Y-85765715D01*
X83975771Y-85740670D01*
X83848087Y-85706457D01*
X83620000Y-85686502D01*
X83391913Y-85706457D01*
X83170759Y-85765715D01*
X83170753Y-85765717D01*
X82963250Y-85862477D01*
X82775703Y-85993799D01*
X82775697Y-85993804D01*
X82613804Y-86155697D01*
X82613799Y-86155703D01*
X82482477Y-86343250D01*
X82464195Y-86382457D01*
X82417278Y-86435742D01*
X82349001Y-86455203D01*
X82281041Y-86434661D01*
X82235805Y-86382457D01*
X82233894Y-86378359D01*
X82217523Y-86343251D01*
X82086198Y-86155700D01*
X81924300Y-85993802D01*
X81736749Y-85862477D01*
X81529246Y-85765717D01*
X81529240Y-85765715D01*
X81435771Y-85740670D01*
X81308087Y-85706457D01*
X81080000Y-85686502D01*
X80851913Y-85706457D01*
X80630759Y-85765715D01*
X80630753Y-85765717D01*
X80423250Y-85862477D01*
X80235703Y-85993799D01*
X80235697Y-85993804D01*
X80073804Y-86155697D01*
X80073799Y-86155703D01*
X79942477Y-86343250D01*
X79924195Y-86382457D01*
X79877278Y-86435742D01*
X79809001Y-86455203D01*
X79741041Y-86434661D01*
X79695805Y-86382457D01*
X79693894Y-86378359D01*
X79677523Y-86343251D01*
X79546198Y-86155700D01*
X79384300Y-85993802D01*
X79196749Y-85862477D01*
X78989246Y-85765717D01*
X78989240Y-85765715D01*
X78895771Y-85740670D01*
X78768087Y-85706457D01*
X78540000Y-85686502D01*
X78311913Y-85706457D01*
X78090759Y-85765715D01*
X78090753Y-85765717D01*
X77883250Y-85862477D01*
X77695703Y-85993799D01*
X77695697Y-85993804D01*
X77533804Y-86155697D01*
X77533795Y-86155708D01*
X77531483Y-86159010D01*
X77476021Y-86203333D01*
X77405401Y-86210635D01*
X77342044Y-86178598D01*
X77306065Y-86117393D01*
X77302999Y-86100198D01*
X77301989Y-86090799D01*
X77250889Y-85953796D01*
X77250888Y-85953794D01*
X77250887Y-85953792D01*
X77163261Y-85836738D01*
X77046207Y-85749112D01*
X77046202Y-85749110D01*
X76909204Y-85698011D01*
X76909196Y-85698009D01*
X76848649Y-85691500D01*
X76848638Y-85691500D01*
X75151362Y-85691500D01*
X75151350Y-85691500D01*
X75090803Y-85698009D01*
X75090795Y-85698011D01*
X74953797Y-85749110D01*
X74953792Y-85749112D01*
X74836738Y-85836738D01*
X74749112Y-85953792D01*
X74749110Y-85953797D01*
X74698011Y-86090795D01*
X74698009Y-86090803D01*
X74691500Y-86151350D01*
X60345560Y-86151350D01*
X60345500Y-85500335D01*
X60345500Y-85489438D01*
X60345499Y-85489437D01*
X60345499Y-85489436D01*
X60338029Y-85481967D01*
X60330562Y-85474500D01*
X60330561Y-85474500D01*
X60330560Y-85474499D01*
X60319997Y-85474500D01*
X40151500Y-85474500D01*
X40083379Y-85454498D01*
X40036886Y-85400842D01*
X40025500Y-85348500D01*
X40025500Y-81500000D01*
X41986902Y-81500000D01*
X42007274Y-81849788D01*
X42007274Y-81849794D01*
X42068120Y-82194868D01*
X42168615Y-82530541D01*
X42168617Y-82530547D01*
X42307395Y-82852273D01*
X42307398Y-82852278D01*
X42482586Y-83155712D01*
X42482596Y-83155728D01*
X42691836Y-83436785D01*
X42691840Y-83436790D01*
X42697741Y-83443045D01*
X42697744Y-83443045D01*
X43953940Y-82186849D01*
X44046554Y-82314320D01*
X44185680Y-82453446D01*
X44313149Y-82546058D01*
X43060215Y-83798992D01*
X43060216Y-83798993D01*
X43200696Y-83916871D01*
X43493449Y-84109417D01*
X43806577Y-84266676D01*
X43806582Y-84266678D01*
X44135825Y-84386513D01*
X44135830Y-84386514D01*
X44476779Y-84467321D01*
X44476785Y-84467322D01*
X44824801Y-84508000D01*
X45175199Y-84508000D01*
X45523214Y-84467322D01*
X45523220Y-84467321D01*
X45864169Y-84386514D01*
X45864174Y-84386513D01*
X46193417Y-84266678D01*
X46193422Y-84266676D01*
X46506550Y-84109417D01*
X46799299Y-83916874D01*
X46939783Y-83798992D01*
X45686850Y-82546059D01*
X45814320Y-82453446D01*
X45953446Y-82314320D01*
X46046059Y-82186850D01*
X47302255Y-83443046D01*
X47302256Y-83443045D01*
X47308164Y-83436785D01*
X47308166Y-83436782D01*
X47517395Y-83155739D01*
X47517413Y-83155712D01*
X47692601Y-82852278D01*
X47692604Y-82852273D01*
X47831382Y-82530547D01*
X47831384Y-82530541D01*
X47931879Y-82194868D01*
X47992725Y-81849794D01*
X47992725Y-81849788D01*
X48013097Y-81500000D01*
X47992725Y-81150211D01*
X47992725Y-81150205D01*
X47931879Y-80805131D01*
X47831384Y-80469458D01*
X47831382Y-80469452D01*
X47692604Y-80147726D01*
X47692601Y-80147721D01*
X47517413Y-79844287D01*
X47517403Y-79844271D01*
X47308165Y-79563216D01*
X47302255Y-79556952D01*
X46046058Y-80813149D01*
X45953446Y-80685680D01*
X45814320Y-80546554D01*
X45686849Y-80453940D01*
X46939783Y-79201006D01*
X46939783Y-79201005D01*
X46799298Y-79083125D01*
X46506550Y-78890582D01*
X46193422Y-78733323D01*
X46193417Y-78733321D01*
X45864174Y-78613486D01*
X45864169Y-78613485D01*
X45523220Y-78532678D01*
X45523214Y-78532677D01*
X45175199Y-78492000D01*
X44824801Y-78492000D01*
X44476785Y-78532677D01*
X44476779Y-78532678D01*
X44135830Y-78613485D01*
X44135825Y-78613486D01*
X43806582Y-78733321D01*
X43806577Y-78733323D01*
X43493449Y-78890582D01*
X43200701Y-79083125D01*
X43060215Y-79201005D01*
X44313150Y-80453940D01*
X44185680Y-80546554D01*
X44046554Y-80685680D01*
X43953940Y-80813149D01*
X42697744Y-79556953D01*
X42697743Y-79556953D01*
X42691831Y-79563220D01*
X42691827Y-79563224D01*
X42482604Y-79844260D01*
X42482586Y-79844287D01*
X42307398Y-80147721D01*
X42307395Y-80147726D01*
X42168617Y-80469452D01*
X42168615Y-80469458D01*
X42068120Y-80805131D01*
X42007274Y-81150205D01*
X42007274Y-81150211D01*
X41986902Y-81500000D01*
X40025500Y-81500000D01*
X40025500Y-73874038D01*
X43811500Y-73874038D01*
X43811500Y-74125962D01*
X43840175Y-74307007D01*
X43850911Y-74374790D01*
X43928757Y-74614374D01*
X43928759Y-74614379D01*
X44043130Y-74838845D01*
X44191207Y-75042656D01*
X44191209Y-75042658D01*
X44191211Y-75042661D01*
X44369338Y-75220788D01*
X44369341Y-75220790D01*
X44369344Y-75220793D01*
X44573155Y-75368870D01*
X44797621Y-75483241D01*
X45037215Y-75561090D01*
X45286038Y-75600500D01*
X45286041Y-75600500D01*
X45537959Y-75600500D01*
X45537962Y-75600500D01*
X45786785Y-75561090D01*
X46026379Y-75483241D01*
X46250845Y-75368870D01*
X46454656Y-75220793D01*
X46632793Y-75042656D01*
X46780870Y-74838845D01*
X46895241Y-74614379D01*
X46973090Y-74374785D01*
X47012500Y-74125962D01*
X47012500Y-73874038D01*
X46973090Y-73625215D01*
X46895241Y-73385621D01*
X46780870Y-73161155D01*
X46737457Y-73101402D01*
X49642000Y-73101402D01*
X49642000Y-73746000D01*
X50569297Y-73746000D01*
X50534075Y-73807007D01*
X50500000Y-73934174D01*
X50500000Y-74065826D01*
X50534075Y-74192993D01*
X50569297Y-74254000D01*
X49642000Y-74254000D01*
X49642000Y-74898597D01*
X49648505Y-74959093D01*
X49699555Y-75095964D01*
X49699555Y-75095965D01*
X49787095Y-75212904D01*
X49904034Y-75300444D01*
X50040906Y-75351494D01*
X50101402Y-75357999D01*
X50101415Y-75358000D01*
X50746000Y-75358000D01*
X50746000Y-74430702D01*
X50807007Y-74465925D01*
X50934174Y-74500000D01*
X51065826Y-74500000D01*
X51192993Y-74465925D01*
X51254000Y-74430702D01*
X51254000Y-75358000D01*
X51898585Y-75358000D01*
X51898597Y-75357999D01*
X51959093Y-75351494D01*
X52095964Y-75300444D01*
X52095965Y-75300444D01*
X52212904Y-75212904D01*
X52300444Y-75095965D01*
X52344618Y-74977530D01*
X52387165Y-74920694D01*
X52453685Y-74895883D01*
X52523059Y-74910974D01*
X52555372Y-74936222D01*
X52576427Y-74959093D01*
X52616762Y-75002908D01*
X52631892Y-75014684D01*
X52794424Y-75141189D01*
X52992426Y-75248342D01*
X52992427Y-75248342D01*
X52992428Y-75248343D01*
X53104227Y-75286723D01*
X53205365Y-75321444D01*
X53427431Y-75358500D01*
X53427435Y-75358500D01*
X53652565Y-75358500D01*
X53652569Y-75358500D01*
X53874635Y-75321444D01*
X54087574Y-75248342D01*
X54285576Y-75141189D01*
X54463240Y-75002906D01*
X54615722Y-74837268D01*
X54704518Y-74701354D01*
X54758520Y-74655268D01*
X54828868Y-74645692D01*
X54893225Y-74675669D01*
X54915480Y-74701353D01*
X54948607Y-74752058D01*
X55004275Y-74837265D01*
X55004279Y-74837270D01*
X55156762Y-75002908D01*
X55171892Y-75014684D01*
X55334424Y-75141189D01*
X55532426Y-75248342D01*
X55532427Y-75248342D01*
X55532428Y-75248343D01*
X55644227Y-75286723D01*
X55745365Y-75321444D01*
X55967431Y-75358500D01*
X55967435Y-75358500D01*
X56192565Y-75358500D01*
X56192569Y-75358500D01*
X56414635Y-75321444D01*
X56627574Y-75248342D01*
X56825576Y-75141189D01*
X57003240Y-75002906D01*
X57155722Y-74837268D01*
X57244518Y-74701354D01*
X57298520Y-74655268D01*
X57368868Y-74645692D01*
X57433225Y-74675669D01*
X57455480Y-74701353D01*
X57488607Y-74752058D01*
X57544275Y-74837265D01*
X57544279Y-74837270D01*
X57696762Y-75002908D01*
X57711892Y-75014684D01*
X57874424Y-75141189D01*
X58072426Y-75248342D01*
X58072427Y-75248342D01*
X58072428Y-75248343D01*
X58184227Y-75286723D01*
X58285365Y-75321444D01*
X58507431Y-75358500D01*
X58507435Y-75358500D01*
X58732565Y-75358500D01*
X58732569Y-75358500D01*
X58954635Y-75321444D01*
X59167574Y-75248342D01*
X59365576Y-75141189D01*
X59543240Y-75002906D01*
X59695722Y-74837268D01*
X59784518Y-74701354D01*
X59838520Y-74655268D01*
X59908868Y-74645692D01*
X59973225Y-74675669D01*
X59995480Y-74701353D01*
X60028607Y-74752058D01*
X60084275Y-74837265D01*
X60084279Y-74837270D01*
X60236762Y-75002908D01*
X60251892Y-75014684D01*
X60414424Y-75141189D01*
X60612426Y-75248342D01*
X60612427Y-75248342D01*
X60612428Y-75248343D01*
X60724227Y-75286723D01*
X60825365Y-75321444D01*
X61047431Y-75358500D01*
X61047435Y-75358500D01*
X61272565Y-75358500D01*
X61272569Y-75358500D01*
X61494635Y-75321444D01*
X61707574Y-75248342D01*
X61905576Y-75141189D01*
X62083240Y-75002906D01*
X62235722Y-74837268D01*
X62324518Y-74701354D01*
X62378520Y-74655268D01*
X62448868Y-74645692D01*
X62513225Y-74675669D01*
X62535480Y-74701353D01*
X62568607Y-74752058D01*
X62624275Y-74837265D01*
X62624279Y-74837270D01*
X62776762Y-75002908D01*
X62791892Y-75014684D01*
X62954424Y-75141189D01*
X63152426Y-75248342D01*
X63152427Y-75248342D01*
X63152428Y-75248343D01*
X63264227Y-75286723D01*
X63365365Y-75321444D01*
X63587431Y-75358500D01*
X63587435Y-75358500D01*
X63812565Y-75358500D01*
X63812569Y-75358500D01*
X64034635Y-75321444D01*
X64247574Y-75248342D01*
X64445576Y-75141189D01*
X64623240Y-75002906D01*
X64775722Y-74837268D01*
X64864518Y-74701354D01*
X64918520Y-74655268D01*
X64988868Y-74645692D01*
X65053225Y-74675669D01*
X65075480Y-74701353D01*
X65108607Y-74752058D01*
X65164275Y-74837265D01*
X65164279Y-74837270D01*
X65316762Y-75002908D01*
X65331892Y-75014684D01*
X65494424Y-75141189D01*
X65692426Y-75248342D01*
X65692427Y-75248342D01*
X65692428Y-75248343D01*
X65804227Y-75286723D01*
X65905365Y-75321444D01*
X66127431Y-75358500D01*
X66127435Y-75358500D01*
X66352565Y-75358500D01*
X66352569Y-75358500D01*
X66574635Y-75321444D01*
X66787574Y-75248342D01*
X66985576Y-75141189D01*
X67163240Y-75002906D01*
X67315722Y-74837268D01*
X67404518Y-74701354D01*
X67458520Y-74655268D01*
X67528868Y-74645692D01*
X67593225Y-74675669D01*
X67615480Y-74701353D01*
X67648607Y-74752058D01*
X67704275Y-74837265D01*
X67704279Y-74837270D01*
X67856762Y-75002908D01*
X67976321Y-75095965D01*
X68034424Y-75141189D01*
X68105469Y-75179636D01*
X68155859Y-75229648D01*
X68171500Y-75290449D01*
X68171500Y-82699890D01*
X68171500Y-82860110D01*
X68212968Y-83014873D01*
X68212969Y-83014875D01*
X68212970Y-83014877D01*
X68293075Y-83153623D01*
X68293083Y-83153633D01*
X69626366Y-84486916D01*
X69626370Y-84486919D01*
X69626373Y-84486922D01*
X69706320Y-84533079D01*
X69765128Y-84567032D01*
X69919889Y-84608500D01*
X69919890Y-84608500D01*
X70080111Y-84608500D01*
X107695761Y-84608500D01*
X107763882Y-84628502D01*
X107784856Y-84645405D01*
X108374595Y-85235144D01*
X108408621Y-85297456D01*
X108411500Y-85324239D01*
X108411500Y-85763101D01*
X108391498Y-85831222D01*
X108357771Y-85866314D01*
X108175703Y-85993799D01*
X108175697Y-85993804D01*
X108013804Y-86155697D01*
X108013799Y-86155703D01*
X107882477Y-86343250D01*
X107864195Y-86382457D01*
X107817278Y-86435742D01*
X107749001Y-86455203D01*
X107681041Y-86434661D01*
X107635805Y-86382457D01*
X107633894Y-86378359D01*
X107617523Y-86343251D01*
X107486198Y-86155700D01*
X107324300Y-85993802D01*
X107136749Y-85862477D01*
X106929246Y-85765717D01*
X106929240Y-85765715D01*
X106835771Y-85740670D01*
X106708087Y-85706457D01*
X106480000Y-85686502D01*
X106251913Y-85706457D01*
X106030759Y-85765715D01*
X106030753Y-85765717D01*
X105823250Y-85862477D01*
X105635703Y-85993799D01*
X105635697Y-85993804D01*
X105473804Y-86155697D01*
X105473799Y-86155703D01*
X105342477Y-86343250D01*
X105324195Y-86382457D01*
X105277278Y-86435742D01*
X105209001Y-86455203D01*
X105141041Y-86434661D01*
X105095805Y-86382457D01*
X105093894Y-86378359D01*
X105077523Y-86343251D01*
X104946198Y-86155700D01*
X104784300Y-85993802D01*
X104596749Y-85862477D01*
X104389246Y-85765717D01*
X104389240Y-85765715D01*
X104295771Y-85740670D01*
X104168087Y-85706457D01*
X103940000Y-85686502D01*
X103711913Y-85706457D01*
X103490759Y-85765715D01*
X103490753Y-85765717D01*
X103283250Y-85862477D01*
X103095703Y-85993799D01*
X103095697Y-85993804D01*
X102933804Y-86155697D01*
X102933799Y-86155703D01*
X102802477Y-86343250D01*
X102784195Y-86382457D01*
X102737278Y-86435742D01*
X102669001Y-86455203D01*
X102601041Y-86434661D01*
X102555805Y-86382457D01*
X102553894Y-86378359D01*
X102537523Y-86343251D01*
X102406198Y-86155700D01*
X102244300Y-85993802D01*
X102056749Y-85862477D01*
X101849246Y-85765717D01*
X101849240Y-85765715D01*
X101755771Y-85740670D01*
X101628087Y-85706457D01*
X101400000Y-85686502D01*
X101171913Y-85706457D01*
X100950759Y-85765715D01*
X100950753Y-85765717D01*
X100743250Y-85862477D01*
X100555703Y-85993799D01*
X100555697Y-85993804D01*
X100393804Y-86155697D01*
X100393799Y-86155703D01*
X100262477Y-86343250D01*
X100244195Y-86382457D01*
X100197278Y-86435742D01*
X100129001Y-86455203D01*
X100061041Y-86434661D01*
X100015805Y-86382457D01*
X100013894Y-86378359D01*
X99997523Y-86343251D01*
X99866198Y-86155700D01*
X99704300Y-85993802D01*
X99516749Y-85862477D01*
X99309246Y-85765717D01*
X99309240Y-85765715D01*
X99215771Y-85740670D01*
X99088087Y-85706457D01*
X98860000Y-85686502D01*
X98631913Y-85706457D01*
X98410759Y-85765715D01*
X98410753Y-85765717D01*
X98203250Y-85862477D01*
X98015703Y-85993799D01*
X98015697Y-85993804D01*
X97853804Y-86155697D01*
X97853799Y-86155703D01*
X97722477Y-86343250D01*
X97625717Y-86550753D01*
X97625715Y-86550759D01*
X97590000Y-86684049D01*
X97566457Y-86771913D01*
X97546502Y-87000000D01*
X97566457Y-87228087D01*
X97587604Y-87307007D01*
X97625715Y-87449240D01*
X97625717Y-87449246D01*
X97633495Y-87465925D01*
X97722477Y-87656749D01*
X97853802Y-87844300D01*
X98015700Y-88006198D01*
X98203251Y-88137523D01*
X98410757Y-88234284D01*
X98631913Y-88293543D01*
X98860000Y-88313498D01*
X99088087Y-88293543D01*
X99309243Y-88234284D01*
X99516749Y-88137523D01*
X99704300Y-88006198D01*
X99866198Y-87844300D01*
X99997523Y-87656749D01*
X100015805Y-87617543D01*
X100062721Y-87564258D01*
X100130998Y-87544796D01*
X100198958Y-87565337D01*
X100244195Y-87617543D01*
X100262477Y-87656749D01*
X100393802Y-87844300D01*
X100555700Y-88006198D01*
X100743251Y-88137523D01*
X100950757Y-88234284D01*
X101171913Y-88293543D01*
X101400000Y-88313498D01*
X101628087Y-88293543D01*
X101849243Y-88234284D01*
X102056749Y-88137523D01*
X102244300Y-88006198D01*
X102406198Y-87844300D01*
X102537523Y-87656749D01*
X102555805Y-87617543D01*
X102602721Y-87564258D01*
X102670998Y-87544796D01*
X102738958Y-87565337D01*
X102784195Y-87617543D01*
X102802477Y-87656749D01*
X102933802Y-87844300D01*
X103095700Y-88006198D01*
X103283251Y-88137523D01*
X103490757Y-88234284D01*
X103711913Y-88293543D01*
X103940000Y-88313498D01*
X104168087Y-88293543D01*
X104389243Y-88234284D01*
X104596749Y-88137523D01*
X104784300Y-88006198D01*
X104946198Y-87844300D01*
X105077523Y-87656749D01*
X105095805Y-87617543D01*
X105142721Y-87564258D01*
X105210998Y-87544796D01*
X105278958Y-87565337D01*
X105324195Y-87617543D01*
X105342477Y-87656749D01*
X105473802Y-87844300D01*
X105635700Y-88006198D01*
X105823251Y-88137523D01*
X106030757Y-88234284D01*
X106251913Y-88293543D01*
X106480000Y-88313498D01*
X106708087Y-88293543D01*
X106929243Y-88234284D01*
X107136749Y-88137523D01*
X107324300Y-88006198D01*
X107486198Y-87844300D01*
X107617523Y-87656749D01*
X107635805Y-87617543D01*
X107682721Y-87564258D01*
X107750998Y-87544796D01*
X107818958Y-87565337D01*
X107864195Y-87617543D01*
X107882477Y-87656749D01*
X108013802Y-87844300D01*
X108175700Y-88006198D01*
X108363251Y-88137523D01*
X108570757Y-88234284D01*
X108791913Y-88293543D01*
X109020000Y-88313498D01*
X109248087Y-88293543D01*
X109469243Y-88234284D01*
X109676749Y-88137523D01*
X109864300Y-88006198D01*
X110026198Y-87844300D01*
X110157523Y-87656749D01*
X110175805Y-87617543D01*
X110222721Y-87564258D01*
X110290998Y-87544796D01*
X110358958Y-87565337D01*
X110404195Y-87617543D01*
X110422477Y-87656749D01*
X110553802Y-87844300D01*
X110715700Y-88006198D01*
X110903251Y-88137523D01*
X111110757Y-88234284D01*
X111331913Y-88293543D01*
X111560000Y-88313498D01*
X111788087Y-88293543D01*
X112009243Y-88234284D01*
X112216749Y-88137523D01*
X112404300Y-88006198D01*
X112566198Y-87844300D01*
X112697523Y-87656749D01*
X112794284Y-87449243D01*
X112853543Y-87228087D01*
X112873498Y-87000000D01*
X112853543Y-86771913D01*
X112794284Y-86550757D01*
X112697523Y-86343251D01*
X112566198Y-86155700D01*
X112404300Y-85993802D01*
X112222229Y-85866314D01*
X112177901Y-85810857D01*
X112168500Y-85763101D01*
X112168500Y-84479890D01*
X112165132Y-84467322D01*
X112127032Y-84325128D01*
X112127032Y-84325127D01*
X112046921Y-84186372D01*
X112046919Y-84186370D01*
X112046915Y-84186365D01*
X110373633Y-82513083D01*
X110373623Y-82513075D01*
X110234877Y-82432970D01*
X110234874Y-82432969D01*
X110234873Y-82432968D01*
X110234871Y-82432967D01*
X110234870Y-82432967D01*
X110135618Y-82406373D01*
X110135618Y-82406372D01*
X110080111Y-82391500D01*
X71234500Y-82391500D01*
X71166379Y-82371498D01*
X71119886Y-82317842D01*
X71108500Y-82265500D01*
X71108500Y-73874038D01*
X72767500Y-73874038D01*
X72767500Y-74125962D01*
X72796175Y-74307007D01*
X72806911Y-74374790D01*
X72884757Y-74614374D01*
X72884759Y-74614379D01*
X72999130Y-74838845D01*
X73147207Y-75042656D01*
X73147209Y-75042658D01*
X73147211Y-75042661D01*
X73325338Y-75220788D01*
X73325341Y-75220790D01*
X73325344Y-75220793D01*
X73529155Y-75368870D01*
X73753621Y-75483241D01*
X73993215Y-75561090D01*
X74242038Y-75600500D01*
X74242041Y-75600500D01*
X74493959Y-75600500D01*
X74493962Y-75600500D01*
X74742785Y-75561090D01*
X74982379Y-75483241D01*
X75206845Y-75368870D01*
X75410656Y-75220793D01*
X75588793Y-75042656D01*
X75736870Y-74838845D01*
X75851241Y-74614379D01*
X75929090Y-74374785D01*
X75968500Y-74125962D01*
X75968500Y-73874038D01*
X75929090Y-73625215D01*
X75851241Y-73385621D01*
X75736870Y-73161155D01*
X75588793Y-72957344D01*
X75588790Y-72957341D01*
X75588788Y-72957338D01*
X75410661Y-72779211D01*
X75410658Y-72779209D01*
X75410656Y-72779207D01*
X75206845Y-72631130D01*
X74982379Y-72516759D01*
X74982376Y-72516758D01*
X74982374Y-72516757D01*
X74742790Y-72438911D01*
X74742786Y-72438910D01*
X74742785Y-72438910D01*
X74493962Y-72399500D01*
X74242038Y-72399500D01*
X73993215Y-72438910D01*
X73993209Y-72438911D01*
X73753625Y-72516757D01*
X73753619Y-72516760D01*
X73529151Y-72631132D01*
X73325341Y-72779209D01*
X73325338Y-72779211D01*
X73147211Y-72957338D01*
X73147209Y-72957341D01*
X72999132Y-73161151D01*
X72884760Y-73385619D01*
X72884757Y-73385625D01*
X72806911Y-73625209D01*
X72806910Y-73625214D01*
X72806910Y-73625215D01*
X72767500Y-73874038D01*
X71108500Y-73874038D01*
X71108500Y-72419890D01*
X71108500Y-72419889D01*
X71067032Y-72265128D01*
X70986921Y-72126372D01*
X70873628Y-72013079D01*
X70385676Y-71525127D01*
X69873633Y-71013083D01*
X69873623Y-71013075D01*
X69734877Y-70932970D01*
X69734874Y-70932969D01*
X69734873Y-70932968D01*
X69734871Y-70932967D01*
X69734870Y-70932967D01*
X69657491Y-70912234D01*
X69580111Y-70891500D01*
X66419889Y-70891500D01*
X66336955Y-70913722D01*
X66265130Y-70932967D01*
X66265123Y-70932970D01*
X66126376Y-71013075D01*
X66126366Y-71013083D01*
X65753083Y-71386366D01*
X65753075Y-71386376D01*
X65672967Y-71525127D01*
X65672968Y-71525128D01*
X65631500Y-71679890D01*
X65631500Y-72709549D01*
X65611498Y-72777670D01*
X65565470Y-72820362D01*
X65494430Y-72858807D01*
X65494424Y-72858811D01*
X65316762Y-72997091D01*
X65164279Y-73162729D01*
X65075483Y-73298643D01*
X65021479Y-73344731D01*
X64951131Y-73354306D01*
X64886774Y-73324329D01*
X64864517Y-73298643D01*
X64775720Y-73162729D01*
X64635675Y-73010602D01*
X64623240Y-72997094D01*
X64623239Y-72997093D01*
X64623237Y-72997091D01*
X64503679Y-72904035D01*
X64445576Y-72858811D01*
X64247574Y-72751658D01*
X64247572Y-72751657D01*
X64247571Y-72751656D01*
X64034639Y-72678557D01*
X64034630Y-72678555D01*
X63990476Y-72671187D01*
X63812569Y-72641500D01*
X63587431Y-72641500D01*
X63439211Y-72666233D01*
X63365369Y-72678555D01*
X63365360Y-72678557D01*
X63152428Y-72751656D01*
X63152426Y-72751658D01*
X62954432Y-72858807D01*
X62954426Y-72858810D01*
X62954424Y-72858811D01*
X62776762Y-72997091D01*
X62624279Y-73162729D01*
X62535483Y-73298643D01*
X62481479Y-73344731D01*
X62411131Y-73354306D01*
X62346774Y-73324329D01*
X62324517Y-73298643D01*
X62235720Y-73162729D01*
X62095675Y-73010602D01*
X62083240Y-72997094D01*
X62083239Y-72997093D01*
X62083237Y-72997091D01*
X61963679Y-72904035D01*
X61905576Y-72858811D01*
X61707574Y-72751658D01*
X61707572Y-72751657D01*
X61707571Y-72751656D01*
X61494639Y-72678557D01*
X61494630Y-72678555D01*
X61450476Y-72671187D01*
X61272569Y-72641500D01*
X61047431Y-72641500D01*
X60899211Y-72666233D01*
X60825369Y-72678555D01*
X60825360Y-72678557D01*
X60612428Y-72751656D01*
X60612426Y-72751658D01*
X60414432Y-72858807D01*
X60414426Y-72858810D01*
X60414424Y-72858811D01*
X60236762Y-72997091D01*
X60084279Y-73162729D01*
X59995483Y-73298643D01*
X59941479Y-73344731D01*
X59871131Y-73354306D01*
X59806774Y-73324329D01*
X59784517Y-73298643D01*
X59695720Y-73162729D01*
X59555675Y-73010602D01*
X59543240Y-72997094D01*
X59543239Y-72997093D01*
X59543237Y-72997091D01*
X59423679Y-72904035D01*
X59365576Y-72858811D01*
X59167574Y-72751658D01*
X59167572Y-72751657D01*
X59167571Y-72751656D01*
X58954639Y-72678557D01*
X58954630Y-72678555D01*
X58910476Y-72671187D01*
X58732569Y-72641500D01*
X58507431Y-72641500D01*
X58359211Y-72666233D01*
X58285369Y-72678555D01*
X58285360Y-72678557D01*
X58072428Y-72751656D01*
X58072426Y-72751658D01*
X57874432Y-72858807D01*
X57874426Y-72858810D01*
X57874424Y-72858811D01*
X57696762Y-72997091D01*
X57544279Y-73162729D01*
X57455483Y-73298643D01*
X57401479Y-73344731D01*
X57331131Y-73354306D01*
X57266774Y-73324329D01*
X57244517Y-73298643D01*
X57155720Y-73162729D01*
X57015675Y-73010602D01*
X57003240Y-72997094D01*
X57003239Y-72997093D01*
X57003237Y-72997091D01*
X56883679Y-72904035D01*
X56825576Y-72858811D01*
X56627574Y-72751658D01*
X56627572Y-72751657D01*
X56627571Y-72751656D01*
X56414639Y-72678557D01*
X56414630Y-72678555D01*
X56370476Y-72671187D01*
X56192569Y-72641500D01*
X55967431Y-72641500D01*
X55819211Y-72666233D01*
X55745369Y-72678555D01*
X55745360Y-72678557D01*
X55532428Y-72751656D01*
X55532426Y-72751658D01*
X55334432Y-72858807D01*
X55334426Y-72858810D01*
X55334424Y-72858811D01*
X55156762Y-72997091D01*
X55004279Y-73162729D01*
X54915483Y-73298643D01*
X54861479Y-73344731D01*
X54791131Y-73354306D01*
X54726774Y-73324329D01*
X54704517Y-73298643D01*
X54615720Y-73162729D01*
X54475675Y-73010602D01*
X54463240Y-72997094D01*
X54463239Y-72997093D01*
X54463237Y-72997091D01*
X54343679Y-72904035D01*
X54285576Y-72858811D01*
X54087574Y-72751658D01*
X54087572Y-72751657D01*
X54087571Y-72751656D01*
X53874639Y-72678557D01*
X53874630Y-72678555D01*
X53830476Y-72671187D01*
X53652569Y-72641500D01*
X53427431Y-72641500D01*
X53279211Y-72666233D01*
X53205369Y-72678555D01*
X53205360Y-72678557D01*
X52992428Y-72751656D01*
X52992426Y-72751658D01*
X52794432Y-72858807D01*
X52794426Y-72858810D01*
X52794424Y-72858811D01*
X52616759Y-72997094D01*
X52555374Y-73063775D01*
X52494521Y-73100346D01*
X52423557Y-73098211D01*
X52365012Y-73058049D01*
X52344618Y-73022470D01*
X52300443Y-72904033D01*
X52212904Y-72787095D01*
X52095965Y-72699555D01*
X51959093Y-72648505D01*
X51898597Y-72642000D01*
X51254000Y-72642000D01*
X51254000Y-73569297D01*
X51192993Y-73534075D01*
X51065826Y-73500000D01*
X50934174Y-73500000D01*
X50807007Y-73534075D01*
X50746000Y-73569297D01*
X50746000Y-72642000D01*
X50101402Y-72642000D01*
X50040906Y-72648505D01*
X49904035Y-72699555D01*
X49904034Y-72699555D01*
X49787095Y-72787095D01*
X49699555Y-72904034D01*
X49699555Y-72904035D01*
X49648505Y-73040906D01*
X49642000Y-73101402D01*
X46737457Y-73101402D01*
X46632793Y-72957344D01*
X46632790Y-72957341D01*
X46632788Y-72957338D01*
X46454661Y-72779211D01*
X46454658Y-72779209D01*
X46454656Y-72779207D01*
X46250845Y-72631130D01*
X46026379Y-72516759D01*
X46026376Y-72516758D01*
X46026374Y-72516757D01*
X45786790Y-72438911D01*
X45786786Y-72438910D01*
X45786785Y-72438910D01*
X45537962Y-72399500D01*
X45286038Y-72399500D01*
X45037215Y-72438910D01*
X45037209Y-72438911D01*
X44797625Y-72516757D01*
X44797619Y-72516760D01*
X44573151Y-72631132D01*
X44369341Y-72779209D01*
X44369338Y-72779211D01*
X44191211Y-72957338D01*
X44191209Y-72957341D01*
X44043132Y-73161151D01*
X43928760Y-73385619D01*
X43928757Y-73385625D01*
X43850911Y-73625209D01*
X43850910Y-73625214D01*
X43850910Y-73625215D01*
X43811500Y-73874038D01*
X40025500Y-73874038D01*
X40025500Y-67254000D01*
X108737446Y-67254000D01*
X108780515Y-67414735D01*
X108780517Y-67414741D01*
X108869844Y-67606305D01*
X108991084Y-67779453D01*
X108991087Y-67779457D01*
X109140542Y-67928912D01*
X109140546Y-67928915D01*
X109313694Y-68050155D01*
X109505258Y-68139482D01*
X109505264Y-68139484D01*
X109666000Y-68182553D01*
X110174000Y-68182553D01*
X110334735Y-68139484D01*
X110334741Y-68139482D01*
X110526305Y-68050155D01*
X110699453Y-67928915D01*
X110699457Y-67928912D01*
X110848912Y-67779457D01*
X110848915Y-67779453D01*
X110970155Y-67606305D01*
X111059482Y-67414741D01*
X111059484Y-67414735D01*
X111102554Y-67254000D01*
X110174000Y-67254000D01*
X110174000Y-68182553D01*
X109666000Y-68182553D01*
X109666000Y-67254000D01*
X108737446Y-67254000D01*
X40025500Y-67254000D01*
X40025500Y-66953922D01*
X109570000Y-66953922D01*
X109570000Y-67046078D01*
X109593852Y-67135095D01*
X109639930Y-67214905D01*
X109705095Y-67280070D01*
X109784905Y-67326148D01*
X109873922Y-67350000D01*
X109966078Y-67350000D01*
X110055095Y-67326148D01*
X110134905Y-67280070D01*
X110200070Y-67214905D01*
X110246148Y-67135095D01*
X110270000Y-67046078D01*
X110270000Y-66953922D01*
X110246148Y-66864905D01*
X110200070Y-66785095D01*
X110160975Y-66746000D01*
X110174000Y-66746000D01*
X111102554Y-66746000D01*
X111059484Y-66585264D01*
X111059482Y-66585258D01*
X110970155Y-66393694D01*
X110848915Y-66220546D01*
X110848912Y-66220542D01*
X110699457Y-66071087D01*
X110699453Y-66071084D01*
X110526305Y-65949844D01*
X110334733Y-65860513D01*
X110174000Y-65817444D01*
X110174000Y-66746000D01*
X110160975Y-66746000D01*
X110134905Y-66719930D01*
X110055095Y-66673852D01*
X109966078Y-66650000D01*
X109873922Y-66650000D01*
X109784905Y-66673852D01*
X109705095Y-66719930D01*
X109639930Y-66785095D01*
X109593852Y-66864905D01*
X109570000Y-66953922D01*
X40025500Y-66953922D01*
X40025500Y-66746000D01*
X108737445Y-66746000D01*
X109666000Y-66746000D01*
X109666000Y-65817444D01*
X109665999Y-65817444D01*
X109505266Y-65860513D01*
X109313694Y-65949844D01*
X109140546Y-66071084D01*
X109140542Y-66071087D01*
X108991087Y-66220542D01*
X108991084Y-66220546D01*
X108869844Y-66393694D01*
X108780517Y-66585258D01*
X108780515Y-66585264D01*
X108737445Y-66746000D01*
X40025500Y-66746000D01*
X40025500Y-64254000D01*
X82737446Y-64254000D01*
X82780515Y-64414735D01*
X82780517Y-64414741D01*
X82869844Y-64606305D01*
X82991084Y-64779453D01*
X82991087Y-64779457D01*
X83140542Y-64928912D01*
X83140546Y-64928915D01*
X83313694Y-65050155D01*
X83505258Y-65139482D01*
X83505264Y-65139484D01*
X83666000Y-65182553D01*
X84174000Y-65182553D01*
X84334735Y-65139484D01*
X84334741Y-65139482D01*
X84526305Y-65050155D01*
X84699453Y-64928915D01*
X84699457Y-64928912D01*
X84848912Y-64779457D01*
X84848915Y-64779453D01*
X84970155Y-64606305D01*
X85059482Y-64414741D01*
X85059484Y-64414735D01*
X85102554Y-64254000D01*
X84174000Y-64254000D01*
X84174000Y-65182553D01*
X83666000Y-65182553D01*
X83666000Y-64254000D01*
X82737446Y-64254000D01*
X40025500Y-64254000D01*
X40025500Y-63953922D01*
X83570000Y-63953922D01*
X83570000Y-64046078D01*
X83593852Y-64135095D01*
X83639930Y-64214905D01*
X83705095Y-64280070D01*
X83784905Y-64326148D01*
X83873922Y-64350000D01*
X83966078Y-64350000D01*
X84055095Y-64326148D01*
X84134905Y-64280070D01*
X84200070Y-64214905D01*
X84246148Y-64135095D01*
X84270000Y-64046078D01*
X84270000Y-64000000D01*
X87786884Y-64000000D01*
X87805314Y-64210655D01*
X87823914Y-64280070D01*
X87860043Y-64414908D01*
X87860045Y-64414912D01*
X87949412Y-64606561D01*
X88070692Y-64779767D01*
X88070696Y-64779772D01*
X88070699Y-64779776D01*
X88220224Y-64929301D01*
X88220228Y-64929304D01*
X88220232Y-64929307D01*
X88393438Y-65050587D01*
X88393441Y-65050588D01*
X88393442Y-65050589D01*
X88585090Y-65139956D01*
X88789345Y-65194686D01*
X89000000Y-65213116D01*
X89210655Y-65194686D01*
X89414910Y-65139956D01*
X89606558Y-65050589D01*
X89779776Y-64929301D01*
X89929301Y-64779776D01*
X90050589Y-64606558D01*
X90139956Y-64414910D01*
X90183072Y-64254000D01*
X94657446Y-64254000D01*
X94700515Y-64414735D01*
X94700517Y-64414741D01*
X94789844Y-64606305D01*
X94911084Y-64779453D01*
X94911087Y-64779457D01*
X95060542Y-64928912D01*
X95060546Y-64928915D01*
X95233694Y-65050155D01*
X95425258Y-65139482D01*
X95425264Y-65139484D01*
X95586000Y-65182553D01*
X96094000Y-65182553D01*
X96254735Y-65139484D01*
X96254741Y-65139482D01*
X96446305Y-65050155D01*
X96619453Y-64928915D01*
X96619457Y-64928912D01*
X96768912Y-64779457D01*
X96768915Y-64779453D01*
X96890155Y-64606305D01*
X96979482Y-64414741D01*
X96979484Y-64414735D01*
X97022554Y-64254000D01*
X96094000Y-64254000D01*
X96094000Y-65182553D01*
X95586000Y-65182553D01*
X95586000Y-64254000D01*
X94657446Y-64254000D01*
X90183072Y-64254000D01*
X90194686Y-64210655D01*
X90213116Y-64000000D01*
X90209085Y-63953922D01*
X95490000Y-63953922D01*
X95490000Y-64046078D01*
X95513852Y-64135095D01*
X95559930Y-64214905D01*
X95625095Y-64280070D01*
X95704905Y-64326148D01*
X95793922Y-64350000D01*
X95886078Y-64350000D01*
X95975095Y-64326148D01*
X96054905Y-64280070D01*
X96120070Y-64214905D01*
X96166148Y-64135095D01*
X96190000Y-64046078D01*
X96190000Y-64000000D01*
X99706884Y-64000000D01*
X99725314Y-64210655D01*
X99743914Y-64280070D01*
X99780043Y-64414908D01*
X99780045Y-64414912D01*
X99869412Y-64606561D01*
X99990692Y-64779767D01*
X99990696Y-64779772D01*
X99990699Y-64779776D01*
X100140224Y-64929301D01*
X100140228Y-64929304D01*
X100140232Y-64929307D01*
X100313438Y-65050587D01*
X100313441Y-65050588D01*
X100313442Y-65050589D01*
X100505090Y-65139956D01*
X100709345Y-65194686D01*
X100920000Y-65213116D01*
X101130655Y-65194686D01*
X101334910Y-65139956D01*
X101526558Y-65050589D01*
X101699776Y-64929301D01*
X101849301Y-64779776D01*
X101970589Y-64606558D01*
X102059956Y-64414910D01*
X102114686Y-64210655D01*
X102133116Y-64000000D01*
X102114686Y-63789345D01*
X102059956Y-63585090D01*
X101970589Y-63393442D01*
X101970588Y-63393441D01*
X101970587Y-63393438D01*
X101849307Y-63220232D01*
X101849304Y-63220228D01*
X101849301Y-63220224D01*
X101699776Y-63070699D01*
X101699772Y-63070696D01*
X101699767Y-63070692D01*
X101526561Y-62949412D01*
X101334912Y-62860045D01*
X101334908Y-62860043D01*
X101240113Y-62834643D01*
X101130655Y-62805314D01*
X100920000Y-62786884D01*
X100709345Y-62805314D01*
X100664075Y-62817444D01*
X100505091Y-62860043D01*
X100505087Y-62860045D01*
X100313438Y-62949412D01*
X100140232Y-63070692D01*
X100140221Y-63070701D01*
X99990701Y-63220221D01*
X99990692Y-63220232D01*
X99869412Y-63393438D01*
X99780045Y-63585087D01*
X99780043Y-63585091D01*
X99779997Y-63585264D01*
X99725314Y-63789345D01*
X99706884Y-64000000D01*
X96190000Y-64000000D01*
X96190000Y-63953922D01*
X96166148Y-63864905D01*
X96120070Y-63785095D01*
X96080975Y-63746000D01*
X96094000Y-63746000D01*
X97022554Y-63746000D01*
X96979484Y-63585264D01*
X96979482Y-63585258D01*
X96890155Y-63393694D01*
X96768915Y-63220546D01*
X96768912Y-63220542D01*
X96619457Y-63071087D01*
X96619453Y-63071084D01*
X96446305Y-62949844D01*
X96254733Y-62860513D01*
X96094000Y-62817444D01*
X96094000Y-63746000D01*
X96080975Y-63746000D01*
X96054905Y-63719930D01*
X95975095Y-63673852D01*
X95886078Y-63650000D01*
X95793922Y-63650000D01*
X95704905Y-63673852D01*
X95625095Y-63719930D01*
X95559930Y-63785095D01*
X95513852Y-63864905D01*
X95490000Y-63953922D01*
X90209085Y-63953922D01*
X90194686Y-63789345D01*
X90183072Y-63746000D01*
X94657445Y-63746000D01*
X95586000Y-63746000D01*
X95586000Y-62817444D01*
X95585999Y-62817444D01*
X95425266Y-62860513D01*
X95233694Y-62949844D01*
X95060546Y-63071084D01*
X95060542Y-63071087D01*
X94911087Y-63220542D01*
X94911084Y-63220546D01*
X94789844Y-63393694D01*
X94700517Y-63585258D01*
X94700515Y-63585264D01*
X94657445Y-63746000D01*
X90183072Y-63746000D01*
X90139956Y-63585090D01*
X90050589Y-63393442D01*
X90050588Y-63393441D01*
X90050587Y-63393438D01*
X89929307Y-63220232D01*
X89929304Y-63220228D01*
X89929301Y-63220224D01*
X89779776Y-63070699D01*
X89779772Y-63070696D01*
X89779767Y-63070692D01*
X89606561Y-62949412D01*
X89414912Y-62860045D01*
X89414908Y-62860043D01*
X89320113Y-62834643D01*
X89210655Y-62805314D01*
X89000000Y-62786884D01*
X88789345Y-62805314D01*
X88744075Y-62817444D01*
X88585091Y-62860043D01*
X88585087Y-62860045D01*
X88393438Y-62949412D01*
X88220232Y-63070692D01*
X88220221Y-63070701D01*
X88070701Y-63220221D01*
X88070692Y-63220232D01*
X87949412Y-63393438D01*
X87860045Y-63585087D01*
X87860043Y-63585091D01*
X87859997Y-63585264D01*
X87805314Y-63789345D01*
X87786884Y-64000000D01*
X84270000Y-64000000D01*
X84270000Y-63953922D01*
X84246148Y-63864905D01*
X84200070Y-63785095D01*
X84160975Y-63746000D01*
X84174000Y-63746000D01*
X85102554Y-63746000D01*
X85059484Y-63585264D01*
X85059482Y-63585258D01*
X84970155Y-63393694D01*
X84848915Y-63220546D01*
X84848912Y-63220542D01*
X84699457Y-63071087D01*
X84699453Y-63071084D01*
X84526305Y-62949844D01*
X84334733Y-62860513D01*
X84174000Y-62817444D01*
X84174000Y-63746000D01*
X84160975Y-63746000D01*
X84134905Y-63719930D01*
X84055095Y-63673852D01*
X83966078Y-63650000D01*
X83873922Y-63650000D01*
X83784905Y-63673852D01*
X83705095Y-63719930D01*
X83639930Y-63785095D01*
X83593852Y-63864905D01*
X83570000Y-63953922D01*
X40025500Y-63953922D01*
X40025500Y-63746000D01*
X82737445Y-63746000D01*
X83666000Y-63746000D01*
X83666000Y-62817444D01*
X83665999Y-62817444D01*
X83505266Y-62860513D01*
X83313694Y-62949844D01*
X83140546Y-63071084D01*
X83140542Y-63071087D01*
X82991087Y-63220542D01*
X82991084Y-63220546D01*
X82869844Y-63393694D01*
X82780517Y-63585258D01*
X82780515Y-63585264D01*
X82737445Y-63746000D01*
X40025500Y-63746000D01*
X40025500Y-58500000D01*
X108686835Y-58500000D01*
X108705465Y-58736710D01*
X108760894Y-58967592D01*
X108760895Y-58967594D01*
X108851760Y-59186963D01*
X108974826Y-59387788D01*
X108975825Y-59389417D01*
X108975826Y-59389419D01*
X109130030Y-59569969D01*
X109310580Y-59724173D01*
X109310584Y-59724176D01*
X109513037Y-59848240D01*
X109732406Y-59939105D01*
X109963289Y-59994535D01*
X110200000Y-60013165D01*
X110436711Y-59994535D01*
X110667594Y-59939105D01*
X110886963Y-59848240D01*
X111089416Y-59724176D01*
X111269969Y-59569969D01*
X111396404Y-59421932D01*
X111455850Y-59383127D01*
X111457835Y-59382952D01*
X112215841Y-58624946D01*
X112234075Y-58692993D01*
X112299901Y-58807007D01*
X112392993Y-58900099D01*
X112507007Y-58965925D01*
X112575051Y-58984157D01*
X111826107Y-59733101D01*
X111826108Y-59733102D01*
X112013261Y-59847791D01*
X112232562Y-59938628D01*
X112463367Y-59994039D01*
X112700000Y-60012662D01*
X112936632Y-59994039D01*
X113167437Y-59938628D01*
X113386738Y-59847791D01*
X113573890Y-59733102D01*
X113573891Y-59733102D01*
X112824947Y-58984158D01*
X112892993Y-58965925D01*
X113007007Y-58900099D01*
X113100099Y-58807007D01*
X113165925Y-58692993D01*
X113184158Y-58624947D01*
X113946999Y-59387788D01*
X113962974Y-59390494D01*
X114003599Y-59421936D01*
X114130030Y-59569969D01*
X114310580Y-59724173D01*
X114310584Y-59724176D01*
X114513037Y-59848240D01*
X114732406Y-59939105D01*
X114963289Y-59994535D01*
X115200000Y-60013165D01*
X115436711Y-59994535D01*
X115667594Y-59939105D01*
X115886963Y-59848240D01*
X116089416Y-59724176D01*
X116269969Y-59569969D01*
X116424176Y-59389416D01*
X116548240Y-59186963D01*
X116639105Y-58967594D01*
X116694535Y-58736711D01*
X116713165Y-58500000D01*
X116694535Y-58263289D01*
X116639105Y-58032406D01*
X116548240Y-57813037D01*
X116424176Y-57610584D01*
X116423251Y-57609501D01*
X116269969Y-57430030D01*
X116089419Y-57275826D01*
X116089417Y-57275825D01*
X116089416Y-57275824D01*
X115886963Y-57151760D01*
X115668744Y-57061371D01*
X115667592Y-57060894D01*
X115509651Y-57022976D01*
X115436711Y-57005465D01*
X115200000Y-56986835D01*
X114963289Y-57005465D01*
X114732407Y-57060894D01*
X114513038Y-57151759D01*
X114310582Y-57275825D01*
X114310580Y-57275826D01*
X114130033Y-57430028D01*
X114003599Y-57578063D01*
X113944148Y-57616872D01*
X113942162Y-57617046D01*
X113184157Y-58375051D01*
X113165925Y-58307007D01*
X113100099Y-58192993D01*
X113007007Y-58099901D01*
X112892993Y-58034075D01*
X112824946Y-58015841D01*
X113573890Y-57266897D01*
X113573890Y-57266896D01*
X113386738Y-57152208D01*
X113167437Y-57061371D01*
X112936632Y-57005960D01*
X112700000Y-56987337D01*
X112463367Y-57005960D01*
X112232562Y-57061371D01*
X112013266Y-57152206D01*
X111826108Y-57266897D01*
X111826108Y-57266898D01*
X112575052Y-58015842D01*
X112507007Y-58034075D01*
X112392993Y-58099901D01*
X112299901Y-58192993D01*
X112234075Y-58307007D01*
X112215842Y-58375052D01*
X111452997Y-57612207D01*
X111437020Y-57609501D01*
X111396400Y-57578062D01*
X111269969Y-57430030D01*
X111089419Y-57275826D01*
X111089417Y-57275825D01*
X111089416Y-57275824D01*
X110886963Y-57151760D01*
X110668744Y-57061371D01*
X110667592Y-57060894D01*
X110509651Y-57022976D01*
X110436711Y-57005465D01*
X110200000Y-56986835D01*
X109963289Y-57005465D01*
X109732407Y-57060894D01*
X109513038Y-57151759D01*
X109310582Y-57275825D01*
X109310580Y-57275826D01*
X109130030Y-57430030D01*
X108975826Y-57610580D01*
X108975825Y-57610582D01*
X108851759Y-57813038D01*
X108760894Y-58032407D01*
X108705465Y-58263289D01*
X108686835Y-58500000D01*
X40025500Y-58500000D01*
X40025500Y-55000000D01*
X91986902Y-55000000D01*
X92007274Y-55349788D01*
X92007274Y-55349794D01*
X92068120Y-55694868D01*
X92168615Y-56030541D01*
X92168617Y-56030547D01*
X92307395Y-56352273D01*
X92307398Y-56352278D01*
X92482586Y-56655712D01*
X92482596Y-56655728D01*
X92691836Y-56936785D01*
X92691840Y-56936790D01*
X92697741Y-56943045D01*
X92697744Y-56943045D01*
X93953940Y-55686849D01*
X94046554Y-55814320D01*
X94185680Y-55953446D01*
X94313149Y-56046058D01*
X93060215Y-57298992D01*
X93060216Y-57298993D01*
X93200696Y-57416871D01*
X93493449Y-57609417D01*
X93806577Y-57766676D01*
X93806582Y-57766678D01*
X94135825Y-57886513D01*
X94135830Y-57886514D01*
X94476779Y-57967321D01*
X94476785Y-57967322D01*
X94824801Y-58008000D01*
X95175199Y-58008000D01*
X95523214Y-57967322D01*
X95523220Y-57967321D01*
X95864169Y-57886514D01*
X95864174Y-57886513D01*
X96193417Y-57766678D01*
X96193422Y-57766676D01*
X96506550Y-57609417D01*
X96799299Y-57416874D01*
X96939783Y-57298992D01*
X95686850Y-56046059D01*
X95814320Y-55953446D01*
X95953446Y-55814320D01*
X96046059Y-55686850D01*
X97302255Y-56943046D01*
X97302256Y-56943045D01*
X97308164Y-56936785D01*
X97308166Y-56936782D01*
X97517395Y-56655739D01*
X97517413Y-56655712D01*
X97692601Y-56352278D01*
X97692604Y-56352273D01*
X97831382Y-56030547D01*
X97831384Y-56030541D01*
X97931879Y-55694868D01*
X97992725Y-55349794D01*
X97992725Y-55349788D01*
X98013097Y-55000000D01*
X97992725Y-54650211D01*
X97992725Y-54650205D01*
X97931879Y-54305131D01*
X97831384Y-53969458D01*
X97831382Y-53969452D01*
X97692604Y-53647726D01*
X97692601Y-53647721D01*
X97517413Y-53344287D01*
X97517403Y-53344271D01*
X97308165Y-53063216D01*
X97302255Y-53056952D01*
X96046058Y-54313149D01*
X95953446Y-54185680D01*
X95814320Y-54046554D01*
X95686849Y-53953940D01*
X96939783Y-52701006D01*
X96939783Y-52701005D01*
X96799298Y-52583125D01*
X96506550Y-52390582D01*
X96193422Y-52233323D01*
X96193417Y-52233321D01*
X95864174Y-52113486D01*
X95864169Y-52113485D01*
X95523220Y-52032678D01*
X95523214Y-52032677D01*
X95175199Y-51992000D01*
X94824801Y-51992000D01*
X94476785Y-52032677D01*
X94476779Y-52032678D01*
X94135830Y-52113485D01*
X94135825Y-52113486D01*
X93806582Y-52233321D01*
X93806577Y-52233323D01*
X93493449Y-52390582D01*
X93200701Y-52583125D01*
X93060215Y-52701005D01*
X94313150Y-53953940D01*
X94185680Y-54046554D01*
X94046554Y-54185680D01*
X93953940Y-54313149D01*
X92697744Y-53056953D01*
X92697743Y-53056953D01*
X92691831Y-53063220D01*
X92691827Y-53063224D01*
X92482604Y-53344260D01*
X92482586Y-53344287D01*
X92307398Y-53647721D01*
X92307395Y-53647726D01*
X92168617Y-53969452D01*
X92168615Y-53969458D01*
X92068120Y-54305131D01*
X92007274Y-54650205D01*
X92007274Y-54650211D01*
X91986902Y-55000000D01*
X40025500Y-55000000D01*
X40025500Y-48500000D01*
X81486835Y-48500000D01*
X81505465Y-48736710D01*
X81560894Y-48967592D01*
X81651759Y-49186961D01*
X81775825Y-49389417D01*
X81775826Y-49389419D01*
X81930030Y-49569969D01*
X82110580Y-49724173D01*
X82110584Y-49724176D01*
X82313037Y-49848240D01*
X82532406Y-49939105D01*
X82763289Y-49994535D01*
X83000000Y-50013165D01*
X83236711Y-49994535D01*
X83467594Y-49939105D01*
X83686963Y-49848240D01*
X83889416Y-49724176D01*
X84069969Y-49569969D01*
X84224176Y-49389416D01*
X84348240Y-49186963D01*
X84439105Y-48967594D01*
X84494535Y-48736711D01*
X84513165Y-48500000D01*
X87986835Y-48500000D01*
X88005465Y-48736710D01*
X88060894Y-48967592D01*
X88151759Y-49186961D01*
X88275825Y-49389417D01*
X88275826Y-49389419D01*
X88430030Y-49569969D01*
X88610580Y-49724173D01*
X88610584Y-49724176D01*
X88813037Y-49848240D01*
X89032406Y-49939105D01*
X89263289Y-49994535D01*
X89500000Y-50013165D01*
X89736711Y-49994535D01*
X89967594Y-49939105D01*
X90186963Y-49848240D01*
X90389416Y-49724176D01*
X90569969Y-49569969D01*
X90724176Y-49389416D01*
X90848240Y-49186963D01*
X90939105Y-48967594D01*
X90994535Y-48736711D01*
X91013165Y-48500000D01*
X93486835Y-48500000D01*
X93505465Y-48736710D01*
X93560894Y-48967592D01*
X93651759Y-49186961D01*
X93775825Y-49389417D01*
X93775826Y-49389419D01*
X93930030Y-49569969D01*
X94110580Y-49724173D01*
X94110584Y-49724176D01*
X94313037Y-49848240D01*
X94532406Y-49939105D01*
X94763289Y-49994535D01*
X95000000Y-50013165D01*
X95236711Y-49994535D01*
X95467594Y-49939105D01*
X95686963Y-49848240D01*
X95889416Y-49724176D01*
X96069969Y-49569969D01*
X96224176Y-49389416D01*
X96348240Y-49186963D01*
X96439105Y-48967594D01*
X96494535Y-48736711D01*
X96513165Y-48500000D01*
X99986835Y-48500000D01*
X100005465Y-48736710D01*
X100060894Y-48967592D01*
X100151759Y-49186961D01*
X100275825Y-49389417D01*
X100275826Y-49389419D01*
X100430030Y-49569969D01*
X100610580Y-49724173D01*
X100610584Y-49724176D01*
X100813037Y-49848240D01*
X101032406Y-49939105D01*
X101263289Y-49994535D01*
X101500000Y-50013165D01*
X101736711Y-49994535D01*
X101967594Y-49939105D01*
X102186963Y-49848240D01*
X102389416Y-49724176D01*
X102569969Y-49569969D01*
X102724176Y-49389416D01*
X102848240Y-49186963D01*
X102862991Y-49151350D01*
X105091500Y-49151350D01*
X105091500Y-52848649D01*
X105098009Y-52909196D01*
X105098011Y-52909204D01*
X105149110Y-53046202D01*
X105149112Y-53046207D01*
X105236738Y-53163261D01*
X105353792Y-53250887D01*
X105353794Y-53250888D01*
X105353796Y-53250889D01*
X105412875Y-53272924D01*
X105490795Y-53301988D01*
X105490803Y-53301990D01*
X105551350Y-53308499D01*
X105551355Y-53308499D01*
X105551362Y-53308500D01*
X105551368Y-53308500D01*
X108448632Y-53308500D01*
X108448638Y-53308500D01*
X108448645Y-53308499D01*
X108448649Y-53308499D01*
X108509196Y-53301990D01*
X108509199Y-53301989D01*
X108509201Y-53301989D01*
X108646204Y-53250889D01*
X108763261Y-53163261D01*
X108838154Y-53063216D01*
X108850887Y-53046207D01*
X108850887Y-53046206D01*
X108850889Y-53046204D01*
X108901989Y-52909201D01*
X108908500Y-52848638D01*
X108908500Y-51734500D01*
X108928502Y-51666379D01*
X108982158Y-51619886D01*
X109034500Y-51608500D01*
X116365500Y-51608500D01*
X116433621Y-51628502D01*
X116480114Y-51682158D01*
X116491500Y-51734500D01*
X116491500Y-52848649D01*
X116498009Y-52909196D01*
X116498011Y-52909204D01*
X116549110Y-53046202D01*
X116549112Y-53046207D01*
X116636738Y-53163261D01*
X116753792Y-53250887D01*
X116753794Y-53250888D01*
X116753796Y-53250889D01*
X116812875Y-53272924D01*
X116890795Y-53301988D01*
X116890803Y-53301990D01*
X116951350Y-53308499D01*
X116951355Y-53308499D01*
X116951362Y-53308500D01*
X116951368Y-53308500D01*
X119848632Y-53308500D01*
X119848638Y-53308500D01*
X119848645Y-53308499D01*
X119848649Y-53308499D01*
X119909196Y-53301990D01*
X119909199Y-53301989D01*
X119909201Y-53301989D01*
X120046204Y-53250889D01*
X120163261Y-53163261D01*
X120238154Y-53063216D01*
X120250887Y-53046207D01*
X120250887Y-53046206D01*
X120250889Y-53046204D01*
X120301989Y-52909201D01*
X120308500Y-52848638D01*
X120308500Y-49151362D01*
X120308499Y-49151350D01*
X120301990Y-49090803D01*
X120301988Y-49090795D01*
X120256035Y-48967594D01*
X120250889Y-48953796D01*
X120250888Y-48953794D01*
X120250887Y-48953792D01*
X120163261Y-48836738D01*
X120046207Y-48749112D01*
X120046202Y-48749110D01*
X119909204Y-48698011D01*
X119909196Y-48698009D01*
X119848649Y-48691500D01*
X119848638Y-48691500D01*
X116951362Y-48691500D01*
X116951350Y-48691500D01*
X116890803Y-48698009D01*
X116890795Y-48698011D01*
X116753797Y-48749110D01*
X116753792Y-48749112D01*
X116636738Y-48836738D01*
X116549112Y-48953792D01*
X116549110Y-48953797D01*
X116498011Y-49090795D01*
X116498009Y-49090803D01*
X116491500Y-49151350D01*
X116491500Y-50265500D01*
X116471498Y-50333621D01*
X116417842Y-50380114D01*
X116365500Y-50391500D01*
X109034500Y-50391500D01*
X108966379Y-50371498D01*
X108919886Y-50317842D01*
X108908500Y-50265500D01*
X108908500Y-49151367D01*
X108908499Y-49151350D01*
X108901990Y-49090803D01*
X108901988Y-49090795D01*
X108856035Y-48967594D01*
X108850889Y-48953796D01*
X108850888Y-48953794D01*
X108850887Y-48953792D01*
X108763261Y-48836738D01*
X108646207Y-48749112D01*
X108646202Y-48749110D01*
X108509204Y-48698011D01*
X108509196Y-48698009D01*
X108448649Y-48691500D01*
X108448638Y-48691500D01*
X105551362Y-48691500D01*
X105551350Y-48691500D01*
X105490803Y-48698009D01*
X105490795Y-48698011D01*
X105353797Y-48749110D01*
X105353792Y-48749112D01*
X105236738Y-48836738D01*
X105149112Y-48953792D01*
X105149110Y-48953797D01*
X105098011Y-49090795D01*
X105098009Y-49090803D01*
X105091500Y-49151350D01*
X102862991Y-49151350D01*
X102939105Y-48967594D01*
X102994535Y-48736711D01*
X103013165Y-48500000D01*
X102994535Y-48263289D01*
X102939105Y-48032406D01*
X102848240Y-47813037D01*
X102724176Y-47610584D01*
X102724173Y-47610580D01*
X102569969Y-47430030D01*
X102389419Y-47275826D01*
X102389417Y-47275825D01*
X102389416Y-47275824D01*
X102186963Y-47151760D01*
X101967594Y-47060895D01*
X101967592Y-47060894D01*
X101809651Y-47022976D01*
X101736711Y-47005465D01*
X101500000Y-46986835D01*
X101263289Y-47005465D01*
X101032407Y-47060894D01*
X100813038Y-47151759D01*
X100610582Y-47275825D01*
X100610580Y-47275826D01*
X100430030Y-47430030D01*
X100275826Y-47610580D01*
X100275825Y-47610582D01*
X100151759Y-47813038D01*
X100060894Y-48032407D01*
X100005465Y-48263289D01*
X99986835Y-48500000D01*
X96513165Y-48500000D01*
X96494535Y-48263289D01*
X96439105Y-48032406D01*
X96348240Y-47813037D01*
X96224176Y-47610584D01*
X96224173Y-47610580D01*
X96069969Y-47430030D01*
X95889419Y-47275826D01*
X95889417Y-47275825D01*
X95889416Y-47275824D01*
X95686963Y-47151760D01*
X95467594Y-47060895D01*
X95467592Y-47060894D01*
X95309651Y-47022976D01*
X95236711Y-47005465D01*
X95000000Y-46986835D01*
X94763289Y-47005465D01*
X94532407Y-47060894D01*
X94313038Y-47151759D01*
X94110582Y-47275825D01*
X94110580Y-47275826D01*
X93930030Y-47430030D01*
X93775826Y-47610580D01*
X93775825Y-47610582D01*
X93651759Y-47813038D01*
X93560894Y-48032407D01*
X93505465Y-48263289D01*
X93486835Y-48500000D01*
X91013165Y-48500000D01*
X90994535Y-48263289D01*
X90939105Y-48032406D01*
X90848240Y-47813037D01*
X90724176Y-47610584D01*
X90724173Y-47610580D01*
X90569969Y-47430030D01*
X90389419Y-47275826D01*
X90389417Y-47275825D01*
X90389416Y-47275824D01*
X90186963Y-47151760D01*
X89967594Y-47060895D01*
X89967592Y-47060894D01*
X89809651Y-47022976D01*
X89736711Y-47005465D01*
X89500000Y-46986835D01*
X89263289Y-47005465D01*
X89032407Y-47060894D01*
X88813038Y-47151759D01*
X88610582Y-47275825D01*
X88610580Y-47275826D01*
X88430030Y-47430030D01*
X88275826Y-47610580D01*
X88275825Y-47610582D01*
X88151759Y-47813038D01*
X88060894Y-48032407D01*
X88005465Y-48263289D01*
X87986835Y-48500000D01*
X84513165Y-48500000D01*
X84494535Y-48263289D01*
X84439105Y-48032406D01*
X84348240Y-47813037D01*
X84224176Y-47610584D01*
X84224173Y-47610580D01*
X84069969Y-47430030D01*
X83889419Y-47275826D01*
X83889417Y-47275825D01*
X83889416Y-47275824D01*
X83686963Y-47151760D01*
X83467594Y-47060895D01*
X83467592Y-47060894D01*
X83309651Y-47022976D01*
X83236711Y-47005465D01*
X83000000Y-46986835D01*
X82763289Y-47005465D01*
X82532407Y-47060894D01*
X82313038Y-47151759D01*
X82110582Y-47275825D01*
X82110580Y-47275826D01*
X81930030Y-47430030D01*
X81775826Y-47610580D01*
X81775825Y-47610582D01*
X81651759Y-47813038D01*
X81560894Y-48032407D01*
X81505465Y-48263289D01*
X81486835Y-48500000D01*
X40025500Y-48500000D01*
X40025500Y-44410038D01*
X43811500Y-44410038D01*
X43811500Y-44661962D01*
X43847526Y-44889417D01*
X43850911Y-44910790D01*
X43902632Y-45069969D01*
X43928759Y-45150379D01*
X44043130Y-45374845D01*
X44191207Y-45578656D01*
X44191209Y-45578658D01*
X44191211Y-45578661D01*
X44369338Y-45756788D01*
X44369341Y-45756790D01*
X44369344Y-45756793D01*
X44573155Y-45904870D01*
X44797621Y-46019241D01*
X45037215Y-46097090D01*
X45286038Y-46136500D01*
X45286041Y-46136500D01*
X45537959Y-46136500D01*
X45537962Y-46136500D01*
X45786785Y-46097090D01*
X46026379Y-46019241D01*
X46250845Y-45904870D01*
X46454656Y-45756793D01*
X46632793Y-45578656D01*
X46780870Y-45374845D01*
X46895241Y-45150379D01*
X46973090Y-44910785D01*
X47012500Y-44661962D01*
X47012500Y-44410038D01*
X72767500Y-44410038D01*
X72767500Y-44661962D01*
X72803526Y-44889417D01*
X72806911Y-44910790D01*
X72858632Y-45069969D01*
X72884759Y-45150379D01*
X72999130Y-45374845D01*
X73147207Y-45578656D01*
X73147209Y-45578658D01*
X73147211Y-45578661D01*
X73325338Y-45756788D01*
X73325341Y-45756790D01*
X73325344Y-45756793D01*
X73529155Y-45904870D01*
X73753621Y-46019241D01*
X73993215Y-46097090D01*
X74242038Y-46136500D01*
X74242041Y-46136500D01*
X74493959Y-46136500D01*
X74493962Y-46136500D01*
X74742785Y-46097090D01*
X74982379Y-46019241D01*
X75206845Y-45904870D01*
X75410656Y-45756793D01*
X75588793Y-45578656D01*
X75736870Y-45374845D01*
X75851241Y-45150379D01*
X75929090Y-44910785D01*
X75968500Y-44661962D01*
X75968500Y-44410038D01*
X75929090Y-44161215D01*
X75876708Y-44000000D01*
X81486835Y-44000000D01*
X81505465Y-44236710D01*
X81560894Y-44467592D01*
X81651759Y-44686961D01*
X81775825Y-44889417D01*
X81775826Y-44889419D01*
X81930030Y-45069969D01*
X82110580Y-45224173D01*
X82110584Y-45224176D01*
X82313037Y-45348240D01*
X82532406Y-45439105D01*
X82763289Y-45494535D01*
X83000000Y-45513165D01*
X83236711Y-45494535D01*
X83467594Y-45439105D01*
X83686963Y-45348240D01*
X83889416Y-45224176D01*
X84069969Y-45069969D01*
X84224176Y-44889416D01*
X84348240Y-44686963D01*
X84439105Y-44467594D01*
X84494535Y-44236711D01*
X84513165Y-44000000D01*
X87986835Y-44000000D01*
X88005465Y-44236710D01*
X88060894Y-44467592D01*
X88151759Y-44686961D01*
X88275825Y-44889417D01*
X88275826Y-44889419D01*
X88430030Y-45069969D01*
X88610580Y-45224173D01*
X88610584Y-45224176D01*
X88813037Y-45348240D01*
X89032406Y-45439105D01*
X89263289Y-45494535D01*
X89500000Y-45513165D01*
X89736711Y-45494535D01*
X89967594Y-45439105D01*
X90186963Y-45348240D01*
X90389416Y-45224176D01*
X90569969Y-45069969D01*
X90724176Y-44889416D01*
X90848240Y-44686963D01*
X90939105Y-44467594D01*
X90994535Y-44236711D01*
X91013165Y-44000000D01*
X93486835Y-44000000D01*
X93505465Y-44236710D01*
X93560894Y-44467592D01*
X93651759Y-44686961D01*
X93775825Y-44889417D01*
X93775826Y-44889419D01*
X93930030Y-45069969D01*
X94110580Y-45224173D01*
X94110584Y-45224176D01*
X94313037Y-45348240D01*
X94532406Y-45439105D01*
X94763289Y-45494535D01*
X95000000Y-45513165D01*
X95236711Y-45494535D01*
X95467594Y-45439105D01*
X95686963Y-45348240D01*
X95889416Y-45224176D01*
X96069969Y-45069969D01*
X96224176Y-44889416D01*
X96348240Y-44686963D01*
X96439105Y-44467594D01*
X96494535Y-44236711D01*
X96513165Y-44000000D01*
X99986835Y-44000000D01*
X100005465Y-44236710D01*
X100060894Y-44467592D01*
X100151759Y-44686961D01*
X100275825Y-44889417D01*
X100275826Y-44889419D01*
X100430030Y-45069969D01*
X100610580Y-45224173D01*
X100610584Y-45224176D01*
X100813037Y-45348240D01*
X101032406Y-45439105D01*
X101263289Y-45494535D01*
X101500000Y-45513165D01*
X101736711Y-45494535D01*
X101967594Y-45439105D01*
X102186963Y-45348240D01*
X102389416Y-45224176D01*
X102569969Y-45069969D01*
X102724176Y-44889416D01*
X102848240Y-44686963D01*
X102939105Y-44467594D01*
X102994535Y-44236711D01*
X103013165Y-44000000D01*
X108686835Y-44000000D01*
X108705465Y-44236710D01*
X108760894Y-44467592D01*
X108851759Y-44686961D01*
X108975825Y-44889417D01*
X108975826Y-44889419D01*
X109130030Y-45069969D01*
X109310580Y-45224173D01*
X109310584Y-45224176D01*
X109513037Y-45348240D01*
X109732406Y-45439105D01*
X109963289Y-45494535D01*
X110200000Y-45513165D01*
X110436711Y-45494535D01*
X110667594Y-45439105D01*
X110886963Y-45348240D01*
X111089416Y-45224176D01*
X111269969Y-45069969D01*
X111424176Y-44889416D01*
X111548240Y-44686963D01*
X111639105Y-44467594D01*
X111694535Y-44236711D01*
X111713165Y-44000000D01*
X113686835Y-44000000D01*
X113705465Y-44236710D01*
X113760894Y-44467592D01*
X113851759Y-44686961D01*
X113975825Y-44889417D01*
X113975826Y-44889419D01*
X114130030Y-45069969D01*
X114310580Y-45224173D01*
X114310584Y-45224176D01*
X114513037Y-45348240D01*
X114732406Y-45439105D01*
X114963289Y-45494535D01*
X115200000Y-45513165D01*
X115436711Y-45494535D01*
X115667594Y-45439105D01*
X115886963Y-45348240D01*
X116089416Y-45224176D01*
X116269969Y-45069969D01*
X116424176Y-44889416D01*
X116548240Y-44686963D01*
X116639105Y-44467594D01*
X116694535Y-44236711D01*
X116713165Y-44000000D01*
X116694535Y-43763289D01*
X116639105Y-43532406D01*
X116548240Y-43313037D01*
X116424176Y-43110584D01*
X116374789Y-43052759D01*
X116269969Y-42930030D01*
X116089419Y-42775826D01*
X116089417Y-42775825D01*
X116089416Y-42775824D01*
X115886963Y-42651760D01*
X115667594Y-42560895D01*
X115667592Y-42560894D01*
X115509651Y-42522976D01*
X115436711Y-42505465D01*
X115200000Y-42486835D01*
X114963289Y-42505465D01*
X114732407Y-42560894D01*
X114513038Y-42651759D01*
X114310582Y-42775825D01*
X114310580Y-42775826D01*
X114130030Y-42930030D01*
X113975826Y-43110580D01*
X113975825Y-43110582D01*
X113851759Y-43313038D01*
X113760894Y-43532407D01*
X113705465Y-43763289D01*
X113686835Y-44000000D01*
X111713165Y-44000000D01*
X111694535Y-43763289D01*
X111639105Y-43532406D01*
X111548240Y-43313037D01*
X111424176Y-43110584D01*
X111374789Y-43052759D01*
X111269969Y-42930030D01*
X111089419Y-42775826D01*
X111089417Y-42775825D01*
X111089416Y-42775824D01*
X110886963Y-42651760D01*
X110667594Y-42560895D01*
X110667592Y-42560894D01*
X110509651Y-42522976D01*
X110436711Y-42505465D01*
X110200000Y-42486835D01*
X109963289Y-42505465D01*
X109732407Y-42560894D01*
X109513038Y-42651759D01*
X109310582Y-42775825D01*
X109310580Y-42775826D01*
X109130030Y-42930030D01*
X108975826Y-43110580D01*
X108975825Y-43110582D01*
X108851759Y-43313038D01*
X108760894Y-43532407D01*
X108705465Y-43763289D01*
X108686835Y-44000000D01*
X103013165Y-44000000D01*
X102994535Y-43763289D01*
X102939105Y-43532406D01*
X102848240Y-43313037D01*
X102724176Y-43110584D01*
X102674789Y-43052759D01*
X102569969Y-42930030D01*
X102389419Y-42775826D01*
X102389417Y-42775825D01*
X102389416Y-42775824D01*
X102186963Y-42651760D01*
X101967594Y-42560895D01*
X101967592Y-42560894D01*
X101809651Y-42522976D01*
X101736711Y-42505465D01*
X101500000Y-42486835D01*
X101263289Y-42505465D01*
X101032407Y-42560894D01*
X100813038Y-42651759D01*
X100610582Y-42775825D01*
X100610580Y-42775826D01*
X100430030Y-42930030D01*
X100275826Y-43110580D01*
X100275825Y-43110582D01*
X100151759Y-43313038D01*
X100060894Y-43532407D01*
X100005465Y-43763289D01*
X99986835Y-44000000D01*
X96513165Y-44000000D01*
X96494535Y-43763289D01*
X96439105Y-43532406D01*
X96348240Y-43313037D01*
X96224176Y-43110584D01*
X96174789Y-43052759D01*
X96069969Y-42930030D01*
X95889419Y-42775826D01*
X95889417Y-42775825D01*
X95889416Y-42775824D01*
X95686963Y-42651760D01*
X95467594Y-42560895D01*
X95467592Y-42560894D01*
X95309651Y-42522976D01*
X95236711Y-42505465D01*
X95000000Y-42486835D01*
X94763289Y-42505465D01*
X94532407Y-42560894D01*
X94313038Y-42651759D01*
X94110582Y-42775825D01*
X94110580Y-42775826D01*
X93930030Y-42930030D01*
X93775826Y-43110580D01*
X93775825Y-43110582D01*
X93651759Y-43313038D01*
X93560894Y-43532407D01*
X93505465Y-43763289D01*
X93486835Y-44000000D01*
X91013165Y-44000000D01*
X90994535Y-43763289D01*
X90939105Y-43532406D01*
X90848240Y-43313037D01*
X90724176Y-43110584D01*
X90674789Y-43052759D01*
X90569969Y-42930030D01*
X90389419Y-42775826D01*
X90389417Y-42775825D01*
X90389416Y-42775824D01*
X90186963Y-42651760D01*
X89967594Y-42560895D01*
X89967592Y-42560894D01*
X89809651Y-42522976D01*
X89736711Y-42505465D01*
X89500000Y-42486835D01*
X89263289Y-42505465D01*
X89032407Y-42560894D01*
X88813038Y-42651759D01*
X88610582Y-42775825D01*
X88610580Y-42775826D01*
X88430030Y-42930030D01*
X88275826Y-43110580D01*
X88275825Y-43110582D01*
X88151759Y-43313038D01*
X88060894Y-43532407D01*
X88005465Y-43763289D01*
X87986835Y-44000000D01*
X84513165Y-44000000D01*
X84494535Y-43763289D01*
X84439105Y-43532406D01*
X84348240Y-43313037D01*
X84224176Y-43110584D01*
X84174789Y-43052759D01*
X84069969Y-42930030D01*
X83889419Y-42775826D01*
X83889417Y-42775825D01*
X83889416Y-42775824D01*
X83686963Y-42651760D01*
X83467594Y-42560895D01*
X83467592Y-42560894D01*
X83309651Y-42522976D01*
X83236711Y-42505465D01*
X83000000Y-42486835D01*
X82763289Y-42505465D01*
X82532407Y-42560894D01*
X82313038Y-42651759D01*
X82110582Y-42775825D01*
X82110580Y-42775826D01*
X81930030Y-42930030D01*
X81775826Y-43110580D01*
X81775825Y-43110582D01*
X81651759Y-43313038D01*
X81560894Y-43532407D01*
X81505465Y-43763289D01*
X81486835Y-44000000D01*
X75876708Y-44000000D01*
X75851241Y-43921621D01*
X75736870Y-43697155D01*
X75588793Y-43493344D01*
X75588790Y-43493341D01*
X75588788Y-43493338D01*
X75410661Y-43315211D01*
X75410658Y-43315209D01*
X75410656Y-43315207D01*
X75206845Y-43167130D01*
X74982379Y-43052759D01*
X74982376Y-43052758D01*
X74982374Y-43052757D01*
X74742790Y-42974911D01*
X74742786Y-42974910D01*
X74742785Y-42974910D01*
X74493962Y-42935500D01*
X74242038Y-42935500D01*
X73993215Y-42974910D01*
X73993209Y-42974911D01*
X73753625Y-43052757D01*
X73753619Y-43052760D01*
X73529151Y-43167132D01*
X73325341Y-43315209D01*
X73325338Y-43315211D01*
X73147211Y-43493338D01*
X73147209Y-43493341D01*
X72999132Y-43697151D01*
X72884760Y-43921619D01*
X72884757Y-43921625D01*
X72806911Y-44161209D01*
X72806910Y-44161214D01*
X72806910Y-44161215D01*
X72767500Y-44410038D01*
X47012500Y-44410038D01*
X46973090Y-44161215D01*
X46895241Y-43921621D01*
X46780870Y-43697155D01*
X46632793Y-43493344D01*
X46632790Y-43493341D01*
X46632788Y-43493338D01*
X46454661Y-43315211D01*
X46454658Y-43315209D01*
X46454656Y-43315207D01*
X46250845Y-43167130D01*
X46026379Y-43052759D01*
X46026376Y-43052758D01*
X46026374Y-43052757D01*
X45786790Y-42974911D01*
X45786786Y-42974910D01*
X45786785Y-42974910D01*
X45537962Y-42935500D01*
X45286038Y-42935500D01*
X45037215Y-42974910D01*
X45037209Y-42974911D01*
X44797625Y-43052757D01*
X44797619Y-43052760D01*
X44573151Y-43167132D01*
X44369341Y-43315209D01*
X44369338Y-43315211D01*
X44191211Y-43493338D01*
X44191209Y-43493341D01*
X44043132Y-43697151D01*
X43928760Y-43921619D01*
X43928757Y-43921625D01*
X43850911Y-44161209D01*
X43850910Y-44161214D01*
X43850910Y-44161215D01*
X43811500Y-44410038D01*
X40025500Y-44410038D01*
X40025500Y-40151500D01*
X40045502Y-40083379D01*
X40099158Y-40036886D01*
X40151500Y-40025500D01*
X124848500Y-40025500D01*
X124916621Y-40045502D01*
G37*
%TD.AperFunction*%
%TD*%
D21*
X40000000Y-40000000D02*
X40000000Y-85500000D01*
X60320000Y-85500000D02*
X60325000Y-140000000D01*
X40000000Y-85500000D02*
X60320000Y-85500000D01*
X60325000Y-140000000D02*
X125000000Y-140000000D01*
X125000000Y-40000000D02*
X40000000Y-40000000D01*
X125000000Y-140000000D02*
X125000000Y-40000000D01*
M02*
