%TF.GenerationSoftware,KiCad,Pcbnew,8.0.3*%
%TF.CreationDate,2024-07-30T19:30:49-07:00*%
%TF.ProjectId,ardxp1,61726478-7031-42e6-9b69-6361645f7063,v0.1*%
%TF.SameCoordinates,Original*%
%TF.FileFunction,Legend,Bot*%
%TF.FilePolarity,Positive*%
%FSLAX46Y46*%
G04 Gerber Fmt 4.6, Leading zero omitted, Abs format (unit mm)*
G04 Created by KiCad (PCBNEW 8.0.3) date 2024-07-30 19:30:49*
%MOMM*%
%LPD*%
G01*
G04 APERTURE LIST*
G04 Aperture macros list*
%AMRoundRect*
0 Rectangle with rounded corners*
0 $1 Rounding radius*
0 $2 $3 $4 $5 $6 $7 $8 $9 X,Y pos of 4 corners*
0 Add a 4 corners polygon primitive as box body*
4,1,4,$2,$3,$4,$5,$6,$7,$8,$9,$2,$3,0*
0 Add four circle primitives for the rounded corners*
1,1,$1+$1,$2,$3*
1,1,$1+$1,$4,$5*
1,1,$1+$1,$6,$7*
1,1,$1+$1,$8,$9*
0 Add four rect primitives between the rounded corners*
20,1,$1+$1,$2,$3,$4,$5,0*
20,1,$1+$1,$4,$5,$6,$7,0*
20,1,$1+$1,$6,$7,$8,$9,0*
20,1,$1+$1,$8,$9,$2,$3,0*%
G04 Aperture macros list end*
%ADD10C,0.150000*%
%ADD11C,0.120000*%
%ADD12RoundRect,0.050000X0.800000X-0.800000X0.800000X0.800000X-0.800000X0.800000X-0.800000X-0.800000X0*%
%ADD13O,1.700000X1.700000*%
%ADD14C,1.500000*%
%ADD15O,1.500000X1.500000*%
%ADD16C,2.100000*%
%ADD17RoundRect,0.050000X-1.400000X-1.800000X1.400000X-1.800000X1.400000X1.800000X-1.400000X1.800000X0*%
%ADD18C,5.100000*%
%ADD19C,1.800000*%
%ADD20RoundRect,0.050000X-0.850000X-0.850000X0.850000X-0.850000X0.850000X0.850000X-0.850000X0.850000X0*%
%ADD21C,2.800000*%
%TA.AperFunction,Profile*%
%ADD22C,0.050000*%
%TD*%
G04 APERTURE END LIST*
D10*
X60223333Y-78454819D02*
X60223333Y-79169104D01*
X60223333Y-79169104D02*
X60270952Y-79311961D01*
X60270952Y-79311961D02*
X60366190Y-79407200D01*
X60366190Y-79407200D02*
X60509047Y-79454819D01*
X60509047Y-79454819D02*
X60604285Y-79454819D01*
X59223333Y-79454819D02*
X59794761Y-79454819D01*
X59509047Y-79454819D02*
X59509047Y-78454819D01*
X59509047Y-78454819D02*
X59604285Y-78597676D01*
X59604285Y-78597676D02*
X59699523Y-78692914D01*
X59699523Y-78692914D02*
X59794761Y-78740533D01*
D11*
%TO.C,J1*%
X77526000Y-74000000D02*
G75*
G02*
X74368000Y-77158000I-3158000J0D01*
G01*
X74368000Y-41378000D02*
G75*
G02*
X77526000Y-44536000I0J-3158000D01*
G01*
X71210000Y-43188000D02*
G75*
G02*
X73016000Y-41378000I1808000J2000D01*
G01*
X46764000Y-41378000D02*
G75*
G02*
X48570000Y-43188000I-2000J-1808000D01*
G01*
X45412000Y-77158000D02*
G75*
G02*
X42254000Y-74000000I1J3158001D01*
G01*
X42254000Y-44536000D02*
G75*
G02*
X45412000Y-41378000I3158001J-1D01*
G01*
X77526000Y-74000000D02*
X77526000Y-44536000D01*
X74478000Y-68522000D02*
X74478000Y-53824000D01*
X74368000Y-77158000D02*
X45412000Y-77158000D01*
X73018000Y-41378000D02*
X74370000Y-41378000D01*
X71210000Y-47474000D02*
X71210000Y-43186000D01*
X48570000Y-47474000D02*
X71210000Y-47474000D01*
X48570000Y-47474000D02*
X48570000Y-43186000D01*
X46762000Y-41378000D02*
X45410000Y-41378000D01*
X45302000Y-68522000D02*
X74478000Y-68522000D01*
X45302000Y-68522000D02*
X45302000Y-53824000D01*
X45302000Y-53824000D02*
X74478000Y-53824000D01*
X42254000Y-74000000D02*
X42254000Y-44536000D01*
%TD*%
%LPC*%
D12*
%TO.C,A1*%
X76000000Y-87000000D03*
D13*
X78540000Y-87000000D03*
X81080000Y-87000000D03*
X83620000Y-87000000D03*
X86160000Y-87000000D03*
X88700000Y-87000000D03*
X91240000Y-87000000D03*
X93780000Y-87000000D03*
X98860000Y-87000000D03*
X101400000Y-87000000D03*
X103940000Y-87000000D03*
X106480000Y-87000000D03*
X109020000Y-87000000D03*
X111560000Y-87000000D03*
X111560000Y-135260000D03*
X109020000Y-135260000D03*
X106480000Y-135260000D03*
X103940000Y-135260000D03*
X101400000Y-135260000D03*
X98860000Y-135260000D03*
X96320000Y-135260000D03*
X93780000Y-135260000D03*
X89720000Y-135260000D03*
X87180000Y-135260000D03*
X84640000Y-135260000D03*
X82100000Y-135260000D03*
X79560000Y-135260000D03*
X77020000Y-135260000D03*
X74480000Y-135260000D03*
X71940000Y-135260000D03*
X69400000Y-135260000D03*
X66860000Y-135260000D03*
%TD*%
D14*
%TO.C,R1*%
X115000000Y-67000000D03*
D15*
X109920000Y-67000000D03*
%TD*%
D14*
%TO.C,R2*%
X100920000Y-64000000D03*
D15*
X95840000Y-64000000D03*
%TD*%
D14*
%TO.C,R3*%
X89000000Y-64000000D03*
D15*
X83920000Y-64000000D03*
%TD*%
D16*
%TO.C,S1*%
X110200000Y-44000000D03*
X115200000Y-44000000D03*
D17*
X107000000Y-51000000D03*
X118400000Y-51000000D03*
D16*
X110200000Y-58500000D03*
X115200000Y-58500000D03*
X112700000Y-58500000D03*
%TD*%
%TO.C,SW1*%
X95000000Y-44000000D03*
X101500000Y-44000000D03*
X95000000Y-48500000D03*
X101500000Y-48500000D03*
%TD*%
%TO.C,SW2*%
X83000000Y-44000000D03*
X89500000Y-44000000D03*
X83000000Y-48500000D03*
X89500000Y-48500000D03*
%TD*%
D18*
%TO.C,H1*%
X120000000Y-135000000D03*
%TD*%
%TO.C,H2*%
X95000000Y-55000000D03*
%TD*%
%TO.C,H3*%
X45000000Y-81500000D03*
%TD*%
D19*
%TO.C,J1*%
X68780000Y-74000000D03*
X66240000Y-74000000D03*
X63700000Y-74000000D03*
X61160000Y-74000000D03*
X58620000Y-74000000D03*
X56080000Y-74000000D03*
X53540000Y-74000000D03*
D20*
X51000000Y-74000000D03*
D21*
X74368000Y-74000000D03*
X74368000Y-44536000D03*
X45412000Y-74000000D03*
X45412000Y-44536000D03*
%TD*%
%LPD*%
D22*
X40000000Y-40000000D02*
X40000000Y-85500000D01*
X60320000Y-85500000D02*
X60325000Y-140000000D01*
X40000000Y-85500000D02*
X60320000Y-85500000D01*
X60325000Y-140000000D02*
X125000000Y-140000000D01*
X125000000Y-40000000D02*
X40000000Y-40000000D01*
X125000000Y-140000000D02*
X125000000Y-40000000D01*
M02*
