%TF.GenerationSoftware,KiCad,Pcbnew,8.0.3*%
%TF.CreationDate,2024-07-30T19:30:49-07:00*%
%TF.ProjectId,ardxp1,61726478-7031-42e6-9b69-6361645f7063,v0.1*%
%TF.SameCoordinates,Original*%
%TF.FileFunction,Legend,Top*%
%TF.FilePolarity,Positive*%
%FSLAX46Y46*%
G04 Gerber Fmt 4.6, Leading zero omitted, Abs format (unit mm)*
G04 Created by KiCad (PCBNEW 8.0.3) date 2024-07-30 19:30:49*
%MOMM*%
%LPD*%
G01*
G04 APERTURE LIST*
G04 Aperture macros list*
%AMRoundRect*
0 Rectangle with rounded corners*
0 $1 Rounding radius*
0 $2 $3 $4 $5 $6 $7 $8 $9 X,Y pos of 4 corners*
0 Add a 4 corners polygon primitive as box body*
4,1,4,$2,$3,$4,$5,$6,$7,$8,$9,$2,$3,0*
0 Add four circle primitives for the rounded corners*
1,1,$1+$1,$2,$3*
1,1,$1+$1,$4,$5*
1,1,$1+$1,$6,$7*
1,1,$1+$1,$8,$9*
0 Add four rect primitives between the rounded corners*
20,1,$1+$1,$2,$3,$4,$5,0*
20,1,$1+$1,$4,$5,$6,$7,0*
20,1,$1+$1,$6,$7,$8,$9,0*
20,1,$1+$1,$8,$9,$2,$3,0*%
G04 Aperture macros list end*
%ADD10C,0.150000*%
%ADD11C,0.120000*%
%ADD12C,0.100000*%
%ADD13RoundRect,0.050000X0.800000X-0.800000X0.800000X0.800000X-0.800000X0.800000X-0.800000X-0.800000X0*%
%ADD14O,1.700000X1.700000*%
%ADD15C,1.500000*%
%ADD16O,1.500000X1.500000*%
%ADD17C,2.100000*%
%ADD18RoundRect,0.050000X-1.400000X-1.800000X1.400000X-1.800000X1.400000X1.800000X-1.400000X1.800000X0*%
%ADD19C,5.100000*%
%ADD20C,1.800000*%
%ADD21RoundRect,0.050000X-0.850000X-0.850000X0.850000X-0.850000X0.850000X0.850000X-0.850000X0.850000X0*%
%ADD22C,2.800000*%
%TA.AperFunction,Profile*%
%ADD23C,0.050000*%
%TD*%
G04 APERTURE END LIST*
D10*
X48952379Y-55954819D02*
X48952379Y-54954819D01*
X48952379Y-54954819D02*
X49333331Y-54954819D01*
X49333331Y-54954819D02*
X49428569Y-55002438D01*
X49428569Y-55002438D02*
X49476188Y-55050057D01*
X49476188Y-55050057D02*
X49523807Y-55145295D01*
X49523807Y-55145295D02*
X49523807Y-55288152D01*
X49523807Y-55288152D02*
X49476188Y-55383390D01*
X49476188Y-55383390D02*
X49428569Y-55431009D01*
X49428569Y-55431009D02*
X49333331Y-55478628D01*
X49333331Y-55478628D02*
X48952379Y-55478628D01*
X50380950Y-55288152D02*
X50380950Y-55954819D01*
X49952379Y-55288152D02*
X49952379Y-55811961D01*
X49952379Y-55811961D02*
X49999998Y-55907200D01*
X49999998Y-55907200D02*
X50095236Y-55954819D01*
X50095236Y-55954819D02*
X50238093Y-55954819D01*
X50238093Y-55954819D02*
X50333331Y-55907200D01*
X50333331Y-55907200D02*
X50380950Y-55859580D01*
X50714284Y-55288152D02*
X51095236Y-55288152D01*
X50857141Y-54954819D02*
X50857141Y-55811961D01*
X50857141Y-55811961D02*
X50904760Y-55907200D01*
X50904760Y-55907200D02*
X50999998Y-55954819D01*
X50999998Y-55954819D02*
X51095236Y-55954819D01*
X52190475Y-55954819D02*
X52190475Y-54954819D01*
X52190475Y-54954819D02*
X52428570Y-54954819D01*
X52428570Y-54954819D02*
X52571427Y-55002438D01*
X52571427Y-55002438D02*
X52666665Y-55097676D01*
X52666665Y-55097676D02*
X52714284Y-55192914D01*
X52714284Y-55192914D02*
X52761903Y-55383390D01*
X52761903Y-55383390D02*
X52761903Y-55526247D01*
X52761903Y-55526247D02*
X52714284Y-55716723D01*
X52714284Y-55716723D02*
X52666665Y-55811961D01*
X52666665Y-55811961D02*
X52571427Y-55907200D01*
X52571427Y-55907200D02*
X52428570Y-55954819D01*
X52428570Y-55954819D02*
X52190475Y-55954819D01*
X53190475Y-55954819D02*
X53190475Y-55288152D01*
X53190475Y-54954819D02*
X53142856Y-55002438D01*
X53142856Y-55002438D02*
X53190475Y-55050057D01*
X53190475Y-55050057D02*
X53238094Y-55002438D01*
X53238094Y-55002438D02*
X53190475Y-54954819D01*
X53190475Y-54954819D02*
X53190475Y-55050057D01*
X53619046Y-55907200D02*
X53714284Y-55954819D01*
X53714284Y-55954819D02*
X53904760Y-55954819D01*
X53904760Y-55954819D02*
X53999998Y-55907200D01*
X53999998Y-55907200D02*
X54047617Y-55811961D01*
X54047617Y-55811961D02*
X54047617Y-55764342D01*
X54047617Y-55764342D02*
X53999998Y-55669104D01*
X53999998Y-55669104D02*
X53904760Y-55621485D01*
X53904760Y-55621485D02*
X53761903Y-55621485D01*
X53761903Y-55621485D02*
X53666665Y-55573866D01*
X53666665Y-55573866D02*
X53619046Y-55478628D01*
X53619046Y-55478628D02*
X53619046Y-55431009D01*
X53619046Y-55431009D02*
X53666665Y-55335771D01*
X53666665Y-55335771D02*
X53761903Y-55288152D01*
X53761903Y-55288152D02*
X53904760Y-55288152D01*
X53904760Y-55288152D02*
X53999998Y-55335771D01*
X54476189Y-55288152D02*
X54476189Y-56288152D01*
X54476189Y-55335771D02*
X54571427Y-55288152D01*
X54571427Y-55288152D02*
X54761903Y-55288152D01*
X54761903Y-55288152D02*
X54857141Y-55335771D01*
X54857141Y-55335771D02*
X54904760Y-55383390D01*
X54904760Y-55383390D02*
X54952379Y-55478628D01*
X54952379Y-55478628D02*
X54952379Y-55764342D01*
X54952379Y-55764342D02*
X54904760Y-55859580D01*
X54904760Y-55859580D02*
X54857141Y-55907200D01*
X54857141Y-55907200D02*
X54761903Y-55954819D01*
X54761903Y-55954819D02*
X54571427Y-55954819D01*
X54571427Y-55954819D02*
X54476189Y-55907200D01*
X55523808Y-55954819D02*
X55428570Y-55907200D01*
X55428570Y-55907200D02*
X55380951Y-55811961D01*
X55380951Y-55811961D02*
X55380951Y-54954819D01*
X56333332Y-55954819D02*
X56333332Y-55431009D01*
X56333332Y-55431009D02*
X56285713Y-55335771D01*
X56285713Y-55335771D02*
X56190475Y-55288152D01*
X56190475Y-55288152D02*
X55999999Y-55288152D01*
X55999999Y-55288152D02*
X55904761Y-55335771D01*
X56333332Y-55907200D02*
X56238094Y-55954819D01*
X56238094Y-55954819D02*
X55999999Y-55954819D01*
X55999999Y-55954819D02*
X55904761Y-55907200D01*
X55904761Y-55907200D02*
X55857142Y-55811961D01*
X55857142Y-55811961D02*
X55857142Y-55716723D01*
X55857142Y-55716723D02*
X55904761Y-55621485D01*
X55904761Y-55621485D02*
X55999999Y-55573866D01*
X55999999Y-55573866D02*
X56238094Y-55573866D01*
X56238094Y-55573866D02*
X56333332Y-55526247D01*
X56714285Y-55288152D02*
X56952380Y-55954819D01*
X57190475Y-55288152D02*
X56952380Y-55954819D01*
X56952380Y-55954819D02*
X56857142Y-56192914D01*
X56857142Y-56192914D02*
X56809523Y-56240533D01*
X56809523Y-56240533D02*
X56714285Y-56288152D01*
X58619047Y-56335771D02*
X58571428Y-56288152D01*
X58571428Y-56288152D02*
X58476190Y-56145295D01*
X58476190Y-56145295D02*
X58428571Y-56050057D01*
X58428571Y-56050057D02*
X58380952Y-55907200D01*
X58380952Y-55907200D02*
X58333333Y-55669104D01*
X58333333Y-55669104D02*
X58333333Y-55478628D01*
X58333333Y-55478628D02*
X58380952Y-55240533D01*
X58380952Y-55240533D02*
X58428571Y-55097676D01*
X58428571Y-55097676D02*
X58476190Y-55002438D01*
X58476190Y-55002438D02*
X58571428Y-54859580D01*
X58571428Y-54859580D02*
X58619047Y-54811961D01*
X59285714Y-54954819D02*
X59285714Y-55669104D01*
X59285714Y-55669104D02*
X59238095Y-55811961D01*
X59238095Y-55811961D02*
X59142857Y-55907200D01*
X59142857Y-55907200D02*
X59000000Y-55954819D01*
X59000000Y-55954819D02*
X58904762Y-55954819D01*
X60285714Y-55954819D02*
X59714286Y-55954819D01*
X60000000Y-55954819D02*
X60000000Y-54954819D01*
X60000000Y-54954819D02*
X59904762Y-55097676D01*
X59904762Y-55097676D02*
X59809524Y-55192914D01*
X59809524Y-55192914D02*
X59714286Y-55240533D01*
X60619048Y-56335771D02*
X60666667Y-56288152D01*
X60666667Y-56288152D02*
X60761905Y-56145295D01*
X60761905Y-56145295D02*
X60809524Y-56050057D01*
X60809524Y-56050057D02*
X60857143Y-55907200D01*
X60857143Y-55907200D02*
X60904762Y-55669104D01*
X60904762Y-55669104D02*
X60904762Y-55478628D01*
X60904762Y-55478628D02*
X60857143Y-55240533D01*
X60857143Y-55240533D02*
X60809524Y-55097676D01*
X60809524Y-55097676D02*
X60761905Y-55002438D01*
X60761905Y-55002438D02*
X60666667Y-54859580D01*
X60666667Y-54859580D02*
X60619048Y-54811961D01*
X62476191Y-55431009D02*
X62142858Y-55431009D01*
X62142858Y-55954819D02*
X62142858Y-54954819D01*
X62142858Y-54954819D02*
X62619048Y-54954819D01*
X63428572Y-55954819D02*
X63428572Y-55431009D01*
X63428572Y-55431009D02*
X63380953Y-55335771D01*
X63380953Y-55335771D02*
X63285715Y-55288152D01*
X63285715Y-55288152D02*
X63095239Y-55288152D01*
X63095239Y-55288152D02*
X63000001Y-55335771D01*
X63428572Y-55907200D02*
X63333334Y-55954819D01*
X63333334Y-55954819D02*
X63095239Y-55954819D01*
X63095239Y-55954819D02*
X63000001Y-55907200D01*
X63000001Y-55907200D02*
X62952382Y-55811961D01*
X62952382Y-55811961D02*
X62952382Y-55716723D01*
X62952382Y-55716723D02*
X63000001Y-55621485D01*
X63000001Y-55621485D02*
X63095239Y-55573866D01*
X63095239Y-55573866D02*
X63333334Y-55573866D01*
X63333334Y-55573866D02*
X63428572Y-55526247D01*
X64333334Y-55907200D02*
X64238096Y-55954819D01*
X64238096Y-55954819D02*
X64047620Y-55954819D01*
X64047620Y-55954819D02*
X63952382Y-55907200D01*
X63952382Y-55907200D02*
X63904763Y-55859580D01*
X63904763Y-55859580D02*
X63857144Y-55764342D01*
X63857144Y-55764342D02*
X63857144Y-55478628D01*
X63857144Y-55478628D02*
X63904763Y-55383390D01*
X63904763Y-55383390D02*
X63952382Y-55335771D01*
X63952382Y-55335771D02*
X64047620Y-55288152D01*
X64047620Y-55288152D02*
X64238096Y-55288152D01*
X64238096Y-55288152D02*
X64333334Y-55335771D01*
X64761906Y-55954819D02*
X64761906Y-55288152D01*
X64761906Y-54954819D02*
X64714287Y-55002438D01*
X64714287Y-55002438D02*
X64761906Y-55050057D01*
X64761906Y-55050057D02*
X64809525Y-55002438D01*
X64809525Y-55002438D02*
X64761906Y-54954819D01*
X64761906Y-54954819D02*
X64761906Y-55050057D01*
X65238096Y-55288152D02*
X65238096Y-55954819D01*
X65238096Y-55383390D02*
X65285715Y-55335771D01*
X65285715Y-55335771D02*
X65380953Y-55288152D01*
X65380953Y-55288152D02*
X65523810Y-55288152D01*
X65523810Y-55288152D02*
X65619048Y-55335771D01*
X65619048Y-55335771D02*
X65666667Y-55431009D01*
X65666667Y-55431009D02*
X65666667Y-55954819D01*
X66571429Y-55288152D02*
X66571429Y-56097676D01*
X66571429Y-56097676D02*
X66523810Y-56192914D01*
X66523810Y-56192914D02*
X66476191Y-56240533D01*
X66476191Y-56240533D02*
X66380953Y-56288152D01*
X66380953Y-56288152D02*
X66238096Y-56288152D01*
X66238096Y-56288152D02*
X66142858Y-56240533D01*
X66571429Y-55907200D02*
X66476191Y-55954819D01*
X66476191Y-55954819D02*
X66285715Y-55954819D01*
X66285715Y-55954819D02*
X66190477Y-55907200D01*
X66190477Y-55907200D02*
X66142858Y-55859580D01*
X66142858Y-55859580D02*
X66095239Y-55764342D01*
X66095239Y-55764342D02*
X66095239Y-55478628D01*
X66095239Y-55478628D02*
X66142858Y-55383390D01*
X66142858Y-55383390D02*
X66190477Y-55335771D01*
X66190477Y-55335771D02*
X66285715Y-55288152D01*
X66285715Y-55288152D02*
X66476191Y-55288152D01*
X66476191Y-55288152D02*
X66571429Y-55335771D01*
X67809525Y-54954819D02*
X67809525Y-55764342D01*
X67809525Y-55764342D02*
X67857144Y-55859580D01*
X67857144Y-55859580D02*
X67904763Y-55907200D01*
X67904763Y-55907200D02*
X68000001Y-55954819D01*
X68000001Y-55954819D02*
X68190477Y-55954819D01*
X68190477Y-55954819D02*
X68285715Y-55907200D01*
X68285715Y-55907200D02*
X68333334Y-55859580D01*
X68333334Y-55859580D02*
X68380953Y-55764342D01*
X68380953Y-55764342D02*
X68380953Y-54954819D01*
X68857144Y-55288152D02*
X68857144Y-56288152D01*
X68857144Y-55335771D02*
X68952382Y-55288152D01*
X68952382Y-55288152D02*
X69142858Y-55288152D01*
X69142858Y-55288152D02*
X69238096Y-55335771D01*
X69238096Y-55335771D02*
X69285715Y-55383390D01*
X69285715Y-55383390D02*
X69333334Y-55478628D01*
X69333334Y-55478628D02*
X69333334Y-55764342D01*
X69333334Y-55764342D02*
X69285715Y-55859580D01*
X69285715Y-55859580D02*
X69238096Y-55907200D01*
X69238096Y-55907200D02*
X69142858Y-55954819D01*
X69142858Y-55954819D02*
X68952382Y-55954819D01*
X68952382Y-55954819D02*
X68857144Y-55907200D01*
X112293333Y-69374819D02*
X111960000Y-68898628D01*
X111721905Y-69374819D02*
X111721905Y-68374819D01*
X111721905Y-68374819D02*
X112102857Y-68374819D01*
X112102857Y-68374819D02*
X112198095Y-68422438D01*
X112198095Y-68422438D02*
X112245714Y-68470057D01*
X112245714Y-68470057D02*
X112293333Y-68565295D01*
X112293333Y-68565295D02*
X112293333Y-68708152D01*
X112293333Y-68708152D02*
X112245714Y-68803390D01*
X112245714Y-68803390D02*
X112198095Y-68851009D01*
X112198095Y-68851009D02*
X112102857Y-68898628D01*
X112102857Y-68898628D02*
X111721905Y-68898628D01*
X113245714Y-69374819D02*
X112674286Y-69374819D01*
X112960000Y-69374819D02*
X112960000Y-68374819D01*
X112960000Y-68374819D02*
X112864762Y-68517676D01*
X112864762Y-68517676D02*
X112769524Y-68612914D01*
X112769524Y-68612914D02*
X112674286Y-68660533D01*
X98213333Y-66374819D02*
X97880000Y-65898628D01*
X97641905Y-66374819D02*
X97641905Y-65374819D01*
X97641905Y-65374819D02*
X98022857Y-65374819D01*
X98022857Y-65374819D02*
X98118095Y-65422438D01*
X98118095Y-65422438D02*
X98165714Y-65470057D01*
X98165714Y-65470057D02*
X98213333Y-65565295D01*
X98213333Y-65565295D02*
X98213333Y-65708152D01*
X98213333Y-65708152D02*
X98165714Y-65803390D01*
X98165714Y-65803390D02*
X98118095Y-65851009D01*
X98118095Y-65851009D02*
X98022857Y-65898628D01*
X98022857Y-65898628D02*
X97641905Y-65898628D01*
X98594286Y-65470057D02*
X98641905Y-65422438D01*
X98641905Y-65422438D02*
X98737143Y-65374819D01*
X98737143Y-65374819D02*
X98975238Y-65374819D01*
X98975238Y-65374819D02*
X99070476Y-65422438D01*
X99070476Y-65422438D02*
X99118095Y-65470057D01*
X99118095Y-65470057D02*
X99165714Y-65565295D01*
X99165714Y-65565295D02*
X99165714Y-65660533D01*
X99165714Y-65660533D02*
X99118095Y-65803390D01*
X99118095Y-65803390D02*
X98546667Y-66374819D01*
X98546667Y-66374819D02*
X99165714Y-66374819D01*
X86293333Y-66374819D02*
X85960000Y-65898628D01*
X85721905Y-66374819D02*
X85721905Y-65374819D01*
X85721905Y-65374819D02*
X86102857Y-65374819D01*
X86102857Y-65374819D02*
X86198095Y-65422438D01*
X86198095Y-65422438D02*
X86245714Y-65470057D01*
X86245714Y-65470057D02*
X86293333Y-65565295D01*
X86293333Y-65565295D02*
X86293333Y-65708152D01*
X86293333Y-65708152D02*
X86245714Y-65803390D01*
X86245714Y-65803390D02*
X86198095Y-65851009D01*
X86198095Y-65851009D02*
X86102857Y-65898628D01*
X86102857Y-65898628D02*
X85721905Y-65898628D01*
X86626667Y-65374819D02*
X87245714Y-65374819D01*
X87245714Y-65374819D02*
X86912381Y-65755771D01*
X86912381Y-65755771D02*
X87055238Y-65755771D01*
X87055238Y-65755771D02*
X87150476Y-65803390D01*
X87150476Y-65803390D02*
X87198095Y-65851009D01*
X87198095Y-65851009D02*
X87245714Y-65946247D01*
X87245714Y-65946247D02*
X87245714Y-66184342D01*
X87245714Y-66184342D02*
X87198095Y-66279580D01*
X87198095Y-66279580D02*
X87150476Y-66327200D01*
X87150476Y-66327200D02*
X87055238Y-66374819D01*
X87055238Y-66374819D02*
X86769524Y-66374819D01*
X86769524Y-66374819D02*
X86674286Y-66327200D01*
X86674286Y-66327200D02*
X86626667Y-66279580D01*
X111513095Y-42007200D02*
X111655952Y-42054819D01*
X111655952Y-42054819D02*
X111894047Y-42054819D01*
X111894047Y-42054819D02*
X111989285Y-42007200D01*
X111989285Y-42007200D02*
X112036904Y-41959580D01*
X112036904Y-41959580D02*
X112084523Y-41864342D01*
X112084523Y-41864342D02*
X112084523Y-41769104D01*
X112084523Y-41769104D02*
X112036904Y-41673866D01*
X112036904Y-41673866D02*
X111989285Y-41626247D01*
X111989285Y-41626247D02*
X111894047Y-41578628D01*
X111894047Y-41578628D02*
X111703571Y-41531009D01*
X111703571Y-41531009D02*
X111608333Y-41483390D01*
X111608333Y-41483390D02*
X111560714Y-41435771D01*
X111560714Y-41435771D02*
X111513095Y-41340533D01*
X111513095Y-41340533D02*
X111513095Y-41245295D01*
X111513095Y-41245295D02*
X111560714Y-41150057D01*
X111560714Y-41150057D02*
X111608333Y-41102438D01*
X111608333Y-41102438D02*
X111703571Y-41054819D01*
X111703571Y-41054819D02*
X111941666Y-41054819D01*
X111941666Y-41054819D02*
X112084523Y-41102438D01*
X113036904Y-42054819D02*
X112465476Y-42054819D01*
X112751190Y-42054819D02*
X112751190Y-41054819D01*
X112751190Y-41054819D02*
X112655952Y-41197676D01*
X112655952Y-41197676D02*
X112560714Y-41292914D01*
X112560714Y-41292914D02*
X112465476Y-41340533D01*
X96916667Y-42407200D02*
X97059524Y-42454819D01*
X97059524Y-42454819D02*
X97297619Y-42454819D01*
X97297619Y-42454819D02*
X97392857Y-42407200D01*
X97392857Y-42407200D02*
X97440476Y-42359580D01*
X97440476Y-42359580D02*
X97488095Y-42264342D01*
X97488095Y-42264342D02*
X97488095Y-42169104D01*
X97488095Y-42169104D02*
X97440476Y-42073866D01*
X97440476Y-42073866D02*
X97392857Y-42026247D01*
X97392857Y-42026247D02*
X97297619Y-41978628D01*
X97297619Y-41978628D02*
X97107143Y-41931009D01*
X97107143Y-41931009D02*
X97011905Y-41883390D01*
X97011905Y-41883390D02*
X96964286Y-41835771D01*
X96964286Y-41835771D02*
X96916667Y-41740533D01*
X96916667Y-41740533D02*
X96916667Y-41645295D01*
X96916667Y-41645295D02*
X96964286Y-41550057D01*
X96964286Y-41550057D02*
X97011905Y-41502438D01*
X97011905Y-41502438D02*
X97107143Y-41454819D01*
X97107143Y-41454819D02*
X97345238Y-41454819D01*
X97345238Y-41454819D02*
X97488095Y-41502438D01*
X97821429Y-41454819D02*
X98059524Y-42454819D01*
X98059524Y-42454819D02*
X98250000Y-41740533D01*
X98250000Y-41740533D02*
X98440476Y-42454819D01*
X98440476Y-42454819D02*
X98678572Y-41454819D01*
X99583333Y-42454819D02*
X99011905Y-42454819D01*
X99297619Y-42454819D02*
X99297619Y-41454819D01*
X99297619Y-41454819D02*
X99202381Y-41597676D01*
X99202381Y-41597676D02*
X99107143Y-41692914D01*
X99107143Y-41692914D02*
X99011905Y-41740533D01*
X84916667Y-42407200D02*
X85059524Y-42454819D01*
X85059524Y-42454819D02*
X85297619Y-42454819D01*
X85297619Y-42454819D02*
X85392857Y-42407200D01*
X85392857Y-42407200D02*
X85440476Y-42359580D01*
X85440476Y-42359580D02*
X85488095Y-42264342D01*
X85488095Y-42264342D02*
X85488095Y-42169104D01*
X85488095Y-42169104D02*
X85440476Y-42073866D01*
X85440476Y-42073866D02*
X85392857Y-42026247D01*
X85392857Y-42026247D02*
X85297619Y-41978628D01*
X85297619Y-41978628D02*
X85107143Y-41931009D01*
X85107143Y-41931009D02*
X85011905Y-41883390D01*
X85011905Y-41883390D02*
X84964286Y-41835771D01*
X84964286Y-41835771D02*
X84916667Y-41740533D01*
X84916667Y-41740533D02*
X84916667Y-41645295D01*
X84916667Y-41645295D02*
X84964286Y-41550057D01*
X84964286Y-41550057D02*
X85011905Y-41502438D01*
X85011905Y-41502438D02*
X85107143Y-41454819D01*
X85107143Y-41454819D02*
X85345238Y-41454819D01*
X85345238Y-41454819D02*
X85488095Y-41502438D01*
X85821429Y-41454819D02*
X86059524Y-42454819D01*
X86059524Y-42454819D02*
X86250000Y-41740533D01*
X86250000Y-41740533D02*
X86440476Y-42454819D01*
X86440476Y-42454819D02*
X86678572Y-41454819D01*
X87011905Y-41550057D02*
X87059524Y-41502438D01*
X87059524Y-41502438D02*
X87154762Y-41454819D01*
X87154762Y-41454819D02*
X87392857Y-41454819D01*
X87392857Y-41454819D02*
X87488095Y-41502438D01*
X87488095Y-41502438D02*
X87535714Y-41550057D01*
X87535714Y-41550057D02*
X87583333Y-41645295D01*
X87583333Y-41645295D02*
X87583333Y-41740533D01*
X87583333Y-41740533D02*
X87535714Y-41883390D01*
X87535714Y-41883390D02*
X86964286Y-42454819D01*
X86964286Y-42454819D02*
X87583333Y-42454819D01*
X119238095Y-131954819D02*
X119238095Y-130954819D01*
X119238095Y-131431009D02*
X119809523Y-131431009D01*
X119809523Y-131954819D02*
X119809523Y-130954819D01*
X120809523Y-131954819D02*
X120238095Y-131954819D01*
X120523809Y-131954819D02*
X120523809Y-130954819D01*
X120523809Y-130954819D02*
X120428571Y-131097676D01*
X120428571Y-131097676D02*
X120333333Y-131192914D01*
X120333333Y-131192914D02*
X120238095Y-131240533D01*
X94238095Y-60454819D02*
X94238095Y-59454819D01*
X94238095Y-59931009D02*
X94809523Y-59931009D01*
X94809523Y-60454819D02*
X94809523Y-59454819D01*
X95238095Y-59550057D02*
X95285714Y-59502438D01*
X95285714Y-59502438D02*
X95380952Y-59454819D01*
X95380952Y-59454819D02*
X95619047Y-59454819D01*
X95619047Y-59454819D02*
X95714285Y-59502438D01*
X95714285Y-59502438D02*
X95761904Y-59550057D01*
X95761904Y-59550057D02*
X95809523Y-59645295D01*
X95809523Y-59645295D02*
X95809523Y-59740533D01*
X95809523Y-59740533D02*
X95761904Y-59883390D01*
X95761904Y-59883390D02*
X95190476Y-60454819D01*
X95190476Y-60454819D02*
X95809523Y-60454819D01*
X44238095Y-78454819D02*
X44238095Y-77454819D01*
X44238095Y-77931009D02*
X44809523Y-77931009D01*
X44809523Y-78454819D02*
X44809523Y-77454819D01*
X45190476Y-77454819D02*
X45809523Y-77454819D01*
X45809523Y-77454819D02*
X45476190Y-77835771D01*
X45476190Y-77835771D02*
X45619047Y-77835771D01*
X45619047Y-77835771D02*
X45714285Y-77883390D01*
X45714285Y-77883390D02*
X45761904Y-77931009D01*
X45761904Y-77931009D02*
X45809523Y-78026247D01*
X45809523Y-78026247D02*
X45809523Y-78264342D01*
X45809523Y-78264342D02*
X45761904Y-78359580D01*
X45761904Y-78359580D02*
X45714285Y-78407200D01*
X45714285Y-78407200D02*
X45619047Y-78454819D01*
X45619047Y-78454819D02*
X45333333Y-78454819D01*
X45333333Y-78454819D02*
X45238095Y-78407200D01*
X45238095Y-78407200D02*
X45190476Y-78359580D01*
D11*
%TO.C,A1*%
X47930000Y-137930000D02*
X112580000Y-137930000D01*
X112580000Y-137930000D02*
X114230000Y-136280000D01*
X114230000Y-84330000D02*
X47930000Y-84330000D01*
X114230000Y-87000000D02*
X114230000Y-84330000D01*
X114230000Y-124850000D02*
X116770000Y-122310000D01*
X114230000Y-136280000D02*
X114230000Y-124850000D01*
X116770000Y-89540000D02*
X114230000Y-87000000D01*
X116770000Y-122310000D02*
X116770000Y-89540000D01*
%TO.C,R1*%
X114080000Y-67000000D02*
X110920000Y-67000000D01*
X115920000Y-67000000D02*
G75*
G02*
X114080000Y-67000000I-920000J0D01*
G01*
X114080000Y-67000000D02*
G75*
G02*
X115920000Y-67000000I920000J0D01*
G01*
%TO.C,R2*%
X100000000Y-64000000D02*
X96840000Y-64000000D01*
X101840000Y-64000000D02*
G75*
G02*
X100000000Y-64000000I-920000J0D01*
G01*
X100000000Y-64000000D02*
G75*
G02*
X101840000Y-64000000I920000J0D01*
G01*
%TO.C,R3*%
X88080000Y-64000000D02*
X84920000Y-64000000D01*
X89920000Y-64000000D02*
G75*
G02*
X88080000Y-64000000I-920000J0D01*
G01*
X88080000Y-64000000D02*
G75*
G02*
X89920000Y-64000000I920000J0D01*
G01*
D12*
%TO.C,S1*%
X106325000Y-44175000D02*
X106325000Y-44850000D01*
X106325000Y-57825000D02*
X106325000Y-57150000D01*
X107175000Y-44175000D02*
X106325000Y-44175000D01*
X107275000Y-57825000D02*
X106325000Y-57825000D01*
X118375000Y-44175000D02*
X119075000Y-44175000D01*
X119075000Y-44175000D02*
X119075000Y-44675000D01*
X119075000Y-57250000D02*
X119075000Y-57825000D01*
X119075000Y-57825000D02*
X118275000Y-57825000D01*
D11*
%TO.C,SW1*%
X94750000Y-45500000D02*
X94750000Y-47000000D01*
X96000000Y-49500000D02*
X100500000Y-49500000D01*
X100500000Y-43000000D02*
X96000000Y-43000000D01*
X101750000Y-47000000D02*
X101750000Y-45500000D01*
%TO.C,SW2*%
X82750000Y-45500000D02*
X82750000Y-47000000D01*
X84000000Y-49500000D02*
X88500000Y-49500000D01*
X88500000Y-43000000D02*
X84000000Y-43000000D01*
X89750000Y-47000000D02*
X89750000Y-45500000D01*
%TD*%
%LPC*%
D13*
%TO.C,A1*%
X76000000Y-87000000D03*
D14*
X78540000Y-87000000D03*
X81080000Y-87000000D03*
X83620000Y-87000000D03*
X86160000Y-87000000D03*
X88700000Y-87000000D03*
X91240000Y-87000000D03*
X93780000Y-87000000D03*
X98860000Y-87000000D03*
X101400000Y-87000000D03*
X103940000Y-87000000D03*
X106480000Y-87000000D03*
X109020000Y-87000000D03*
X111560000Y-87000000D03*
X111560000Y-135260000D03*
X109020000Y-135260000D03*
X106480000Y-135260000D03*
X103940000Y-135260000D03*
X101400000Y-135260000D03*
X98860000Y-135260000D03*
X96320000Y-135260000D03*
X93780000Y-135260000D03*
X89720000Y-135260000D03*
X87180000Y-135260000D03*
X84640000Y-135260000D03*
X82100000Y-135260000D03*
X79560000Y-135260000D03*
X77020000Y-135260000D03*
X74480000Y-135260000D03*
X71940000Y-135260000D03*
X69400000Y-135260000D03*
X66860000Y-135260000D03*
%TD*%
D15*
%TO.C,R1*%
X115000000Y-67000000D03*
D16*
X109920000Y-67000000D03*
%TD*%
D15*
%TO.C,R2*%
X100920000Y-64000000D03*
D16*
X95840000Y-64000000D03*
%TD*%
D15*
%TO.C,R3*%
X89000000Y-64000000D03*
D16*
X83920000Y-64000000D03*
%TD*%
D17*
%TO.C,S1*%
X110200000Y-44000000D03*
X115200000Y-44000000D03*
D18*
X107000000Y-51000000D03*
X118400000Y-51000000D03*
D17*
X110200000Y-58500000D03*
X115200000Y-58500000D03*
X112700000Y-58500000D03*
%TD*%
%TO.C,SW1*%
X95000000Y-44000000D03*
X101500000Y-44000000D03*
X95000000Y-48500000D03*
X101500000Y-48500000D03*
%TD*%
%TO.C,SW2*%
X83000000Y-44000000D03*
X89500000Y-44000000D03*
X83000000Y-48500000D03*
X89500000Y-48500000D03*
%TD*%
D19*
%TO.C,H1*%
X120000000Y-135000000D03*
%TD*%
%TO.C,H2*%
X95000000Y-55000000D03*
%TD*%
%TO.C,H3*%
X45000000Y-81500000D03*
%TD*%
D20*
%TO.C,J1*%
X68780000Y-74000000D03*
X66240000Y-74000000D03*
X63700000Y-74000000D03*
X61160000Y-74000000D03*
X58620000Y-74000000D03*
X56080000Y-74000000D03*
X53540000Y-74000000D03*
D21*
X51000000Y-74000000D03*
D22*
X74368000Y-74000000D03*
X74368000Y-44536000D03*
X45412000Y-74000000D03*
X45412000Y-44536000D03*
%TD*%
%LPD*%
D23*
X40000000Y-40000000D02*
X40000000Y-85500000D01*
X60320000Y-85500000D02*
X60325000Y-140000000D01*
X40000000Y-85500000D02*
X60320000Y-85500000D01*
X60325000Y-140000000D02*
X125000000Y-140000000D01*
X125000000Y-40000000D02*
X40000000Y-40000000D01*
X125000000Y-140000000D02*
X125000000Y-40000000D01*
M02*
