%TF.GenerationSoftware,KiCad,Pcbnew,8.0.3*%
%TF.CreationDate,2024-07-30T19:31:25-07:00*%
%TF.ProjectId,ardxp1,61726478-7031-42e6-9b69-6361645f7063,v0.1*%
%TF.SameCoordinates,Original*%
%TF.FileFunction,Drillmap*%
%TF.FilePolarity,Positive*%
%FSLAX45Y45*%
G04 Gerber Fmt 4.5, Leading zero omitted, Abs format (unit mm)*
G04 Created by KiCad (PCBNEW 8.0.3) date 2024-07-30 19:31:25*
%MOMM*%
%LPD*%
G01*
G04 APERTURE LIST*
%ADD10C,0.050000*%
%ADD11C,0.200000*%
%ADD12C,0.270000*%
G04 APERTURE END LIST*
D10*
X4000000Y-4000000D02*
X4000000Y-8550000D01*
X6032000Y-8550000D02*
X6032500Y-14000000D01*
X4000000Y-8550000D02*
X6032000Y-8550000D01*
X6032500Y-14000000D02*
X12500000Y-14000000D01*
X12500000Y-4000000D02*
X4000000Y-4000000D01*
X12500000Y-14000000D02*
X12500000Y-4000000D01*
D11*
D12*
X4406200Y-4318600D02*
X4676200Y-4588600D01*
X4676200Y-4318600D02*
X4406200Y-4588600D01*
X4406200Y-7265000D02*
X4676200Y-7535000D01*
X4676200Y-7265000D02*
X4406200Y-7535000D01*
X7301800Y-4318600D02*
X7571800Y-4588600D01*
X7571800Y-4318600D02*
X7301800Y-4588600D01*
X7301800Y-7265000D02*
X7571800Y-7535000D01*
X7571800Y-7265000D02*
X7301800Y-7535000D01*
D11*
X4258277Y-14313984D02*
X4258277Y-14113984D01*
X4258277Y-14113984D02*
X4305896Y-14113984D01*
X4305896Y-14113984D02*
X4334467Y-14123508D01*
X4334467Y-14123508D02*
X4353515Y-14142555D01*
X4353515Y-14142555D02*
X4363039Y-14161603D01*
X4363039Y-14161603D02*
X4372563Y-14199698D01*
X4372563Y-14199698D02*
X4372563Y-14228269D01*
X4372563Y-14228269D02*
X4363039Y-14266365D01*
X4363039Y-14266365D02*
X4353515Y-14285412D01*
X4353515Y-14285412D02*
X4334467Y-14304460D01*
X4334467Y-14304460D02*
X4305896Y-14313984D01*
X4305896Y-14313984D02*
X4258277Y-14313984D01*
X4458277Y-14313984D02*
X4458277Y-14180650D01*
X4458277Y-14218746D02*
X4467801Y-14199698D01*
X4467801Y-14199698D02*
X4477324Y-14190174D01*
X4477324Y-14190174D02*
X4496372Y-14180650D01*
X4496372Y-14180650D02*
X4515420Y-14180650D01*
X4582086Y-14313984D02*
X4582086Y-14180650D01*
X4582086Y-14113984D02*
X4572563Y-14123508D01*
X4572563Y-14123508D02*
X4582086Y-14133031D01*
X4582086Y-14133031D02*
X4591610Y-14123508D01*
X4591610Y-14123508D02*
X4582086Y-14113984D01*
X4582086Y-14113984D02*
X4582086Y-14133031D01*
X4705896Y-14313984D02*
X4686848Y-14304460D01*
X4686848Y-14304460D02*
X4677324Y-14285412D01*
X4677324Y-14285412D02*
X4677324Y-14113984D01*
X4810658Y-14313984D02*
X4791610Y-14304460D01*
X4791610Y-14304460D02*
X4782086Y-14285412D01*
X4782086Y-14285412D02*
X4782086Y-14113984D01*
X5039229Y-14313984D02*
X5039229Y-14113984D01*
X5039229Y-14113984D02*
X5105896Y-14256841D01*
X5105896Y-14256841D02*
X5172563Y-14113984D01*
X5172563Y-14113984D02*
X5172563Y-14313984D01*
X5353515Y-14313984D02*
X5353515Y-14209222D01*
X5353515Y-14209222D02*
X5343991Y-14190174D01*
X5343991Y-14190174D02*
X5324944Y-14180650D01*
X5324944Y-14180650D02*
X5286848Y-14180650D01*
X5286848Y-14180650D02*
X5267801Y-14190174D01*
X5353515Y-14304460D02*
X5334467Y-14313984D01*
X5334467Y-14313984D02*
X5286848Y-14313984D01*
X5286848Y-14313984D02*
X5267801Y-14304460D01*
X5267801Y-14304460D02*
X5258277Y-14285412D01*
X5258277Y-14285412D02*
X5258277Y-14266365D01*
X5258277Y-14266365D02*
X5267801Y-14247317D01*
X5267801Y-14247317D02*
X5286848Y-14237793D01*
X5286848Y-14237793D02*
X5334467Y-14237793D01*
X5334467Y-14237793D02*
X5353515Y-14228269D01*
X5448753Y-14180650D02*
X5448753Y-14380650D01*
X5448753Y-14190174D02*
X5467801Y-14180650D01*
X5467801Y-14180650D02*
X5505896Y-14180650D01*
X5505896Y-14180650D02*
X5524944Y-14190174D01*
X5524944Y-14190174D02*
X5534467Y-14199698D01*
X5534467Y-14199698D02*
X5543991Y-14218746D01*
X5543991Y-14218746D02*
X5543991Y-14275888D01*
X5543991Y-14275888D02*
X5534467Y-14294936D01*
X5534467Y-14294936D02*
X5524944Y-14304460D01*
X5524944Y-14304460D02*
X5505896Y-14313984D01*
X5505896Y-14313984D02*
X5467801Y-14313984D01*
X5467801Y-14313984D02*
X5448753Y-14304460D01*
X5629705Y-14294936D02*
X5639229Y-14304460D01*
X5639229Y-14304460D02*
X5629705Y-14313984D01*
X5629705Y-14313984D02*
X5620182Y-14304460D01*
X5620182Y-14304460D02*
X5629705Y-14294936D01*
X5629705Y-14294936D02*
X5629705Y-14313984D01*
X5629705Y-14190174D02*
X5639229Y-14199698D01*
X5639229Y-14199698D02*
X5629705Y-14209222D01*
X5629705Y-14209222D02*
X5620182Y-14199698D01*
X5620182Y-14199698D02*
X5629705Y-14190174D01*
X5629705Y-14190174D02*
X5629705Y-14209222D01*
X3797500Y-14542500D02*
X3997500Y-14742500D01*
X3997500Y-14542500D02*
X3797500Y-14742500D01*
X4248753Y-14553031D02*
X4258277Y-14543508D01*
X4258277Y-14543508D02*
X4277324Y-14533984D01*
X4277324Y-14533984D02*
X4324944Y-14533984D01*
X4324944Y-14533984D02*
X4343991Y-14543508D01*
X4343991Y-14543508D02*
X4353515Y-14553031D01*
X4353515Y-14553031D02*
X4363039Y-14572079D01*
X4363039Y-14572079D02*
X4363039Y-14591127D01*
X4363039Y-14591127D02*
X4353515Y-14619698D01*
X4353515Y-14619698D02*
X4239229Y-14733984D01*
X4239229Y-14733984D02*
X4363039Y-14733984D01*
X4448753Y-14714936D02*
X4458277Y-14724460D01*
X4458277Y-14724460D02*
X4448753Y-14733984D01*
X4448753Y-14733984D02*
X4439229Y-14724460D01*
X4439229Y-14724460D02*
X4448753Y-14714936D01*
X4448753Y-14714936D02*
X4448753Y-14733984D01*
X4524944Y-14533984D02*
X4658277Y-14533984D01*
X4658277Y-14533984D02*
X4572563Y-14733984D01*
X4772563Y-14533984D02*
X4791610Y-14533984D01*
X4791610Y-14533984D02*
X4810658Y-14543508D01*
X4810658Y-14543508D02*
X4820182Y-14553031D01*
X4820182Y-14553031D02*
X4829705Y-14572079D01*
X4829705Y-14572079D02*
X4839229Y-14610174D01*
X4839229Y-14610174D02*
X4839229Y-14657793D01*
X4839229Y-14657793D02*
X4829705Y-14695888D01*
X4829705Y-14695888D02*
X4820182Y-14714936D01*
X4820182Y-14714936D02*
X4810658Y-14724460D01*
X4810658Y-14724460D02*
X4791610Y-14733984D01*
X4791610Y-14733984D02*
X4772563Y-14733984D01*
X4772563Y-14733984D02*
X4753515Y-14724460D01*
X4753515Y-14724460D02*
X4743991Y-14714936D01*
X4743991Y-14714936D02*
X4734467Y-14695888D01*
X4734467Y-14695888D02*
X4724944Y-14657793D01*
X4724944Y-14657793D02*
X4724944Y-14610174D01*
X4724944Y-14610174D02*
X4734467Y-14572079D01*
X4734467Y-14572079D02*
X4743991Y-14553031D01*
X4743991Y-14553031D02*
X4753515Y-14543508D01*
X4753515Y-14543508D02*
X4772563Y-14533984D01*
X4963039Y-14533984D02*
X4982086Y-14533984D01*
X4982086Y-14533984D02*
X5001134Y-14543508D01*
X5001134Y-14543508D02*
X5010658Y-14553031D01*
X5010658Y-14553031D02*
X5020182Y-14572079D01*
X5020182Y-14572079D02*
X5029705Y-14610174D01*
X5029705Y-14610174D02*
X5029705Y-14657793D01*
X5029705Y-14657793D02*
X5020182Y-14695888D01*
X5020182Y-14695888D02*
X5010658Y-14714936D01*
X5010658Y-14714936D02*
X5001134Y-14724460D01*
X5001134Y-14724460D02*
X4982086Y-14733984D01*
X4982086Y-14733984D02*
X4963039Y-14733984D01*
X4963039Y-14733984D02*
X4943991Y-14724460D01*
X4943991Y-14724460D02*
X4934467Y-14714936D01*
X4934467Y-14714936D02*
X4924944Y-14695888D01*
X4924944Y-14695888D02*
X4915420Y-14657793D01*
X4915420Y-14657793D02*
X4915420Y-14610174D01*
X4915420Y-14610174D02*
X4924944Y-14572079D01*
X4924944Y-14572079D02*
X4934467Y-14553031D01*
X4934467Y-14553031D02*
X4943991Y-14543508D01*
X4943991Y-14543508D02*
X4963039Y-14533984D01*
X5115420Y-14733984D02*
X5115420Y-14600650D01*
X5115420Y-14619698D02*
X5124944Y-14610174D01*
X5124944Y-14610174D02*
X5143991Y-14600650D01*
X5143991Y-14600650D02*
X5172563Y-14600650D01*
X5172563Y-14600650D02*
X5191610Y-14610174D01*
X5191610Y-14610174D02*
X5201134Y-14629222D01*
X5201134Y-14629222D02*
X5201134Y-14733984D01*
X5201134Y-14629222D02*
X5210658Y-14610174D01*
X5210658Y-14610174D02*
X5229705Y-14600650D01*
X5229705Y-14600650D02*
X5258277Y-14600650D01*
X5258277Y-14600650D02*
X5277325Y-14610174D01*
X5277325Y-14610174D02*
X5286848Y-14629222D01*
X5286848Y-14629222D02*
X5286848Y-14733984D01*
X5382086Y-14733984D02*
X5382086Y-14600650D01*
X5382086Y-14619698D02*
X5391610Y-14610174D01*
X5391610Y-14610174D02*
X5410658Y-14600650D01*
X5410658Y-14600650D02*
X5439229Y-14600650D01*
X5439229Y-14600650D02*
X5458277Y-14610174D01*
X5458277Y-14610174D02*
X5467801Y-14629222D01*
X5467801Y-14629222D02*
X5467801Y-14733984D01*
X5467801Y-14629222D02*
X5477325Y-14610174D01*
X5477325Y-14610174D02*
X5496372Y-14600650D01*
X5496372Y-14600650D02*
X5524944Y-14600650D01*
X5524944Y-14600650D02*
X5543991Y-14610174D01*
X5543991Y-14610174D02*
X5553515Y-14629222D01*
X5553515Y-14629222D02*
X5553515Y-14733984D01*
X5943991Y-14524460D02*
X5772563Y-14781603D01*
X6201134Y-14533984D02*
X6220182Y-14533984D01*
X6220182Y-14533984D02*
X6239229Y-14543508D01*
X6239229Y-14543508D02*
X6248753Y-14553031D01*
X6248753Y-14553031D02*
X6258277Y-14572079D01*
X6258277Y-14572079D02*
X6267801Y-14610174D01*
X6267801Y-14610174D02*
X6267801Y-14657793D01*
X6267801Y-14657793D02*
X6258277Y-14695888D01*
X6258277Y-14695888D02*
X6248753Y-14714936D01*
X6248753Y-14714936D02*
X6239229Y-14724460D01*
X6239229Y-14724460D02*
X6220182Y-14733984D01*
X6220182Y-14733984D02*
X6201134Y-14733984D01*
X6201134Y-14733984D02*
X6182086Y-14724460D01*
X6182086Y-14724460D02*
X6172563Y-14714936D01*
X6172563Y-14714936D02*
X6163039Y-14695888D01*
X6163039Y-14695888D02*
X6153515Y-14657793D01*
X6153515Y-14657793D02*
X6153515Y-14610174D01*
X6153515Y-14610174D02*
X6163039Y-14572079D01*
X6163039Y-14572079D02*
X6172563Y-14553031D01*
X6172563Y-14553031D02*
X6182086Y-14543508D01*
X6182086Y-14543508D02*
X6201134Y-14533984D01*
X6353515Y-14714936D02*
X6363039Y-14724460D01*
X6363039Y-14724460D02*
X6353515Y-14733984D01*
X6353515Y-14733984D02*
X6343991Y-14724460D01*
X6343991Y-14724460D02*
X6353515Y-14714936D01*
X6353515Y-14714936D02*
X6353515Y-14733984D01*
X6553515Y-14733984D02*
X6439229Y-14733984D01*
X6496372Y-14733984D02*
X6496372Y-14533984D01*
X6496372Y-14533984D02*
X6477325Y-14562555D01*
X6477325Y-14562555D02*
X6458277Y-14581603D01*
X6458277Y-14581603D02*
X6439229Y-14591127D01*
X6677325Y-14533984D02*
X6696372Y-14533984D01*
X6696372Y-14533984D02*
X6715420Y-14543508D01*
X6715420Y-14543508D02*
X6724944Y-14553031D01*
X6724944Y-14553031D02*
X6734467Y-14572079D01*
X6734467Y-14572079D02*
X6743991Y-14610174D01*
X6743991Y-14610174D02*
X6743991Y-14657793D01*
X6743991Y-14657793D02*
X6734467Y-14695888D01*
X6734467Y-14695888D02*
X6724944Y-14714936D01*
X6724944Y-14714936D02*
X6715420Y-14724460D01*
X6715420Y-14724460D02*
X6696372Y-14733984D01*
X6696372Y-14733984D02*
X6677325Y-14733984D01*
X6677325Y-14733984D02*
X6658277Y-14724460D01*
X6658277Y-14724460D02*
X6648753Y-14714936D01*
X6648753Y-14714936D02*
X6639229Y-14695888D01*
X6639229Y-14695888D02*
X6629706Y-14657793D01*
X6629706Y-14657793D02*
X6629706Y-14610174D01*
X6629706Y-14610174D02*
X6639229Y-14572079D01*
X6639229Y-14572079D02*
X6648753Y-14553031D01*
X6648753Y-14553031D02*
X6658277Y-14543508D01*
X6658277Y-14543508D02*
X6677325Y-14533984D01*
X6915420Y-14533984D02*
X6877325Y-14533984D01*
X6877325Y-14533984D02*
X6858277Y-14543508D01*
X6858277Y-14543508D02*
X6848753Y-14553031D01*
X6848753Y-14553031D02*
X6829706Y-14581603D01*
X6829706Y-14581603D02*
X6820182Y-14619698D01*
X6820182Y-14619698D02*
X6820182Y-14695888D01*
X6820182Y-14695888D02*
X6829706Y-14714936D01*
X6829706Y-14714936D02*
X6839229Y-14724460D01*
X6839229Y-14724460D02*
X6858277Y-14733984D01*
X6858277Y-14733984D02*
X6896372Y-14733984D01*
X6896372Y-14733984D02*
X6915420Y-14724460D01*
X6915420Y-14724460D02*
X6924944Y-14714936D01*
X6924944Y-14714936D02*
X6934467Y-14695888D01*
X6934467Y-14695888D02*
X6934467Y-14648269D01*
X6934467Y-14648269D02*
X6924944Y-14629222D01*
X6924944Y-14629222D02*
X6915420Y-14619698D01*
X6915420Y-14619698D02*
X6896372Y-14610174D01*
X6896372Y-14610174D02*
X6858277Y-14610174D01*
X6858277Y-14610174D02*
X6839229Y-14619698D01*
X6839229Y-14619698D02*
X6829706Y-14629222D01*
X6829706Y-14629222D02*
X6820182Y-14648269D01*
X7001134Y-14533984D02*
X7124944Y-14533984D01*
X7124944Y-14533984D02*
X7058277Y-14610174D01*
X7058277Y-14610174D02*
X7086848Y-14610174D01*
X7086848Y-14610174D02*
X7105896Y-14619698D01*
X7105896Y-14619698D02*
X7115420Y-14629222D01*
X7115420Y-14629222D02*
X7124944Y-14648269D01*
X7124944Y-14648269D02*
X7124944Y-14695888D01*
X7124944Y-14695888D02*
X7115420Y-14714936D01*
X7115420Y-14714936D02*
X7105896Y-14724460D01*
X7105896Y-14724460D02*
X7086848Y-14733984D01*
X7086848Y-14733984D02*
X7029706Y-14733984D01*
X7029706Y-14733984D02*
X7010658Y-14724460D01*
X7010658Y-14724460D02*
X7001134Y-14714936D01*
X7201134Y-14533984D02*
X7201134Y-14572079D01*
X7277325Y-14533984D02*
X7277325Y-14572079D01*
X7572563Y-14810174D02*
X7563039Y-14800650D01*
X7563039Y-14800650D02*
X7543991Y-14772079D01*
X7543991Y-14772079D02*
X7534468Y-14753031D01*
X7534468Y-14753031D02*
X7524944Y-14724460D01*
X7524944Y-14724460D02*
X7515420Y-14676841D01*
X7515420Y-14676841D02*
X7515420Y-14638746D01*
X7515420Y-14638746D02*
X7524944Y-14591127D01*
X7524944Y-14591127D02*
X7534468Y-14562555D01*
X7534468Y-14562555D02*
X7543991Y-14543508D01*
X7543991Y-14543508D02*
X7563039Y-14514936D01*
X7563039Y-14514936D02*
X7572563Y-14505412D01*
X7734468Y-14600650D02*
X7734468Y-14733984D01*
X7686848Y-14524460D02*
X7639229Y-14667317D01*
X7639229Y-14667317D02*
X7763039Y-14667317D01*
X7991610Y-14733984D02*
X7991610Y-14533984D01*
X8077325Y-14733984D02*
X8077325Y-14629222D01*
X8077325Y-14629222D02*
X8067801Y-14610174D01*
X8067801Y-14610174D02*
X8048753Y-14600650D01*
X8048753Y-14600650D02*
X8020182Y-14600650D01*
X8020182Y-14600650D02*
X8001134Y-14610174D01*
X8001134Y-14610174D02*
X7991610Y-14619698D01*
X8201134Y-14733984D02*
X8182087Y-14724460D01*
X8182087Y-14724460D02*
X8172563Y-14714936D01*
X8172563Y-14714936D02*
X8163039Y-14695888D01*
X8163039Y-14695888D02*
X8163039Y-14638746D01*
X8163039Y-14638746D02*
X8172563Y-14619698D01*
X8172563Y-14619698D02*
X8182087Y-14610174D01*
X8182087Y-14610174D02*
X8201134Y-14600650D01*
X8201134Y-14600650D02*
X8229706Y-14600650D01*
X8229706Y-14600650D02*
X8248753Y-14610174D01*
X8248753Y-14610174D02*
X8258277Y-14619698D01*
X8258277Y-14619698D02*
X8267801Y-14638746D01*
X8267801Y-14638746D02*
X8267801Y-14695888D01*
X8267801Y-14695888D02*
X8258277Y-14714936D01*
X8258277Y-14714936D02*
X8248753Y-14724460D01*
X8248753Y-14724460D02*
X8229706Y-14733984D01*
X8229706Y-14733984D02*
X8201134Y-14733984D01*
X8382087Y-14733984D02*
X8363039Y-14724460D01*
X8363039Y-14724460D02*
X8353515Y-14705412D01*
X8353515Y-14705412D02*
X8353515Y-14533984D01*
X8534468Y-14724460D02*
X8515420Y-14733984D01*
X8515420Y-14733984D02*
X8477325Y-14733984D01*
X8477325Y-14733984D02*
X8458277Y-14724460D01*
X8458277Y-14724460D02*
X8448753Y-14705412D01*
X8448753Y-14705412D02*
X8448753Y-14629222D01*
X8448753Y-14629222D02*
X8458277Y-14610174D01*
X8458277Y-14610174D02*
X8477325Y-14600650D01*
X8477325Y-14600650D02*
X8515420Y-14600650D01*
X8515420Y-14600650D02*
X8534468Y-14610174D01*
X8534468Y-14610174D02*
X8543992Y-14629222D01*
X8543992Y-14629222D02*
X8543992Y-14648269D01*
X8543992Y-14648269D02*
X8448753Y-14667317D01*
X8620182Y-14724460D02*
X8639230Y-14733984D01*
X8639230Y-14733984D02*
X8677325Y-14733984D01*
X8677325Y-14733984D02*
X8696373Y-14724460D01*
X8696373Y-14724460D02*
X8705896Y-14705412D01*
X8705896Y-14705412D02*
X8705896Y-14695888D01*
X8705896Y-14695888D02*
X8696373Y-14676841D01*
X8696373Y-14676841D02*
X8677325Y-14667317D01*
X8677325Y-14667317D02*
X8648753Y-14667317D01*
X8648753Y-14667317D02*
X8629706Y-14657793D01*
X8629706Y-14657793D02*
X8620182Y-14638746D01*
X8620182Y-14638746D02*
X8620182Y-14629222D01*
X8620182Y-14629222D02*
X8629706Y-14610174D01*
X8629706Y-14610174D02*
X8648753Y-14600650D01*
X8648753Y-14600650D02*
X8677325Y-14600650D01*
X8677325Y-14600650D02*
X8696373Y-14610174D01*
X8772563Y-14810174D02*
X8782087Y-14800650D01*
X8782087Y-14800650D02*
X8801134Y-14772079D01*
X8801134Y-14772079D02*
X8810658Y-14753031D01*
X8810658Y-14753031D02*
X8820182Y-14724460D01*
X8820182Y-14724460D02*
X8829706Y-14676841D01*
X8829706Y-14676841D02*
X8829706Y-14638746D01*
X8829706Y-14638746D02*
X8820182Y-14591127D01*
X8820182Y-14591127D02*
X8810658Y-14562555D01*
X8810658Y-14562555D02*
X8801134Y-14543508D01*
X8801134Y-14543508D02*
X8782087Y-14514936D01*
X8782087Y-14514936D02*
X8772563Y-14505412D01*
X9134468Y-14810174D02*
X9124944Y-14800650D01*
X9124944Y-14800650D02*
X9105896Y-14772079D01*
X9105896Y-14772079D02*
X9096373Y-14753031D01*
X9096373Y-14753031D02*
X9086849Y-14724460D01*
X9086849Y-14724460D02*
X9077325Y-14676841D01*
X9077325Y-14676841D02*
X9077325Y-14638746D01*
X9077325Y-14638746D02*
X9086849Y-14591127D01*
X9086849Y-14591127D02*
X9096373Y-14562555D01*
X9096373Y-14562555D02*
X9105896Y-14543508D01*
X9105896Y-14543508D02*
X9124944Y-14514936D01*
X9124944Y-14514936D02*
X9134468Y-14505412D01*
X9210658Y-14600650D02*
X9210658Y-14733984D01*
X9210658Y-14619698D02*
X9220182Y-14610174D01*
X9220182Y-14610174D02*
X9239230Y-14600650D01*
X9239230Y-14600650D02*
X9267801Y-14600650D01*
X9267801Y-14600650D02*
X9286849Y-14610174D01*
X9286849Y-14610174D02*
X9296373Y-14629222D01*
X9296373Y-14629222D02*
X9296373Y-14733984D01*
X9420182Y-14733984D02*
X9401134Y-14724460D01*
X9401134Y-14724460D02*
X9391611Y-14714936D01*
X9391611Y-14714936D02*
X9382087Y-14695888D01*
X9382087Y-14695888D02*
X9382087Y-14638746D01*
X9382087Y-14638746D02*
X9391611Y-14619698D01*
X9391611Y-14619698D02*
X9401134Y-14610174D01*
X9401134Y-14610174D02*
X9420182Y-14600650D01*
X9420182Y-14600650D02*
X9448754Y-14600650D01*
X9448754Y-14600650D02*
X9467801Y-14610174D01*
X9467801Y-14610174D02*
X9477325Y-14619698D01*
X9477325Y-14619698D02*
X9486849Y-14638746D01*
X9486849Y-14638746D02*
X9486849Y-14695888D01*
X9486849Y-14695888D02*
X9477325Y-14714936D01*
X9477325Y-14714936D02*
X9467801Y-14724460D01*
X9467801Y-14724460D02*
X9448754Y-14733984D01*
X9448754Y-14733984D02*
X9420182Y-14733984D01*
X9543992Y-14600650D02*
X9620182Y-14600650D01*
X9572563Y-14533984D02*
X9572563Y-14705412D01*
X9572563Y-14705412D02*
X9582087Y-14724460D01*
X9582087Y-14724460D02*
X9601134Y-14733984D01*
X9601134Y-14733984D02*
X9620182Y-14733984D01*
X9839230Y-14600650D02*
X9839230Y-14800650D01*
X9839230Y-14610174D02*
X9858277Y-14600650D01*
X9858277Y-14600650D02*
X9896373Y-14600650D01*
X9896373Y-14600650D02*
X9915420Y-14610174D01*
X9915420Y-14610174D02*
X9924944Y-14619698D01*
X9924944Y-14619698D02*
X9934468Y-14638746D01*
X9934468Y-14638746D02*
X9934468Y-14695888D01*
X9934468Y-14695888D02*
X9924944Y-14714936D01*
X9924944Y-14714936D02*
X9915420Y-14724460D01*
X9915420Y-14724460D02*
X9896373Y-14733984D01*
X9896373Y-14733984D02*
X9858277Y-14733984D01*
X9858277Y-14733984D02*
X9839230Y-14724460D01*
X10048754Y-14733984D02*
X10029706Y-14724460D01*
X10029706Y-14724460D02*
X10020182Y-14705412D01*
X10020182Y-14705412D02*
X10020182Y-14533984D01*
X10210658Y-14733984D02*
X10210658Y-14629222D01*
X10210658Y-14629222D02*
X10201135Y-14610174D01*
X10201135Y-14610174D02*
X10182087Y-14600650D01*
X10182087Y-14600650D02*
X10143992Y-14600650D01*
X10143992Y-14600650D02*
X10124944Y-14610174D01*
X10210658Y-14724460D02*
X10191611Y-14733984D01*
X10191611Y-14733984D02*
X10143992Y-14733984D01*
X10143992Y-14733984D02*
X10124944Y-14724460D01*
X10124944Y-14724460D02*
X10115420Y-14705412D01*
X10115420Y-14705412D02*
X10115420Y-14686365D01*
X10115420Y-14686365D02*
X10124944Y-14667317D01*
X10124944Y-14667317D02*
X10143992Y-14657793D01*
X10143992Y-14657793D02*
X10191611Y-14657793D01*
X10191611Y-14657793D02*
X10210658Y-14648269D01*
X10277325Y-14600650D02*
X10353515Y-14600650D01*
X10305896Y-14533984D02*
X10305896Y-14705412D01*
X10305896Y-14705412D02*
X10315420Y-14724460D01*
X10315420Y-14724460D02*
X10334468Y-14733984D01*
X10334468Y-14733984D02*
X10353515Y-14733984D01*
X10496373Y-14724460D02*
X10477325Y-14733984D01*
X10477325Y-14733984D02*
X10439230Y-14733984D01*
X10439230Y-14733984D02*
X10420182Y-14724460D01*
X10420182Y-14724460D02*
X10410658Y-14705412D01*
X10410658Y-14705412D02*
X10410658Y-14629222D01*
X10410658Y-14629222D02*
X10420182Y-14610174D01*
X10420182Y-14610174D02*
X10439230Y-14600650D01*
X10439230Y-14600650D02*
X10477325Y-14600650D01*
X10477325Y-14600650D02*
X10496373Y-14610174D01*
X10496373Y-14610174D02*
X10505896Y-14629222D01*
X10505896Y-14629222D02*
X10505896Y-14648269D01*
X10505896Y-14648269D02*
X10410658Y-14667317D01*
X10677325Y-14733984D02*
X10677325Y-14533984D01*
X10677325Y-14724460D02*
X10658277Y-14733984D01*
X10658277Y-14733984D02*
X10620182Y-14733984D01*
X10620182Y-14733984D02*
X10601135Y-14724460D01*
X10601135Y-14724460D02*
X10591611Y-14714936D01*
X10591611Y-14714936D02*
X10582087Y-14695888D01*
X10582087Y-14695888D02*
X10582087Y-14638746D01*
X10582087Y-14638746D02*
X10591611Y-14619698D01*
X10591611Y-14619698D02*
X10601135Y-14610174D01*
X10601135Y-14610174D02*
X10620182Y-14600650D01*
X10620182Y-14600650D02*
X10658277Y-14600650D01*
X10658277Y-14600650D02*
X10677325Y-14610174D01*
X10753516Y-14810174D02*
X10763039Y-14800650D01*
X10763039Y-14800650D02*
X10782087Y-14772079D01*
X10782087Y-14772079D02*
X10791611Y-14753031D01*
X10791611Y-14753031D02*
X10801135Y-14724460D01*
X10801135Y-14724460D02*
X10810658Y-14676841D01*
X10810658Y-14676841D02*
X10810658Y-14638746D01*
X10810658Y-14638746D02*
X10801135Y-14591127D01*
X10801135Y-14591127D02*
X10791611Y-14562555D01*
X10791611Y-14562555D02*
X10782087Y-14543508D01*
X10782087Y-14543508D02*
X10763039Y-14514936D01*
X10763039Y-14514936D02*
X10753516Y-14505412D01*
M02*
