M48
; DRILL file {KiCad 8.0.3} date 2024-07-30T19:31:19-0700
; FORMAT={-:-/ absolute / metric / decimal}
; #@! TF.CreationDate,2024-07-30T19:31:19-07:00
; #@! TF.GenerationSoftware,Kicad,Pcbnew,8.0.3
; #@! TF.FileFunction,Plated,1,2,PTH
FMAT,2
METRIC
; #@! TA.AperFunction,Plated,PTH,ViaDrill
T1C0.400
; #@! TA.AperFunction,Plated,PTH,ComponentDrill
T2C0.700
; #@! TA.AperFunction,Plated,PTH,ComponentDrill
T3C1.000
; #@! TA.AperFunction,Plated,PTH,ComponentDrill
T4C1.100
; #@! TA.AperFunction,Plated,PTH,ComponentDrill
T5C1.800
; #@! TA.AperFunction,Plated,PTH,ComponentDrill
T6C2.500
%
G90
G05
T1
X42.0Y-49.0
X42.0Y-57.0
X42.0Y-65.0
X42.0Y-73.0
X45.0Y-42.0
X53.0Y-42.0
X61.0Y-42.0
X64.0Y-88.0
X64.0Y-102.5
X64.0Y-114.5
X64.0Y-128.0
X69.0Y-42.0
X77.0Y-42.0
X120.0Y-42.0
X120.0Y-123.5
X123.0Y-46.0
X123.0Y-54.0
X123.0Y-62.0
X123.0Y-70.0
X123.0Y-78.0
X123.0Y-86.0
X123.0Y-94.0
X123.0Y-102.0
T2
X83.92Y-64.0
X89.0Y-64.0
X95.84Y-64.0
X100.92Y-64.0
X109.92Y-67.0
X115.0Y-67.0
T3
X51.0Y-74.0
X53.54Y-74.0
X56.08Y-74.0
X58.62Y-74.0
X61.16Y-74.0
X63.7Y-74.0
X66.24Y-74.0
X66.86Y-135.26
X68.78Y-74.0
X69.4Y-135.26
X71.94Y-135.26
X74.48Y-135.26
X76.0Y-87.0
X77.02Y-135.26
X78.54Y-87.0
X79.56Y-135.26
X81.08Y-87.0
X82.1Y-135.26
X83.62Y-87.0
X84.64Y-135.26
X86.16Y-87.0
X87.18Y-135.26
X88.7Y-87.0
X89.72Y-135.26
X91.24Y-87.0
X93.78Y-87.0
X93.78Y-135.26
X96.32Y-135.26
X98.86Y-87.0
X98.86Y-135.26
X101.4Y-87.0
X101.4Y-135.26
X103.94Y-87.0
X103.94Y-135.26
X106.48Y-87.0
X106.48Y-135.26
X109.02Y-87.0
X109.02Y-135.26
X110.2Y-44.0
X110.2Y-58.5
X111.56Y-87.0
X111.56Y-135.26
X112.7Y-58.5
X115.2Y-44.0
X115.2Y-58.5
T4
X83.0Y-44.0
X83.0Y-48.5
X89.5Y-44.0
X89.5Y-48.5
X95.0Y-44.0
X95.0Y-48.5
X101.5Y-44.0
X101.5Y-48.5
T6
X45.0Y-81.5
X95.0Y-55.0
X120.0Y-135.0
T5
X107.0Y-50.6G85X107.0Y-51.4
G05
X118.4Y-50.6G85X118.4Y-51.4
G05
M30
